<?xml version="1.0" encoding="UTF-8" standalone="no"?>
<!DOCTYPE svg PUBLIC "-//W3C//DTD SVG 1.1//EN"
 "http://www.w3.org/Graphics/SVG/1.1/DTD/svg11.dtd">
<!-- Generated by graphviz version 2.48.0 (20210717.1556)
 -->
<!-- Title: include/Board.h Pages: 1 -->
<svg width="636pt" height="196pt"
 viewBox="0.00 0.00 635.50 196.00" xmlns="http://www.w3.org/2000/svg" xmlns:xlink="http://www.w3.org/1999/xlink">
<g id="graph0" class="graph" transform="scale(1 1) rotate(0) translate(4 192)">
<title>include/Board.h</title>
<!-- Node1 -->
<g id="node1" class="node">
<title>Node1</title>
<g id="a_node1"><a xlink:title="Board struct and methods to handle the board.">
<polygon fill="#bfbfbf" stroke="black" points="340,-168.5 340,-187.5 426,-187.5 426,-168.5 340,-168.5"/>
<text text-anchor="middle" x="383" y="-175.5" font-family="Helvetica,sans-Serif" font-size="10.00">include/Board.h</text>
</a>
</g>
</g>
<!-- Node2 -->
<g id="node2" class="node">
<title>Node2</title>
<g id="a_node2"><a xlink:href="_game_8h.html" target="_top" xlink:title="Methods to handle a game.">
<polygon fill="none" stroke="black" points="416.5,-56.5 416.5,-75.5 503.5,-75.5 503.5,-56.5 416.5,-56.5"/>
<text text-anchor="middle" x="460" y="-63.5" font-family="Helvetica,sans-Serif" font-size="10.00">include/Game.h</text>
</a>
</g>
</g>
<!-- Node1&#45;&gt;Node2 -->
<g id="edge1" class="edge">
<title>Node1&#45;&gt;Node2</title>
<path fill="none" stroke="midnightblue" d="M394.93,-159.96C411.62,-136.12 441.3,-93.71 453.99,-75.59"/>
<polygon fill="midnightblue" stroke="midnightblue" points="391.91,-158.17 389.04,-168.37 397.64,-162.18 391.91,-158.17"/>
</g>
<!-- Node3 -->
<g id="node3" class="node">
<title>Node3</title>
<g id="a_node3"><a xlink:href="_game_8c.html" target="_top" xlink:title="Methods to handle a game.">
<polygon fill="none" stroke="black" points="0,-0.5 0,-19.5 68,-19.5 68,-0.5 0,-0.5"/>
<text text-anchor="middle" x="34" y="-7.5" font-family="Helvetica,sans-Serif" font-size="10.00">src/Game.c</text>
</a>
</g>
</g>
<!-- Node1&#45;&gt;Node3 -->
<g id="edge13" class="edge">
<title>Node1&#45;&gt;Node3</title>
<path fill="none" stroke="midnightblue" d="M329.65,-177.11C272.91,-175.24 181.88,-166.43 112,-132 79.28,-115.88 70.91,-107.19 52,-76 40.95,-57.78 36.51,-32.61 34.87,-19.59"/>
<polygon fill="midnightblue" stroke="midnightblue" points="329.74,-180.62 339.83,-177.38 329.93,-173.62 329.74,-180.62"/>
</g>
<!-- Node4 -->
<g id="node4" class="node">
<title>Node4</title>
<g id="a_node4"><a xlink:href="_multiplayer_8c.html" target="_top" xlink:title="Multiplayer mode handler.">
<polygon fill="none" stroke="black" points="452,-0.5 452,-19.5 540,-19.5 540,-0.5 452,-0.5"/>
<text text-anchor="middle" x="496" y="-7.5" font-family="Helvetica,sans-Serif" font-size="10.00">src/Multiplayer.c</text>
</a>
</g>
</g>
<!-- Node1&#45;&gt;Node4 -->
<g id="edge14" class="edge">
<title>Node1&#45;&gt;Node4</title>
<path fill="none" stroke="midnightblue" d="M412.04,-164.02C443.31,-148.26 491.34,-118.41 512,-76 521.16,-57.19 509.53,-32.7 501.82,-19.81"/>
<polygon fill="midnightblue" stroke="midnightblue" points="410.38,-160.94 402.93,-168.46 413.45,-167.23 410.38,-160.94"/>
</g>
<!-- Node5 -->
<g id="node5" class="node">
<title>Node5</title>
<g id="a_node5"><a xlink:href="_single_player_8c.html" target="_top" xlink:title="SinglePlayer mode handler.">
<polygon fill="none" stroke="black" points="86,-0.5 86,-19.5 182,-19.5 182,-0.5 86,-0.5"/>
<text text-anchor="middle" x="134" y="-7.5" font-family="Helvetica,sans-Serif" font-size="10.00">src/SinglePlayer.c</text>
</a>
</g>
</g>
<!-- Node1&#45;&gt;Node5 -->
<g id="edge15" class="edge">
<title>Node1&#45;&gt;Node5</title>
<path fill="none" stroke="midnightblue" d="M329.94,-168.25C246.74,-153.31 91.78,-120.18 60,-76 42.82,-52.12 82.13,-30.99 109.78,-19.69"/>
<polygon fill="midnightblue" stroke="midnightblue" points="329.5,-171.73 339.96,-170.02 330.72,-164.83 329.5,-171.73"/>
</g>
<!-- Node6 -->
<g id="node6" class="node">
<title>Node6</title>
<g id="a_node6"><a xlink:href="_moves_8h.html" target="_top" xlink:title="Moves contains all the data types and methods used to handle moves.">
<polygon fill="none" stroke="black" points="236.5,-112.5 236.5,-131.5 325.5,-131.5 325.5,-112.5 236.5,-112.5"/>
<text text-anchor="middle" x="281" y="-119.5" font-family="Helvetica,sans-Serif" font-size="10.00">include/Moves.h</text>
</a>
</g>
</g>
<!-- Node1&#45;&gt;Node6 -->
<g id="edge5" class="edge">
<title>Node1&#45;&gt;Node6</title>
<path fill="none" stroke="midnightblue" d="M357.67,-163.59C338.81,-153.61 313.62,-140.27 297.35,-131.65"/>
<polygon fill="midnightblue" stroke="midnightblue" points="356.14,-166.74 366.61,-168.32 359.41,-160.55 356.14,-166.74"/>
</g>
<!-- Node10 -->
<g id="node10" class="node">
<title>Node10</title>
<g id="a_node10"><a xlink:href="_board_8c.html" target="_top" xlink:title="Board struct and methods to handle the board.">
<polygon fill="none" stroke="black" points="560.5,-112.5 560.5,-131.5 627.5,-131.5 627.5,-112.5 560.5,-112.5"/>
<text text-anchor="middle" x="594" y="-119.5" font-family="Helvetica,sans-Serif" font-size="10.00">src/Board.c</text>
</a>
</g>
</g>
<!-- Node1&#45;&gt;Node10 -->
<g id="edge12" class="edge">
<title>Node1&#45;&gt;Node10</title>
<path fill="none" stroke="midnightblue" d="M426.14,-165.96C465.99,-155.76 524.36,-140.82 560.72,-131.52"/>
<polygon fill="midnightblue" stroke="midnightblue" points="425.25,-162.57 416.43,-168.44 426.99,-169.35 425.25,-162.57"/>
</g>
<!-- Node2&#45;&gt;Node3 -->
<g id="edge2" class="edge">
<title>Node2&#45;&gt;Node3</title>
<path fill="none" stroke="midnightblue" d="M406.06,-55.96C259.11,-35.96 219.44,-42.62 77,-20 74.14,-19.55 71.18,-19.03 68.21,-18.48"/>
<polygon fill="midnightblue" stroke="midnightblue" points="405.97,-59.48 416.36,-57.38 406.93,-52.54 405.97,-59.48"/>
</g>
<!-- Node2&#45;&gt;Node4 -->
<g id="edge3" class="edge">
<title>Node2&#45;&gt;Node4</title>
<path fill="none" stroke="midnightblue" d="M471.62,-47.57C477.82,-38.27 485.17,-27.25 490.17,-19.75"/>
<polygon fill="midnightblue" stroke="midnightblue" points="468.58,-45.82 465.94,-56.08 474.4,-49.7 468.58,-45.82"/>
</g>
<!-- Node2&#45;&gt;Node5 -->
<g id="edge4" class="edge">
<title>Node2&#45;&gt;Node5</title>
<path fill="none" stroke="midnightblue" d="M406.27,-55.88C321.44,-41.71 234.84,-27.49 182.34,-18.9"/>
<polygon fill="midnightblue" stroke="midnightblue" points="405.89,-59.37 416.33,-57.57 407.04,-52.47 405.89,-59.37"/>
</g>
<!-- Node6&#45;&gt;Node2 -->
<g id="edge6" class="edge">
<title>Node6&#45;&gt;Node2</title>
<path fill="none" stroke="midnightblue" d="M319.33,-109.44C353.08,-99.26 401.45,-84.66 431.77,-75.52"/>
<polygon fill="midnightblue" stroke="midnightblue" points="317.93,-106.2 309.36,-112.44 319.95,-112.91 317.93,-106.2"/>
</g>
<!-- Node6&#45;&gt;Node3 -->
<g id="edge10" class="edge">
<title>Node6&#45;&gt;Node3</title>
<path fill="none" stroke="midnightblue" d="M226.08,-115.79C169.04,-109.35 84.74,-96.65 60,-76 42.65,-61.51 36.78,-33.76 34.88,-19.67"/>
<polygon fill="midnightblue" stroke="midnightblue" points="225.72,-119.27 236.04,-116.88 226.48,-112.31 225.72,-119.27"/>
</g>
<!-- Node7 -->
<g id="node7" class="node">
<title>Node7</title>
<g id="a_node7"><a xlink:href="_multiplayer_8h.html" target="_top" xlink:title="Multiplayer mode handler.">
<polygon fill="none" stroke="black" points="202.5,-56.5 202.5,-75.5 309.5,-75.5 309.5,-56.5 202.5,-56.5"/>
<text text-anchor="middle" x="256" y="-63.5" font-family="Helvetica,sans-Serif" font-size="10.00">include/Multiplayer.h</text>
</a>
</g>
</g>
<!-- Node6&#45;&gt;Node7 -->
<g id="edge7" class="edge">
<title>Node6&#45;&gt;Node7</title>
<path fill="none" stroke="midnightblue" d="M272.66,-102.98C268.42,-93.82 263.45,-83.09 260.05,-75.75"/>
<polygon fill="midnightblue" stroke="midnightblue" points="269.49,-104.48 276.87,-112.08 275.85,-101.54 269.49,-104.48"/>
</g>
<!-- Node8 -->
<g id="node8" class="node">
<title>Node8</title>
<g id="a_node8"><a xlink:href="_single_player_8h.html" target="_top" xlink:title="SinglePlayer mode handler.">
<polygon fill="none" stroke="black" points="69.5,-56.5 69.5,-75.5 184.5,-75.5 184.5,-56.5 69.5,-56.5"/>
<text text-anchor="middle" x="127" y="-63.5" font-family="Helvetica,sans-Serif" font-size="10.00">include/SinglePlayer.h</text>
</a>
</g>
</g>
<!-- Node6&#45;&gt;Node8 -->
<g id="edge8" class="edge">
<title>Node6&#45;&gt;Node8</title>
<path fill="none" stroke="midnightblue" d="M246.89,-109.04C217.91,-98.88 177.04,-84.55 151.29,-75.52"/>
<polygon fill="midnightblue" stroke="midnightblue" points="246,-112.44 256.6,-112.44 248.32,-105.83 246,-112.44"/>
</g>
<!-- Node9 -->
<g id="node9" class="node">
<title>Node9</title>
<g id="a_node9"><a xlink:href="_moves_8c.html" target="_top" xlink:title="Moves contains all the data types and methods used to handle moves.">
<polygon fill="none" stroke="black" points="328,-56.5 328,-75.5 398,-75.5 398,-56.5 328,-56.5"/>
<text text-anchor="middle" x="363" y="-63.5" font-family="Helvetica,sans-Serif" font-size="10.00">src/Moves.c</text>
</a>
</g>
</g>
<!-- Node6&#45;&gt;Node9 -->
<g id="edge11" class="edge">
<title>Node6&#45;&gt;Node9</title>
<path fill="none" stroke="midnightblue" d="M302.83,-106.62C317.81,-96.76 337.2,-83.99 349.86,-75.65"/>
<polygon fill="midnightblue" stroke="midnightblue" points="300.6,-103.9 294.17,-112.32 304.45,-109.75 300.6,-103.9"/>
</g>
<!-- Node8&#45;&gt;Node5 -->
<g id="edge9" class="edge">
<title>Node8&#45;&gt;Node5</title>
<path fill="none" stroke="midnightblue" d="M129.45,-46.1C130.61,-37.14 131.94,-26.86 132.87,-19.75"/>
<polygon fill="midnightblue" stroke="midnightblue" points="125.97,-45.72 128.16,-56.08 132.91,-46.62 125.97,-45.72"/>
</g>
</g>
</svg>
