<?xml version="1.0" encoding="UTF-8" standalone="no"?>
<!DOCTYPE svg PUBLIC "-//W3C//DTD SVG 1.1//EN"
 "http://www.w3.org/Graphics/SVG/1.1/DTD/svg11.dtd">
<!-- Generated by graphviz version 2.48.0 (20210717.1556)
 -->
<!-- Title: include/Board.h Pages: 1 -->
<svg width="126pt" height="140pt"
 viewBox="0.00 0.00 125.50 140.00" xmlns="http://www.w3.org/2000/svg" xmlns:xlink="http://www.w3.org/1999/xlink">
<g id="graph0" class="graph" transform="scale(1 1) rotate(0) translate(4 136)">
<title>include/Board.h</title>
<!-- Node1 -->
<g id="node1" class="node">
<title>Node1</title>
<g id="a_node1"><a xlink:title="Board struct and methods to handle the board.">
<polygon fill="#bfbfbf" stroke="black" points="16.5,-112.5 16.5,-131.5 102.5,-131.5 102.5,-112.5 16.5,-112.5"/>
<text text-anchor="middle" x="59.5" y="-119.5" font-family="Helvetica,sans-Serif" font-size="10.00">include/Board.h</text>
</a>
</g>
</g>
<!-- Node2 -->
<g id="node2" class="node">
<title>Node2</title>
<g id="a_node2"><a xlink:href="_cell_8h.html" target="_top" xlink:title="Cell struct and methods to handle cells and their towers.">
<polygon fill="none" stroke="black" points="38.5,-56.5 38.5,-75.5 80.5,-75.5 80.5,-56.5 38.5,-56.5"/>
<text text-anchor="middle" x="59.5" y="-63.5" font-family="Helvetica,sans-Serif" font-size="10.00">Cell.h</text>
</a>
</g>
</g>
<!-- Node1&#45;&gt;Node2 -->
<g id="edge1" class="edge">
<title>Node1&#45;&gt;Node2</title>
<path fill="none" stroke="midnightblue" d="M59.5,-112.08C59.5,-105.01 59.5,-94.86 59.5,-85.99"/>
<polygon fill="midnightblue" stroke="midnightblue" points="63,-85.75 59.5,-75.75 56,-85.75 63,-85.75"/>
</g>
<!-- Node3 -->
<g id="node3" class="node">
<title>Node3</title>
<g id="a_node3"><a xlink:href="_tower_8h.html" target="_top" xlink:title="Data types and methods used to handle a Tower.">
<polygon fill="none" stroke="black" points="0,-0.5 0,-19.5 51,-19.5 51,-0.5 0,-0.5"/>
<text text-anchor="middle" x="25.5" y="-7.5" font-family="Helvetica,sans-Serif" font-size="10.00">Tower.h</text>
</a>
</g>
</g>
<!-- Node2&#45;&gt;Node3 -->
<g id="edge2" class="edge">
<title>Node2&#45;&gt;Node3</title>
<path fill="none" stroke="midnightblue" d="M53.89,-56.08C49.13,-48.53 42.18,-37.49 36.35,-28.23"/>
<polygon fill="midnightblue" stroke="midnightblue" points="39.3,-26.35 31.01,-19.75 33.38,-30.08 39.3,-26.35"/>
</g>
<!-- Node4 -->
<g id="node4" class="node">
<title>Node4</title>
<g id="a_node4"><a xlink:title=" ">
<polygon fill="none" stroke="#bfbfbf" points="69.5,-0.5 69.5,-19.5 117.5,-19.5 117.5,-0.5 69.5,-0.5"/>
<text text-anchor="middle" x="93.5" y="-7.5" font-family="Helvetica,sans-Serif" font-size="10.00">stdlib.h</text>
</a>
</g>
</g>
<!-- Node2&#45;&gt;Node4 -->
<g id="edge3" class="edge">
<title>Node2&#45;&gt;Node4</title>
<path fill="none" stroke="midnightblue" d="M65.11,-56.08C69.87,-48.53 76.82,-37.49 82.65,-28.23"/>
<polygon fill="midnightblue" stroke="midnightblue" points="85.62,-30.08 87.99,-19.75 79.7,-26.35 85.62,-30.08"/>
</g>
</g>
</svg>
