<?xml version="1.0" encoding="UTF-8" standalone="no"?>
<!DOCTYPE svg PUBLIC "-//W3C//DTD SVG 1.1//EN"
 "http://www.w3.org/Graphics/SVG/1.1/DTD/svg11.dtd">
<!-- Generated by graphviz version 2.48.0 (20210717.1556)
 -->
<!-- Title: include/Board.h Pages: 1 -->
<svg width="667pt" height="252pt"
 viewBox="0.00 0.00 667.12 252.00" xmlns="http://www.w3.org/2000/svg" xmlns:xlink="http://www.w3.org/1999/xlink">
<g id="graph0" class="graph" transform="scale(1 1) rotate(0) translate(4 248)">
<title>include/Board.h</title>
<!-- Node1 -->
<g id="node1" class="node">
<title>Node1</title>
<g id="a_node1"><a xlink:title="Board struct and methods to handle the board.">
<polygon fill="#bfbfbf" stroke="black" points="410.62,-224.5 410.62,-243.5 496.62,-243.5 496.62,-224.5 410.62,-224.5"/>
<text text-anchor="middle" x="453.62" y="-231.5" font-family="Helvetica,sans-Serif" font-size="10.00">include/Board.h</text>
</a>
</g>
</g>
<!-- Node2 -->
<g id="node2" class="node">
<title>Node2</title>
<g id="a_node2"><a xlink:href="_game_8h.html" target="_top" xlink:title="Methods to handle a game.">
<polygon fill="none" stroke="black" points="410.12,-112.5 410.12,-131.5 497.12,-131.5 497.12,-112.5 410.12,-112.5"/>
<text text-anchor="middle" x="453.62" y="-119.5" font-family="Helvetica,sans-Serif" font-size="10.00">include/Game.h</text>
</a>
</g>
</g>
<!-- Node1&#45;&gt;Node2 -->
<g id="edge1" class="edge">
<title>Node1&#45;&gt;Node2</title>
<path fill="none" stroke="midnightblue" d="M453.62,-214.35C453.62,-190.25 453.62,-149.31 453.62,-131.59"/>
<polygon fill="midnightblue" stroke="midnightblue" points="450.12,-214.37 453.62,-224.37 457.12,-214.37 450.12,-214.37"/>
</g>
<!-- Node3 -->
<g id="node3" class="node">
<title>Node3</title>
<g id="a_node3"><a xlink:href="_minimax_a_i_8h.html" target="_top" xlink:title="Minimax algorithm.">
<polygon fill="none" stroke="black" points="397.62,-56.5 397.62,-75.5 503.62,-75.5 503.62,-56.5 397.62,-56.5"/>
<text text-anchor="middle" x="450.62" y="-63.5" font-family="Helvetica,sans-Serif" font-size="10.00">include/MinimaxAI.h</text>
</a>
</g>
</g>
<!-- Node1&#45;&gt;Node3 -->
<g id="edge8" class="edge">
<title>Node1&#45;&gt;Node3</title>
<path fill="none" stroke="midnightblue" d="M469.38,-217.1C490.45,-193.8 523.23,-149.15 505.62,-112 497.86,-95.61 480.87,-83.21 467.82,-75.61"/>
<polygon fill="midnightblue" stroke="midnightblue" points="466.82,-214.71 462.52,-224.4 471.92,-219.51 466.82,-214.71"/>
</g>
<!-- Node5 -->
<g id="node5" class="node">
<title>Node5</title>
<g id="a_node5"><a xlink:href="_single_player_8c.html" target="_top" xlink:title="SinglePlayer mode handler.">
<polygon fill="none" stroke="black" points="283.62,-0.5 283.62,-19.5 379.62,-19.5 379.62,-0.5 283.62,-0.5"/>
<text text-anchor="middle" x="331.62" y="-7.5" font-family="Helvetica,sans-Serif" font-size="10.00">src/SinglePlayer.c</text>
</a>
</g>
</g>
<!-- Node1&#45;&gt;Node5 -->
<g id="edge20" class="edge">
<title>Node1&#45;&gt;Node5</title>
<path fill="none" stroke="midnightblue" d="M400.41,-230.42C310.32,-225.44 131.96,-212.73 74.62,-188 38.99,-172.63 24.06,-167.16 7.62,-132 -43.04,-23.62 181.43,-10.65 283.45,-10.22"/>
<polygon fill="midnightblue" stroke="midnightblue" points="400.25,-233.92 410.42,-230.96 400.63,-226.93 400.25,-233.92"/>
</g>
<!-- Node6 -->
<g id="node6" class="node">
<title>Node6</title>
<g id="a_node6"><a xlink:href="_game_8c.html" target="_top" xlink:title="Methods to handle a game.">
<polygon fill="none" stroke="black" points="214.62,-56.5 214.62,-75.5 282.62,-75.5 282.62,-56.5 214.62,-56.5"/>
<text text-anchor="middle" x="248.62" y="-63.5" font-family="Helvetica,sans-Serif" font-size="10.00">src/Game.c</text>
</a>
</g>
</g>
<!-- Node1&#45;&gt;Node6 -->
<g id="edge18" class="edge">
<title>Node1&#45;&gt;Node6</title>
<path fill="none" stroke="midnightblue" d="M400.42,-228.89C294.34,-219.48 62.62,-192.32 15.62,-132 10.16,-124.99 9.97,-118.86 15.62,-112 40.41,-81.97 155.59,-71.76 214.19,-68.46"/>
<polygon fill="midnightblue" stroke="midnightblue" points="400.33,-232.4 410.59,-229.78 400.93,-225.43 400.33,-232.4"/>
</g>
<!-- Node7 -->
<g id="node7" class="node">
<title>Node7</title>
<g id="a_node7"><a xlink:href="_multiplayer_8c.html" target="_top" xlink:title="Multiplayer mode handler.">
<polygon fill="none" stroke="black" points="521.62,-56.5 521.62,-75.5 609.62,-75.5 609.62,-56.5 521.62,-56.5"/>
<text text-anchor="middle" x="565.62" y="-63.5" font-family="Helvetica,sans-Serif" font-size="10.00">src/Multiplayer.c</text>
</a>
</g>
</g>
<!-- Node1&#45;&gt;Node7 -->
<g id="edge19" class="edge">
<title>Node1&#45;&gt;Node7</title>
<path fill="none" stroke="midnightblue" d="M477.47,-218.91C489.26,-211 502.98,-200.27 512.62,-188 541.39,-151.39 557.86,-96.76 563.45,-75.7"/>
<polygon fill="midnightblue" stroke="midnightblue" points="475.46,-216.03 468.93,-224.38 479.24,-221.93 475.46,-216.03"/>
</g>
<!-- Node8 -->
<g id="node8" class="node">
<title>Node8</title>
<g id="a_node8"><a xlink:href="_moves_8h.html" target="_top" xlink:title="Moves contains all the data types and methods used to handle moves.">
<polygon fill="none" stroke="black" points="247.12,-168.5 247.12,-187.5 336.12,-187.5 336.12,-168.5 247.12,-168.5"/>
<text text-anchor="middle" x="291.62" y="-175.5" font-family="Helvetica,sans-Serif" font-size="10.00">include/Moves.h</text>
</a>
</g>
</g>
<!-- Node1&#45;&gt;Node8 -->
<g id="edge9" class="edge">
<title>Node1&#45;&gt;Node8</title>
<path fill="none" stroke="midnightblue" d="M418.14,-221.17C387.63,-211 344.38,-196.59 317.17,-187.52"/>
<polygon fill="midnightblue" stroke="midnightblue" points="417.36,-224.6 427.95,-224.44 419.57,-217.96 417.36,-224.6"/>
</g>
<!-- Node12 -->
<g id="node12" class="node">
<title>Node12</title>
<g id="a_node12"><a xlink:href="_board_8c.html" target="_top" xlink:title="Board struct and methods to handle the board.">
<polygon fill="none" stroke="black" points="592.12,-168.5 592.12,-187.5 659.12,-187.5 659.12,-168.5 592.12,-168.5"/>
<text text-anchor="middle" x="625.62" y="-175.5" font-family="Helvetica,sans-Serif" font-size="10.00">src/Board.c</text>
</a>
</g>
</g>
<!-- Node1&#45;&gt;Node12 -->
<g id="edge17" class="edge">
<title>Node1&#45;&gt;Node12</title>
<path fill="none" stroke="midnightblue" d="M490.46,-221.44C522.88,-211.26 569.36,-196.66 598.5,-187.52"/>
<polygon fill="midnightblue" stroke="midnightblue" points="489.37,-218.11 480.88,-224.44 491.47,-224.79 489.37,-218.11"/>
</g>
<!-- Node2&#45;&gt;Node3 -->
<g id="edge2" class="edge">
<title>Node2&#45;&gt;Node3</title>
<path fill="none" stroke="midnightblue" d="M452.56,-101.8C452.06,-92.91 451.5,-82.78 451.11,-75.75"/>
<polygon fill="midnightblue" stroke="midnightblue" points="449.08,-102.29 453.13,-112.08 456.07,-101.9 449.08,-102.29"/>
</g>
<!-- Node2&#45;&gt;Node5 -->
<g id="edge7" class="edge">
<title>Node2&#45;&gt;Node5</title>
<path fill="none" stroke="midnightblue" d="M430.45,-106.94C417.56,-98.65 401.57,-87.54 388.62,-76 368.24,-57.82 348.03,-32.64 338.05,-19.6"/>
<polygon fill="midnightblue" stroke="midnightblue" points="428.87,-110.08 439.19,-112.45 432.6,-104.16 428.87,-110.08"/>
</g>
<!-- Node2&#45;&gt;Node6 -->
<g id="edge5" class="edge">
<title>Node2&#45;&gt;Node6</title>
<path fill="none" stroke="midnightblue" d="M411.21,-109.83C372.51,-99.63 316.13,-84.78 280.95,-75.52"/>
<polygon fill="midnightblue" stroke="midnightblue" points="410.58,-113.28 421.14,-112.44 412.36,-106.51 410.58,-113.28"/>
</g>
<!-- Node2&#45;&gt;Node7 -->
<g id="edge6" class="edge">
<title>Node2&#45;&gt;Node7</title>
<path fill="none" stroke="midnightblue" d="M480.87,-107.86C501.64,-97.85 529.65,-84.35 547.67,-75.65"/>
<polygon fill="midnightblue" stroke="midnightblue" points="479.11,-104.83 471.62,-112.32 482.15,-111.13 479.11,-104.83"/>
</g>
<!-- Node4 -->
<g id="node4" class="node">
<title>Node4</title>
<g id="a_node4"><a xlink:href="_minimax_a_i_8c.html" target="_top" xlink:title="Minimax algorithm.">
<polygon fill="none" stroke="black" points="398.12,-0.5 398.12,-19.5 503.12,-19.5 503.12,-0.5 398.12,-0.5"/>
<text text-anchor="middle" x="450.62" y="-7.5" font-family="Helvetica,sans-Serif" font-size="10.00">include/MinimaxAI.c</text>
</a>
</g>
</g>
<!-- Node3&#45;&gt;Node4 -->
<g id="edge3" class="edge">
<title>Node3&#45;&gt;Node4</title>
<path fill="none" stroke="midnightblue" d="M450.62,-45.8C450.62,-36.91 450.62,-26.78 450.62,-19.75"/>
<polygon fill="midnightblue" stroke="midnightblue" points="447.12,-46.08 450.62,-56.08 454.12,-46.08 447.12,-46.08"/>
</g>
<!-- Node3&#45;&gt;Node5 -->
<g id="edge4" class="edge">
<title>Node3&#45;&gt;Node5</title>
<path fill="none" stroke="midnightblue" d="M422.49,-52.23C400.23,-42.13 369.77,-28.31 350.39,-19.52"/>
<polygon fill="midnightblue" stroke="midnightblue" points="421.21,-55.5 431.77,-56.44 424.11,-49.12 421.21,-55.5"/>
</g>
<!-- Node8&#45;&gt;Node2 -->
<g id="edge10" class="edge">
<title>Node8&#45;&gt;Node2</title>
<path fill="none" stroke="midnightblue" d="M327.11,-165.17C357.61,-155 400.87,-140.59 428.07,-131.52"/>
<polygon fill="midnightblue" stroke="midnightblue" points="325.67,-161.96 317.29,-168.44 327.89,-168.6 325.67,-161.96"/>
</g>
<!-- Node8&#45;&gt;Node6 -->
<g id="edge15" class="edge">
<title>Node8&#45;&gt;Node6</title>
<path fill="none" stroke="midnightblue" d="M281.15,-159.4C276.59,-151.25 271.43,-141.33 267.62,-132 259.63,-112.4 253.49,-88.23 250.54,-75.6"/>
<polygon fill="midnightblue" stroke="midnightblue" points="278.26,-161.38 286.29,-168.3 284.32,-157.89 278.26,-161.38"/>
</g>
<!-- Node9 -->
<g id="node9" class="node">
<title>Node9</title>
<g id="a_node9"><a xlink:href="_multiplayer_8h.html" target="_top" xlink:title="Multiplayer mode handler.">
<polygon fill="none" stroke="black" points="25.12,-112.5 25.12,-131.5 132.12,-131.5 132.12,-112.5 25.12,-112.5"/>
<text text-anchor="middle" x="78.62" y="-119.5" font-family="Helvetica,sans-Serif" font-size="10.00">include/Multiplayer.h</text>
</a>
</g>
</g>
<!-- Node8&#45;&gt;Node9 -->
<g id="edge11" class="edge">
<title>Node8&#45;&gt;Node9</title>
<path fill="none" stroke="midnightblue" d="M248.07,-165.96C207.84,-155.76 148.92,-140.82 112.22,-131.52"/>
<polygon fill="midnightblue" stroke="midnightblue" points="247.32,-169.38 257.87,-168.44 249.04,-162.59 247.32,-169.38"/>
</g>
<!-- Node10 -->
<g id="node10" class="node">
<title>Node10</title>
<g id="a_node10"><a xlink:href="_single_player_8h.html" target="_top" xlink:title="SinglePlayer mode handler.">
<polygon fill="none" stroke="black" points="277.12,-112.5 277.12,-131.5 392.12,-131.5 392.12,-112.5 277.12,-112.5"/>
<text text-anchor="middle" x="334.62" y="-119.5" font-family="Helvetica,sans-Serif" font-size="10.00">include/SinglePlayer.h</text>
</a>
</g>
</g>
<!-- Node8&#45;&gt;Node10 -->
<g id="edge12" class="edge">
<title>Node8&#45;&gt;Node10</title>
<path fill="none" stroke="midnightblue" d="M305.05,-160.14C312.54,-150.74 321.56,-139.4 327.65,-131.75"/>
<polygon fill="midnightblue" stroke="midnightblue" points="302.22,-158.08 298.72,-168.08 307.69,-162.44 302.22,-158.08"/>
</g>
<!-- Node11 -->
<g id="node11" class="node">
<title>Node11</title>
<g id="a_node11"><a xlink:href="_moves_8c.html" target="_top" xlink:title="Moves contains all the data types and methods used to handle moves.">
<polygon fill="none" stroke="black" points="150.62,-112.5 150.62,-131.5 220.62,-131.5 220.62,-112.5 150.62,-112.5"/>
<text text-anchor="middle" x="185.62" y="-119.5" font-family="Helvetica,sans-Serif" font-size="10.00">src/Moves.c</text>
</a>
</g>
</g>
<!-- Node8&#45;&gt;Node11 -->
<g id="edge16" class="edge">
<title>Node8&#45;&gt;Node11</title>
<path fill="none" stroke="midnightblue" d="M265.57,-163.73C245.94,-153.73 219.6,-140.31 202.61,-131.65"/>
<polygon fill="midnightblue" stroke="midnightblue" points="264.09,-166.9 274.59,-168.32 267.27,-160.67 264.09,-166.9"/>
</g>
<!-- Node10&#45;&gt;Node3 -->
<g id="edge13" class="edge">
<title>Node10&#45;&gt;Node3</title>
<path fill="none" stroke="midnightblue" d="M362.34,-108.1C384.01,-98.01 413.53,-84.27 432.33,-75.52"/>
<polygon fill="midnightblue" stroke="midnightblue" points="360.59,-105.05 353,-112.44 363.55,-111.4 360.59,-105.05"/>
</g>
<!-- Node10&#45;&gt;Node5 -->
<g id="edge14" class="edge">
<title>Node10&#45;&gt;Node5</title>
<path fill="none" stroke="midnightblue" d="M334.11,-102.35C333.46,-78.25 332.34,-37.31 331.86,-19.59"/>
<polygon fill="midnightblue" stroke="midnightblue" points="330.62,-102.47 334.39,-112.37 337.61,-102.28 330.62,-102.47"/>
</g>
</g>
</svg>
