<?xml version="1.0" encoding="UTF-8" standalone="no"?>
<!DOCTYPE svg PUBLIC "-//W3C//DTD SVG 1.1//EN"
 "http://www.w3.org/Graphics/SVG/1.1/DTD/svg11.dtd">
<!-- Generated by graphviz version 2.48.0 (20210717.1556)
 -->
<!-- Title: src/Board.c Pages: 1 -->
<svg width="195pt" height="196pt"
 viewBox="0.00 0.00 195.07 196.00" xmlns="http://www.w3.org/2000/svg" xmlns:xlink="http://www.w3.org/1999/xlink">
<g id="graph0" class="graph" transform="scale(1 1) rotate(0) translate(4 192)">
<title>src/Board.c</title>
<!-- Node1 -->
<g id="node1" class="node">
<title>Node1</title>
<g id="a_node1"><a xlink:title="Board struct and methods to handle the board.">
<polygon fill="#bfbfbf" stroke="black" points="73.07,-168.5 73.07,-187.5 140.07,-187.5 140.07,-168.5 73.07,-168.5"/>
<text text-anchor="middle" x="106.57" y="-175.5" font-family="Helvetica,sans-Serif" font-size="10.00">src/Board.c</text>
</a>
</g>
</g>
<!-- Node2 -->
<g id="node2" class="node">
<title>Node2</title>
<g id="a_node2"><a xlink:title=" ">
<polygon fill="none" stroke="#bfbfbf" points="27.57,-0.5 27.57,-19.5 75.57,-19.5 75.57,-0.5 27.57,-0.5"/>
<text text-anchor="middle" x="51.57" y="-7.5" font-family="Helvetica,sans-Serif" font-size="10.00">stdlib.h</text>
</a>
</g>
</g>
<!-- Node1&#45;&gt;Node2 -->
<g id="edge1" class="edge">
<title>Node1&#45;&gt;Node2</title>
<path fill="none" stroke="midnightblue" d="M72.82,-171.34C50.14,-165.6 21.88,-154.22 7.57,-132 -14.31,-98.02 16.66,-51.69 36.74,-27.39"/>
<polygon fill="midnightblue" stroke="midnightblue" points="39.66,-29.37 43.53,-19.51 34.35,-24.8 39.66,-29.37"/>
</g>
<!-- Node3 -->
<g id="node3" class="node">
<title>Node3</title>
<g id="a_node3"><a xlink:title=" ">
<polygon fill="none" stroke="#bfbfbf" points="16.57,-112.5 16.57,-131.5 62.57,-131.5 62.57,-112.5 16.57,-112.5"/>
<text text-anchor="middle" x="39.57" y="-119.5" font-family="Helvetica,sans-Serif" font-size="10.00">stdio.h</text>
</a>
</g>
</g>
<!-- Node1&#45;&gt;Node3 -->
<g id="edge2" class="edge">
<title>Node1&#45;&gt;Node3</title>
<path fill="none" stroke="midnightblue" d="M95.8,-168.32C85.8,-160.26 70.68,-148.08 58.64,-138.37"/>
<polygon fill="midnightblue" stroke="midnightblue" points="60.51,-135.38 50.53,-131.83 56.12,-140.83 60.51,-135.38"/>
</g>
<!-- Node4 -->
<g id="node4" class="node">
<title>Node4</title>
<g id="a_node4"><a xlink:href="_board_8h.html" target="_top" xlink:title="Board struct and methods to handle the board.">
<polygon fill="none" stroke="black" points="80.57,-112.5 80.57,-131.5 132.57,-131.5 132.57,-112.5 80.57,-112.5"/>
<text text-anchor="middle" x="106.57" y="-119.5" font-family="Helvetica,sans-Serif" font-size="10.00">Board.h</text>
</a>
</g>
</g>
<!-- Node1&#45;&gt;Node4 -->
<g id="edge3" class="edge">
<title>Node1&#45;&gt;Node4</title>
<path fill="none" stroke="midnightblue" d="M106.57,-168.08C106.57,-161.01 106.57,-150.86 106.57,-141.99"/>
<polygon fill="midnightblue" stroke="midnightblue" points="110.07,-141.75 106.57,-131.75 103.07,-141.75 110.07,-141.75"/>
</g>
<!-- Node5 -->
<g id="node5" class="node">
<title>Node5</title>
<g id="a_node5"><a xlink:href="_cell_8h.html" target="_top" xlink:title="Cell struct and methods to handle cells and their towers.">
<polygon fill="none" stroke="black" points="106.57,-56.5 106.57,-75.5 148.57,-75.5 148.57,-56.5 106.57,-56.5"/>
<text text-anchor="middle" x="127.57" y="-63.5" font-family="Helvetica,sans-Serif" font-size="10.00">Cell.h</text>
</a>
</g>
</g>
<!-- Node1&#45;&gt;Node5 -->
<g id="edge7" class="edge">
<title>Node1&#45;&gt;Node5</title>
<path fill="none" stroke="midnightblue" d="M116.12,-168.45C124.65,-160.12 136.56,-146.6 141.57,-132 146.89,-116.49 141.99,-98.18 136.58,-84.96"/>
<polygon fill="midnightblue" stroke="midnightblue" points="139.65,-83.24 132.32,-75.59 133.28,-86.14 139.65,-83.24"/>
</g>
<!-- Node6 -->
<g id="node6" class="node">
<title>Node6</title>
<g id="a_node6"><a xlink:href="_tower_8h.html" target="_top" xlink:title="Data types and methods used to handle a Tower.">
<polygon fill="none" stroke="black" points="136.07,-0.5 136.07,-19.5 187.07,-19.5 187.07,-0.5 136.07,-0.5"/>
<text text-anchor="middle" x="161.57" y="-7.5" font-family="Helvetica,sans-Serif" font-size="10.00">Tower.h</text>
</a>
</g>
</g>
<!-- Node1&#45;&gt;Node6 -->
<g id="edge8" class="edge">
<title>Node1&#45;&gt;Node6</title>
<path fill="none" stroke="midnightblue" d="M121.35,-168.4C133.23,-160.58 149.11,-147.85 156.57,-132 172.17,-98.82 168.84,-54.7 165.12,-29.94"/>
<polygon fill="midnightblue" stroke="midnightblue" points="168.52,-29.03 163.41,-19.75 161.62,-30.19 168.52,-29.03"/>
</g>
<!-- Node4&#45;&gt;Node5 -->
<g id="edge4" class="edge">
<title>Node4&#45;&gt;Node5</title>
<path fill="none" stroke="midnightblue" d="M110.03,-112.08C112.88,-104.77 117,-94.18 120.53,-85.1"/>
<polygon fill="midnightblue" stroke="midnightblue" points="123.8,-86.34 124.16,-75.75 117.28,-83.8 123.8,-86.34"/>
</g>
<!-- Node5&#45;&gt;Node2 -->
<g id="edge6" class="edge">
<title>Node5&#45;&gt;Node2</title>
<path fill="none" stroke="midnightblue" d="M115.36,-56.32C103.79,-48.11 86.19,-35.6 72.41,-25.81"/>
<polygon fill="midnightblue" stroke="midnightblue" points="74.18,-22.77 64,-19.83 70.12,-28.48 74.18,-22.77"/>
</g>
<!-- Node5&#45;&gt;Node6 -->
<g id="edge5" class="edge">
<title>Node5&#45;&gt;Node6</title>
<path fill="none" stroke="midnightblue" d="M133.18,-56.08C137.93,-48.53 144.88,-37.49 150.72,-28.23"/>
<polygon fill="midnightblue" stroke="midnightblue" points="153.69,-30.08 156.06,-19.75 147.77,-26.35 153.69,-30.08"/>
</g>
</g>
</svg>
