<?xml version="1.0" encoding="UTF-8" standalone="no"?>
<!DOCTYPE svg PUBLIC "-//W3C//DTD SVG 1.1//EN"
 "http://www.w3.org/Graphics/SVG/1.1/DTD/svg11.dtd">
<!-- Generated by graphviz version 2.48.0 (20210717.1556)
 -->
<!-- Title: include/Bool.h Pages: 1 -->
<svg width="610pt" height="196pt"
 viewBox="0.00 0.00 609.81 196.00" xmlns="http://www.w3.org/2000/svg" xmlns:xlink="http://www.w3.org/1999/xlink">
<g id="graph0" class="graph" transform="scale(1 1) rotate(0) translate(4 192)">
<title>include/Bool.h</title>
<!-- Node1 -->
<g id="node1" class="node">
<title>Node1</title>
<g id="a_node1"><a xlink:title="Boolean enum.">
<polygon fill="#bfbfbf" stroke="black" points="422.31,-168.5 422.31,-187.5 501.31,-187.5 501.31,-168.5 422.31,-168.5"/>
<text text-anchor="middle" x="461.81" y="-175.5" font-family="Helvetica,sans-Serif" font-size="10.00">include/Bool.h</text>
</a>
</g>
</g>
<!-- Node2 -->
<g id="node2" class="node">
<title>Node2</title>
<g id="a_node2"><a xlink:href="_moves_8h.html" target="_top" xlink:title="Moves contains all the data types and methods used to handle moves.">
<polygon fill="none" stroke="black" points="313.31,-112.5 313.31,-131.5 402.31,-131.5 402.31,-112.5 313.31,-112.5"/>
<text text-anchor="middle" x="357.81" y="-119.5" font-family="Helvetica,sans-Serif" font-size="10.00">include/Moves.h</text>
</a>
</g>
</g>
<!-- Node1&#45;&gt;Node2 -->
<g id="edge1" class="edge">
<title>Node1&#45;&gt;Node2</title>
<path fill="none" stroke="midnightblue" d="M435.98,-163.59C416.75,-153.61 391.06,-140.27 374.47,-131.65"/>
<polygon fill="midnightblue" stroke="midnightblue" points="434.61,-166.82 445.1,-168.32 437.84,-160.61 434.61,-166.82"/>
</g>
<!-- Node4 -->
<g id="node4" class="node">
<title>Node4</title>
<g id="a_node4"><a xlink:href="_game_8c.html" target="_top" xlink:title="Methods to handle a game.">
<polygon fill="none" stroke="black" points="441.81,-0.5 441.81,-19.5 509.81,-19.5 509.81,-0.5 441.81,-0.5"/>
<text text-anchor="middle" x="475.81" y="-7.5" font-family="Helvetica,sans-Serif" font-size="10.00">src/Game.c</text>
</a>
</g>
</g>
<!-- Node1&#45;&gt;Node4 -->
<g id="edge12" class="edge">
<title>Node1&#45;&gt;Node4</title>
<path fill="none" stroke="midnightblue" d="M465.17,-158.38C468.64,-138.17 473.81,-104.92 475.81,-76 477.19,-55.96 476.65,-32.36 476.19,-19.84"/>
<polygon fill="midnightblue" stroke="midnightblue" points="461.7,-157.94 463.41,-168.4 468.59,-159.15 461.7,-157.94"/>
</g>
<!-- Node6 -->
<g id="node6" class="node">
<title>Node6</title>
<g id="a_node6"><a xlink:href="_single_player_8c.html" target="_top" xlink:title="SinglePlayer mode handler.">
<polygon fill="none" stroke="black" points="23.81,-0.5 23.81,-19.5 119.81,-19.5 119.81,-0.5 23.81,-0.5"/>
<text text-anchor="middle" x="71.81" y="-7.5" font-family="Helvetica,sans-Serif" font-size="10.00">src/SinglePlayer.c</text>
</a>
</g>
</g>
<!-- Node1&#45;&gt;Node6 -->
<g id="edge13" class="edge">
<title>Node1&#45;&gt;Node6</title>
<path fill="none" stroke="midnightblue" d="M411.65,-173.6C303.8,-165.13 55.46,-139.07 4.81,-76 -13.05,-53.76 25.31,-31.38 51.03,-19.56"/>
<polygon fill="midnightblue" stroke="midnightblue" points="411.71,-177.11 421.95,-174.39 412.24,-170.13 411.71,-177.11"/>
</g>
<!-- Node10 -->
<g id="node10" class="node">
<title>Node10</title>
<g id="a_node10"><a xlink:href="_bool_8c.html" target="_top" xlink:title="Boolean enum.">
<polygon fill="none" stroke="black" points="541.81,-112.5 541.81,-131.5 601.81,-131.5 601.81,-112.5 541.81,-112.5"/>
<text text-anchor="middle" x="571.81" y="-119.5" font-family="Helvetica,sans-Serif" font-size="10.00">src/Bool.c</text>
</a>
</g>
</g>
<!-- Node1&#45;&gt;Node10 -->
<g id="edge11" class="edge">
<title>Node1&#45;&gt;Node10</title>
<path fill="none" stroke="midnightblue" d="M488.57,-163.86C508.97,-153.85 536.47,-140.35 554.18,-131.65"/>
<polygon fill="midnightblue" stroke="midnightblue" points="486.91,-160.78 479.48,-168.32 490,-167.06 486.91,-160.78"/>
</g>
<!-- Node3 -->
<g id="node3" class="node">
<title>Node3</title>
<g id="a_node3"><a xlink:href="_game_8h.html" target="_top" xlink:title="Methods to handle a game.">
<polygon fill="none" stroke="black" points="147.31,-56.5 147.31,-75.5 234.31,-75.5 234.31,-56.5 147.31,-56.5"/>
<text text-anchor="middle" x="190.81" y="-63.5" font-family="Helvetica,sans-Serif" font-size="10.00">include/Game.h</text>
</a>
</g>
</g>
<!-- Node2&#45;&gt;Node3 -->
<g id="edge2" class="edge">
<title>Node2&#45;&gt;Node3</title>
<path fill="none" stroke="midnightblue" d="M321.64,-109.3C290.17,-99.13 245.31,-84.62 217.14,-75.52"/>
<polygon fill="midnightblue" stroke="midnightblue" points="320.75,-112.7 331.35,-112.44 322.91,-106.04 320.75,-112.7"/>
</g>
<!-- Node2&#45;&gt;Node4 -->
<g id="edge9" class="edge">
<title>Node2&#45;&gt;Node4</title>
<path fill="none" stroke="midnightblue" d="M404.48,-109.07C423.07,-102.18 443.22,-91.67 456.81,-76 470.98,-59.65 474.59,-33.23 475.51,-19.65"/>
<polygon fill="midnightblue" stroke="midnightblue" points="403.26,-105.79 394.95,-112.35 405.54,-112.4 403.26,-105.79"/>
</g>
<!-- Node7 -->
<g id="node7" class="node">
<title>Node7</title>
<g id="a_node7"><a xlink:href="_multiplayer_8h.html" target="_top" xlink:title="Multiplayer mode handler.">
<polygon fill="none" stroke="black" points="252.31,-56.5 252.31,-75.5 359.31,-75.5 359.31,-56.5 252.31,-56.5"/>
<text text-anchor="middle" x="305.81" y="-63.5" font-family="Helvetica,sans-Serif" font-size="10.00">include/Multiplayer.h</text>
</a>
</g>
</g>
<!-- Node2&#45;&gt;Node7 -->
<g id="edge6" class="edge">
<title>Node2&#45;&gt;Node7</title>
<path fill="none" stroke="midnightblue" d="M342.13,-104.72C332.96,-95.2 321.75,-83.56 314.23,-75.75"/>
<polygon fill="midnightblue" stroke="midnightblue" points="339.76,-107.31 349.22,-112.08 344.8,-102.45 339.76,-107.31"/>
</g>
<!-- Node8 -->
<g id="node8" class="node">
<title>Node8</title>
<g id="a_node8"><a xlink:href="_single_player_8h.html" target="_top" xlink:title="SinglePlayer mode handler.">
<polygon fill="none" stroke="black" points="14.31,-56.5 14.31,-75.5 129.31,-75.5 129.31,-56.5 14.31,-56.5"/>
<text text-anchor="middle" x="71.81" y="-63.5" font-family="Helvetica,sans-Serif" font-size="10.00">include/SinglePlayer.h</text>
</a>
</g>
</g>
<!-- Node2&#45;&gt;Node8 -->
<g id="edge7" class="edge">
<title>Node2&#45;&gt;Node8</title>
<path fill="none" stroke="midnightblue" d="M303.04,-110.66C249.07,-100.47 167.57,-85.08 117.12,-75.56"/>
<polygon fill="midnightblue" stroke="midnightblue" points="302.64,-114.15 313.12,-112.56 303.94,-107.27 302.64,-114.15"/>
</g>
<!-- Node9 -->
<g id="node9" class="node">
<title>Node9</title>
<g id="a_node9"><a xlink:href="_moves_8c.html" target="_top" xlink:title="Moves contains all the data types and methods used to handle moves.">
<polygon fill="none" stroke="black" points="377.81,-56.5 377.81,-75.5 447.81,-75.5 447.81,-56.5 377.81,-56.5"/>
<text text-anchor="middle" x="412.81" y="-63.5" font-family="Helvetica,sans-Serif" font-size="10.00">src/Moves.c</text>
</a>
</g>
</g>
<!-- Node2&#45;&gt;Node9 -->
<g id="edge10" class="edge">
<title>Node2&#45;&gt;Node9</title>
<path fill="none" stroke="midnightblue" d="M374.1,-105C383.85,-95.43 395.86,-83.64 403.89,-75.75"/>
<polygon fill="midnightblue" stroke="midnightblue" points="371.57,-102.58 366.89,-112.08 376.48,-107.57 371.57,-102.58"/>
</g>
<!-- Node3&#45;&gt;Node4 -->
<g id="edge3" class="edge">
<title>Node3&#45;&gt;Node4</title>
<path fill="none" stroke="midnightblue" d="M244.46,-54.83C302.32,-43.87 392.71,-26.75 441.61,-17.48"/>
<polygon fill="midnightblue" stroke="midnightblue" points="243.58,-51.44 234.4,-56.74 244.88,-58.32 243.58,-51.44"/>
</g>
<!-- Node5 -->
<g id="node5" class="node">
<title>Node5</title>
<g id="a_node5"><a xlink:href="_multiplayer_8c.html" target="_top" xlink:title="Multiplayer mode handler.">
<polygon fill="none" stroke="black" points="146.81,-0.5 146.81,-19.5 234.81,-19.5 234.81,-0.5 146.81,-0.5"/>
<text text-anchor="middle" x="190.81" y="-7.5" font-family="Helvetica,sans-Serif" font-size="10.00">src/Multiplayer.c</text>
</a>
</g>
</g>
<!-- Node3&#45;&gt;Node5 -->
<g id="edge4" class="edge">
<title>Node3&#45;&gt;Node5</title>
<path fill="none" stroke="midnightblue" d="M190.81,-45.8C190.81,-36.91 190.81,-26.78 190.81,-19.75"/>
<polygon fill="midnightblue" stroke="midnightblue" points="187.31,-46.08 190.81,-56.08 194.31,-46.08 187.31,-46.08"/>
</g>
<!-- Node3&#45;&gt;Node6 -->
<g id="edge5" class="edge">
<title>Node3&#45;&gt;Node6</title>
<path fill="none" stroke="midnightblue" d="M162.67,-52.23C140.41,-42.13 109.95,-28.31 90.57,-19.52"/>
<polygon fill="midnightblue" stroke="midnightblue" points="161.4,-55.5 171.95,-56.44 164.29,-49.12 161.4,-55.5"/>
</g>
<!-- Node8&#45;&gt;Node6 -->
<g id="edge8" class="edge">
<title>Node8&#45;&gt;Node6</title>
<path fill="none" stroke="midnightblue" d="M71.81,-45.8C71.81,-36.91 71.81,-26.78 71.81,-19.75"/>
<polygon fill="midnightblue" stroke="midnightblue" points="68.31,-46.08 71.81,-56.08 75.31,-46.08 68.31,-46.08"/>
</g>
</g>
</svg>
