<?xml version="1.0" encoding="UTF-8" standalone="no"?>
<!DOCTYPE svg PUBLIC "-//W3C//DTD SVG 1.1//EN"
 "http://www.w3.org/Graphics/SVG/1.1/DTD/svg11.dtd">
<!-- Generated by graphviz version 2.48.0 (20210717.1556)
 -->
<!-- Title: include/Bool.h Pages: 1 -->
<svg width="652pt" height="252pt"
 viewBox="0.00 0.00 651.96 252.00" xmlns="http://www.w3.org/2000/svg" xmlns:xlink="http://www.w3.org/1999/xlink">
<g id="graph0" class="graph" transform="scale(1 1) rotate(0) translate(4 248)">
<title>include/Bool.h</title>
<!-- Node1 -->
<g id="node1" class="node">
<title>Node1</title>
<g id="a_node1"><a xlink:title="Boolean enum.">
<polygon fill="#bfbfbf" stroke="black" points="281.46,-224.5 281.46,-243.5 360.46,-243.5 360.46,-224.5 281.46,-224.5"/>
<text text-anchor="middle" x="320.96" y="-231.5" font-family="Helvetica,sans-Serif" font-size="10.00">include/Bool.h</text>
</a>
</g>
</g>
<!-- Node2 -->
<g id="node2" class="node">
<title>Node2</title>
<g id="a_node2"><a xlink:href="_minimax_a_i_8h.html" target="_top" xlink:title="Minimax algorithm.">
<polygon fill="none" stroke="black" points="107.96,-56.5 107.96,-75.5 213.96,-75.5 213.96,-56.5 107.96,-56.5"/>
<text text-anchor="middle" x="160.96" y="-63.5" font-family="Helvetica,sans-Serif" font-size="10.00">include/MinimaxAI.h</text>
</a>
</g>
</g>
<!-- Node1&#45;&gt;Node2 -->
<g id="edge1" class="edge">
<title>Node1&#45;&gt;Node2</title>
<path fill="none" stroke="midnightblue" d="M292.61,-219.93C260.59,-203.74 209.16,-173.18 179.96,-132 167.58,-114.55 163.2,-89.06 161.7,-75.78"/>
<polygon fill="midnightblue" stroke="midnightblue" points="291.36,-223.22 301.88,-224.49 294.45,-216.93 291.36,-223.22"/>
</g>
<!-- Node4 -->
<g id="node4" class="node">
<title>Node4</title>
<g id="a_node4"><a xlink:href="_single_player_8c.html" target="_top" xlink:title="SinglePlayer mode handler.">
<polygon fill="none" stroke="black" points="26.96,-0.5 26.96,-19.5 122.96,-19.5 122.96,-0.5 26.96,-0.5"/>
<text text-anchor="middle" x="74.96" y="-7.5" font-family="Helvetica,sans-Serif" font-size="10.00">src/SinglePlayer.c</text>
</a>
</g>
</g>
<!-- Node1&#45;&gt;Node4 -->
<g id="edge18" class="edge">
<title>Node1&#45;&gt;Node4</title>
<path fill="none" stroke="midnightblue" d="M271.03,-233.56C199.17,-231.33 68.58,-215.26 7.96,-132 -20.59,-92.79 37.63,-40.12 63.46,-19.65"/>
<polygon fill="midnightblue" stroke="midnightblue" points="271.11,-237.07 281.19,-233.8 271.28,-230.07 271.11,-237.07"/>
</g>
<!-- Node5 -->
<g id="node5" class="node">
<title>Node5</title>
<g id="a_node5"><a xlink:href="_moves_8h.html" target="_top" xlink:title="Moves contains all the data types and methods used to handle moves.">
<polygon fill="none" stroke="black" points="276.46,-168.5 276.46,-187.5 365.46,-187.5 365.46,-168.5 276.46,-168.5"/>
<text text-anchor="middle" x="320.96" y="-175.5" font-family="Helvetica,sans-Serif" font-size="10.00">include/Moves.h</text>
</a>
</g>
</g>
<!-- Node1&#45;&gt;Node5 -->
<g id="edge4" class="edge">
<title>Node1&#45;&gt;Node5</title>
<path fill="none" stroke="midnightblue" d="M320.96,-213.8C320.96,-204.91 320.96,-194.78 320.96,-187.75"/>
<polygon fill="midnightblue" stroke="midnightblue" points="317.46,-214.08 320.96,-224.08 324.46,-214.08 317.46,-214.08"/>
</g>
<!-- Node7 -->
<g id="node7" class="node">
<title>Node7</title>
<g id="a_node7"><a xlink:href="_game_8c.html" target="_top" xlink:title="Methods to handle a game.">
<polygon fill="none" stroke="black" points="483.96,-56.5 483.96,-75.5 551.96,-75.5 551.96,-56.5 483.96,-56.5"/>
<text text-anchor="middle" x="517.96" y="-63.5" font-family="Helvetica,sans-Serif" font-size="10.00">src/Game.c</text>
</a>
</g>
</g>
<!-- Node1&#45;&gt;Node7 -->
<g id="edge17" class="edge">
<title>Node1&#45;&gt;Node7</title>
<path fill="none" stroke="midnightblue" d="M370.32,-223.17C417.74,-210.82 486.78,-184.53 518.96,-132 529.69,-114.48 524.66,-89.02 520.85,-75.76"/>
<polygon fill="midnightblue" stroke="midnightblue" points="369.41,-219.79 360.55,-225.6 371.1,-226.59 369.41,-219.79"/>
</g>
<!-- Node12 -->
<g id="node12" class="node">
<title>Node12</title>
<g id="a_node12"><a xlink:href="_bool_8c.html" target="_top" xlink:title="Boolean enum.">
<polygon fill="none" stroke="black" points="583.96,-168.5 583.96,-187.5 643.96,-187.5 643.96,-168.5 583.96,-168.5"/>
<text text-anchor="middle" x="613.96" y="-175.5" font-family="Helvetica,sans-Serif" font-size="10.00">src/Bool.c</text>
</a>
</g>
</g>
<!-- Node1&#45;&gt;Node12 -->
<g id="edge16" class="edge">
<title>Node1&#45;&gt;Node12</title>
<path fill="none" stroke="midnightblue" d="M370.65,-224.37C420.95,-215.54 500.95,-201.29 569.96,-188 574.4,-187.14 579.09,-186.21 583.68,-185.29"/>
<polygon fill="midnightblue" stroke="midnightblue" points="369.94,-220.94 360.69,-226.11 371.14,-227.83 369.94,-220.94"/>
</g>
<!-- Node3 -->
<g id="node3" class="node">
<title>Node3</title>
<g id="a_node3"><a xlink:href="_minimax_a_i_8c.html" target="_top" xlink:title="Minimax algorithm.">
<polygon fill="none" stroke="black" points="141.46,-0.5 141.46,-19.5 246.46,-19.5 246.46,-0.5 141.46,-0.5"/>
<text text-anchor="middle" x="193.96" y="-7.5" font-family="Helvetica,sans-Serif" font-size="10.00">include/MinimaxAI.c</text>
</a>
</g>
</g>
<!-- Node2&#45;&gt;Node3 -->
<g id="edge2" class="edge">
<title>Node2&#45;&gt;Node3</title>
<path fill="none" stroke="midnightblue" d="M171.79,-47.27C177.43,-38.05 184.08,-27.17 188.61,-19.75"/>
<polygon fill="midnightblue" stroke="midnightblue" points="168.64,-45.73 166.41,-56.08 174.61,-49.38 168.64,-45.73"/>
</g>
<!-- Node2&#45;&gt;Node4 -->
<g id="edge3" class="edge">
<title>Node2&#45;&gt;Node4</title>
<path fill="none" stroke="midnightblue" d="M138.51,-50.9C122.74,-41 102.15,-28.07 88.74,-19.65"/>
<polygon fill="midnightblue" stroke="midnightblue" points="136.81,-53.97 147.14,-56.32 140.54,-48.04 136.81,-53.97"/>
</g>
<!-- Node6 -->
<g id="node6" class="node">
<title>Node6</title>
<g id="a_node6"><a xlink:href="_game_8h.html" target="_top" xlink:title="Methods to handle a game.">
<polygon fill="none" stroke="black" points="277.46,-112.5 277.46,-131.5 364.46,-131.5 364.46,-112.5 277.46,-112.5"/>
<text text-anchor="middle" x="320.96" y="-119.5" font-family="Helvetica,sans-Serif" font-size="10.00">include/Game.h</text>
</a>
</g>
</g>
<!-- Node5&#45;&gt;Node6 -->
<g id="edge5" class="edge">
<title>Node5&#45;&gt;Node6</title>
<path fill="none" stroke="midnightblue" d="M320.96,-157.8C320.96,-148.91 320.96,-138.78 320.96,-131.75"/>
<polygon fill="midnightblue" stroke="midnightblue" points="317.46,-158.08 320.96,-168.08 324.46,-158.08 317.46,-158.08"/>
</g>
<!-- Node5&#45;&gt;Node7 -->
<g id="edge14" class="edge">
<title>Node5&#45;&gt;Node7</title>
<path fill="none" stroke="midnightblue" d="M375.8,-176.88C414.97,-173.86 466.31,-163.47 498.96,-132 514.71,-116.82 517.6,-89.39 518.01,-75.52"/>
<polygon fill="midnightblue" stroke="midnightblue" points="375.37,-173.4 365.61,-177.52 375.81,-180.39 375.37,-173.4"/>
</g>
<!-- Node9 -->
<g id="node9" class="node">
<title>Node9</title>
<g id="a_node9"><a xlink:href="_multiplayer_8h.html" target="_top" xlink:title="Multiplayer mode handler.">
<polygon fill="none" stroke="black" points="382.46,-112.5 382.46,-131.5 489.46,-131.5 489.46,-112.5 382.46,-112.5"/>
<text text-anchor="middle" x="435.96" y="-119.5" font-family="Helvetica,sans-Serif" font-size="10.00">include/Multiplayer.h</text>
</a>
</g>
</g>
<!-- Node5&#45;&gt;Node9 -->
<g id="edge10" class="edge">
<title>Node5&#45;&gt;Node9</title>
<path fill="none" stroke="midnightblue" d="M348.44,-164.1C369.93,-154.01 399.18,-140.27 417.82,-131.52"/>
<polygon fill="midnightblue" stroke="midnightblue" points="346.75,-161.02 339.18,-168.44 349.72,-167.36 346.75,-161.02"/>
</g>
<!-- Node10 -->
<g id="node10" class="node">
<title>Node10</title>
<g id="a_node10"><a xlink:href="_single_player_8h.html" target="_top" xlink:title="SinglePlayer mode handler.">
<polygon fill="none" stroke="black" points="17.46,-112.5 17.46,-131.5 132.46,-131.5 132.46,-112.5 17.46,-112.5"/>
<text text-anchor="middle" x="74.96" y="-119.5" font-family="Helvetica,sans-Serif" font-size="10.00">include/SinglePlayer.h</text>
</a>
</g>
</g>
<!-- Node5&#45;&gt;Node10 -->
<g id="edge11" class="edge">
<title>Node5&#45;&gt;Node10</title>
<path fill="none" stroke="midnightblue" d="M272.13,-166.28C225.65,-156.08 156.6,-140.92 113.76,-131.52"/>
<polygon fill="midnightblue" stroke="midnightblue" points="271.46,-169.72 281.98,-168.44 272.97,-162.88 271.46,-169.72"/>
</g>
<!-- Node11 -->
<g id="node11" class="node">
<title>Node11</title>
<g id="a_node11"><a xlink:href="_moves_8c.html" target="_top" xlink:title="Moves contains all the data types and methods used to handle moves.">
<polygon fill="none" stroke="black" points="188.96,-112.5 188.96,-131.5 258.96,-131.5 258.96,-112.5 188.96,-112.5"/>
<text text-anchor="middle" x="223.96" y="-119.5" font-family="Helvetica,sans-Serif" font-size="10.00">src/Moves.c</text>
</a>
</g>
</g>
<!-- Node5&#45;&gt;Node11 -->
<g id="edge15" class="edge">
<title>Node5&#45;&gt;Node11</title>
<path fill="none" stroke="midnightblue" d="M296.63,-163.45C278.72,-153.48 254.91,-140.23 239.51,-131.65"/>
<polygon fill="midnightblue" stroke="midnightblue" points="294.94,-166.52 305.38,-168.32 298.34,-160.4 294.94,-166.52"/>
</g>
<!-- Node6&#45;&gt;Node2 -->
<g id="edge6" class="edge">
<title>Node6&#45;&gt;Node2</title>
<path fill="none" stroke="midnightblue" d="M285.92,-109.17C255.79,-99 213.07,-84.59 186.2,-75.52"/>
<polygon fill="midnightblue" stroke="midnightblue" points="285.01,-112.56 295.61,-112.44 287.25,-105.93 285.01,-112.56"/>
</g>
<!-- Node6&#45;&gt;Node4 -->
<g id="edge9" class="edge">
<title>Node6&#45;&gt;Node4</title>
<path fill="none" stroke="midnightblue" d="M302.32,-106.23C283.29,-91.75 252.46,-69.9 222.96,-56 187.49,-39.28 144.34,-27 113.81,-19.53"/>
<polygon fill="midnightblue" stroke="midnightblue" points="300.36,-109.14 310.41,-112.49 304.64,-103.6 300.36,-109.14"/>
</g>
<!-- Node6&#45;&gt;Node7 -->
<g id="edge7" class="edge">
<title>Node6&#45;&gt;Node7</title>
<path fill="none" stroke="midnightblue" d="M362.19,-109.7C399.37,-99.51 453.23,-84.74 486.89,-75.52"/>
<polygon fill="midnightblue" stroke="midnightblue" points="360.9,-106.42 352.18,-112.44 362.75,-113.18 360.9,-106.42"/>
</g>
<!-- Node8 -->
<g id="node8" class="node">
<title>Node8</title>
<g id="a_node8"><a xlink:href="_multiplayer_8c.html" target="_top" xlink:title="Multiplayer mode handler.">
<polygon fill="none" stroke="black" points="276.96,-56.5 276.96,-75.5 364.96,-75.5 364.96,-56.5 276.96,-56.5"/>
<text text-anchor="middle" x="320.96" y="-63.5" font-family="Helvetica,sans-Serif" font-size="10.00">src/Multiplayer.c</text>
</a>
</g>
</g>
<!-- Node6&#45;&gt;Node8 -->
<g id="edge8" class="edge">
<title>Node6&#45;&gt;Node8</title>
<path fill="none" stroke="midnightblue" d="M320.96,-101.8C320.96,-92.91 320.96,-82.78 320.96,-75.75"/>
<polygon fill="midnightblue" stroke="midnightblue" points="317.46,-102.08 320.96,-112.08 324.46,-102.08 317.46,-102.08"/>
</g>
<!-- Node10&#45;&gt;Node2 -->
<g id="edge12" class="edge">
<title>Node10&#45;&gt;Node2</title>
<path fill="none" stroke="midnightblue" d="M97.42,-106.9C113.19,-97 133.78,-84.07 147.18,-75.65"/>
<polygon fill="midnightblue" stroke="midnightblue" points="95.39,-104.04 88.78,-112.32 99.11,-109.97 95.39,-104.04"/>
</g>
<!-- Node10&#45;&gt;Node4 -->
<g id="edge13" class="edge">
<title>Node10&#45;&gt;Node4</title>
<path fill="none" stroke="midnightblue" d="M74.96,-102.35C74.96,-78.25 74.96,-37.31 74.96,-19.59"/>
<polygon fill="midnightblue" stroke="midnightblue" points="71.46,-102.37 74.96,-112.37 78.46,-102.37 71.46,-102.37"/>
</g>
</g>
</svg>
