<?xml version="1.0" encoding="UTF-8" standalone="no"?>
<!DOCTYPE svg PUBLIC "-//W3C//DTD SVG 1.1//EN"
 "http://www.w3.org/Graphics/SVG/1.1/DTD/svg11.dtd">
<!-- Generated by graphviz version 2.48.0 (20210717.1556)
 -->
<!-- Title: include/Cell.h Pages: 1 -->
<svg width="756pt" height="308pt"
 viewBox="0.00 0.00 755.56 308.00" xmlns="http://www.w3.org/2000/svg" xmlns:xlink="http://www.w3.org/1999/xlink">
<g id="graph0" class="graph" transform="scale(1 1) rotate(0) translate(4 304)">
<title>include/Cell.h</title>
<!-- Node1 -->
<g id="node1" class="node">
<title>Node1</title>
<g id="a_node1"><a xlink:title="Cell struct and methods to handle cells and their towers.">
<polygon fill="#bfbfbf" stroke="black" points="507.06,-280.5 507.06,-299.5 584.06,-299.5 584.06,-280.5 507.06,-280.5"/>
<text text-anchor="middle" x="545.56" y="-287.5" font-family="Helvetica,sans-Serif" font-size="10.00">include/Cell.h</text>
</a>
</g>
</g>
<!-- Node2 -->
<g id="node2" class="node">
<title>Node2</title>
<g id="a_node2"><a xlink:href="_board_8h.html" target="_top" xlink:title="Board struct and methods to handle the board.">
<polygon fill="none" stroke="black" points="242.56,-224.5 242.56,-243.5 328.56,-243.5 328.56,-224.5 242.56,-224.5"/>
<text text-anchor="middle" x="285.56" y="-231.5" font-family="Helvetica,sans-Serif" font-size="10.00">include/Board.h</text>
</a>
</g>
</g>
<!-- Node1&#45;&gt;Node2 -->
<g id="edge1" class="edge">
<title>Node1&#45;&gt;Node2</title>
<path fill="none" stroke="midnightblue" d="M496.85,-278.88C447.73,-268.68 372.74,-253.11 326.57,-243.52"/>
<polygon fill="midnightblue" stroke="midnightblue" points="496.42,-282.37 506.92,-280.97 497.84,-275.51 496.42,-282.37"/>
</g>
<!-- Node7 -->
<g id="node7" class="node">
<title>Node7</title>
<g id="a_node7"><a xlink:href="_game_8c.html" target="_top" xlink:title="Methods to handle a game.">
<polygon fill="none" stroke="black" points="419.56,-56.5 419.56,-75.5 487.56,-75.5 487.56,-56.5 419.56,-56.5"/>
<text text-anchor="middle" x="453.56" y="-63.5" font-family="Helvetica,sans-Serif" font-size="10.00">src/Game.c</text>
</a>
</g>
</g>
<!-- Node1&#45;&gt;Node7 -->
<g id="edge25" class="edge">
<title>Node1&#45;&gt;Node7</title>
<path fill="none" stroke="midnightblue" d="M565.41,-273.81C604.77,-241.86 685.37,-166.2 642.56,-112 623.64,-88.05 537,-75.47 487.85,-70.16"/>
<polygon fill="midnightblue" stroke="midnightblue" points="562.91,-271.32 557.26,-280.28 567.26,-276.8 562.91,-271.32"/>
</g>
<!-- Node9 -->
<g id="node9" class="node">
<title>Node9</title>
<g id="a_node9"><a xlink:href="_moves_8h.html" target="_top" xlink:title="Moves contains all the data types and methods used to handle moves.">
<polygon fill="none" stroke="black" points="405.06,-168.5 405.06,-187.5 494.06,-187.5 494.06,-168.5 405.06,-168.5"/>
<text text-anchor="middle" x="449.56" y="-175.5" font-family="Helvetica,sans-Serif" font-size="10.00">include/Moves.h</text>
</a>
</g>
</g>
<!-- Node1&#45;&gt;Node9 -->
<g id="edge22" class="edge">
<title>Node1&#45;&gt;Node9</title>
<path fill="none" stroke="midnightblue" d="M531.24,-272.59C510.54,-248.87 473.01,-205.87 457.06,-187.59"/>
<polygon fill="midnightblue" stroke="midnightblue" points="528.82,-275.14 538.03,-280.37 534.09,-270.53 528.82,-275.14"/>
</g>
<!-- Node13 -->
<g id="node13" class="node">
<title>Node13</title>
<g id="a_node13"><a xlink:href="_board_8c.html" target="_top" xlink:title="Board struct and methods to handle the board.">
<polygon fill="none" stroke="black" points="512.06,-168.5 512.06,-187.5 579.06,-187.5 579.06,-168.5 512.06,-168.5"/>
<text text-anchor="middle" x="545.56" y="-175.5" font-family="Helvetica,sans-Serif" font-size="10.00">src/Board.c</text>
</a>
</g>
</g>
<!-- Node1&#45;&gt;Node13 -->
<g id="edge23" class="edge">
<title>Node1&#45;&gt;Node13</title>
<path fill="none" stroke="midnightblue" d="M545.56,-270.35C545.56,-246.25 545.56,-205.31 545.56,-187.59"/>
<polygon fill="midnightblue" stroke="midnightblue" points="542.06,-270.37 545.56,-280.37 549.06,-270.37 542.06,-270.37"/>
</g>
<!-- Node14 -->
<g id="node14" class="node">
<title>Node14</title>
<g id="a_node14"><a xlink:href="_cell_8c.html" target="_top" xlink:title="Cell struct and methods to handle cells and their towers.">
<polygon fill="none" stroke="black" points="689.56,-224.5 689.56,-243.5 747.56,-243.5 747.56,-224.5 689.56,-224.5"/>
<text text-anchor="middle" x="718.56" y="-231.5" font-family="Helvetica,sans-Serif" font-size="10.00">src/Cell.c</text>
</a>
</g>
</g>
<!-- Node1&#45;&gt;Node14 -->
<g id="edge24" class="edge">
<title>Node1&#45;&gt;Node14</title>
<path fill="none" stroke="midnightblue" d="M582.61,-277.44C615.23,-267.26 661.97,-252.66 691.28,-243.52"/>
<polygon fill="midnightblue" stroke="midnightblue" points="581.48,-274.12 572.98,-280.44 583.57,-280.8 581.48,-274.12"/>
</g>
<!-- Node3 -->
<g id="node3" class="node">
<title>Node3</title>
<g id="a_node3"><a xlink:href="_game_8h.html" target="_top" xlink:title="Methods to handle a game.">
<polygon fill="none" stroke="black" points="84.06,-112.5 84.06,-131.5 171.06,-131.5 171.06,-112.5 84.06,-112.5"/>
<text text-anchor="middle" x="127.56" y="-119.5" font-family="Helvetica,sans-Serif" font-size="10.00">include/Game.h</text>
</a>
</g>
</g>
<!-- Node2&#45;&gt;Node3 -->
<g id="edge2" class="edge">
<title>Node2&#45;&gt;Node3</title>
<path fill="none" stroke="midnightblue" d="M249.24,-220.9C229.34,-213.26 204.87,-202.15 185.56,-188 163.12,-171.55 142.98,-145.17 133.42,-131.63"/>
<polygon fill="midnightblue" stroke="midnightblue" points="248.3,-224.28 258.89,-224.47 250.73,-217.72 248.3,-224.28"/>
</g>
<!-- Node4 -->
<g id="node4" class="node">
<title>Node4</title>
<g id="a_node4"><a xlink:href="_minimax_a_i_8h.html" target="_top" xlink:title="Minimax algorithm.">
<polygon fill="none" stroke="black" points="155.56,-56.5 155.56,-75.5 261.56,-75.5 261.56,-56.5 155.56,-56.5"/>
<text text-anchor="middle" x="208.56" y="-63.5" font-family="Helvetica,sans-Serif" font-size="10.00">include/MinimaxAI.h</text>
</a>
</g>
</g>
<!-- Node2&#45;&gt;Node4 -->
<g id="edge9" class="edge">
<title>Node2&#45;&gt;Node4</title>
<path fill="none" stroke="midnightblue" d="M271.36,-216.58C255.75,-197.57 231.21,-164.67 218.56,-132 211.15,-112.83 209.22,-88.48 208.72,-75.72"/>
<polygon fill="midnightblue" stroke="midnightblue" points="268.72,-218.88 277.83,-224.28 274.08,-214.37 268.72,-218.88"/>
</g>
<!-- Node6 -->
<g id="node6" class="node">
<title>Node6</title>
<g id="a_node6"><a xlink:href="_single_player_8c.html" target="_top" xlink:title="SinglePlayer mode handler.">
<polygon fill="none" stroke="black" points="79.56,-0.5 79.56,-19.5 175.56,-19.5 175.56,-0.5 79.56,-0.5"/>
<text text-anchor="middle" x="127.56" y="-7.5" font-family="Helvetica,sans-Serif" font-size="10.00">src/SinglePlayer.c</text>
</a>
</g>
</g>
<!-- Node2&#45;&gt;Node6 -->
<g id="edge21" class="edge">
<title>Node2&#45;&gt;Node6</title>
<path fill="none" stroke="midnightblue" d="M232.54,-227.26C196,-221.49 147.39,-210.12 109.56,-188 50.14,-153.24 28.18,-139.9 2.56,-76 -11.73,-40.36 38.53,-23.98 79.53,-16.65"/>
<polygon fill="midnightblue" stroke="midnightblue" points="232.11,-230.73 242.51,-228.74 233.14,-223.81 232.11,-230.73"/>
</g>
<!-- Node2&#45;&gt;Node7 -->
<g id="edge19" class="edge">
<title>Node2&#45;&gt;Node7</title>
<path fill="none" stroke="midnightblue" d="M298.04,-216.25C316.66,-191.83 353.53,-145.69 390.56,-112 406.17,-97.8 426.33,-84.09 439.59,-75.61"/>
<polygon fill="midnightblue" stroke="midnightblue" points="295.06,-214.38 291.83,-224.47 300.65,-218.6 295.06,-214.38"/>
</g>
<!-- Node8 -->
<g id="node8" class="node">
<title>Node8</title>
<g id="a_node8"><a xlink:href="_multiplayer_8c.html" target="_top" xlink:title="Multiplayer mode handler.">
<polygon fill="none" stroke="black" points="11.56,-56.5 11.56,-75.5 99.56,-75.5 99.56,-56.5 11.56,-56.5"/>
<text text-anchor="middle" x="55.56" y="-63.5" font-family="Helvetica,sans-Serif" font-size="10.00">src/Multiplayer.c</text>
</a>
</g>
</g>
<!-- Node2&#45;&gt;Node8 -->
<g id="edge20" class="edge">
<title>Node2&#45;&gt;Node8</title>
<path fill="none" stroke="midnightblue" d="M232.53,-222.37C183.49,-209.63 112.63,-183.24 74.56,-132 61.8,-114.82 57.58,-89.22 56.21,-75.85"/>
<polygon fill="midnightblue" stroke="midnightblue" points="231.78,-225.79 242.33,-224.82 233.47,-219 231.78,-225.79"/>
</g>
<!-- Node2&#45;&gt;Node9 -->
<g id="edge10" class="edge">
<title>Node2&#45;&gt;Node9</title>
<path fill="none" stroke="midnightblue" d="M321.08,-221.3C351.99,-211.13 396.04,-196.62 423.7,-187.52"/>
<polygon fill="midnightblue" stroke="midnightblue" points="319.95,-217.99 311.55,-224.44 322.14,-224.64 319.95,-217.99"/>
</g>
<!-- Node2&#45;&gt;Node13 -->
<g id="edge18" class="edge">
<title>Node2&#45;&gt;Node13</title>
<path fill="none" stroke="midnightblue" d="M337.3,-222.43C381.49,-213.38 446.73,-199.96 503.56,-188 506.19,-187.45 508.91,-186.87 511.64,-186.29"/>
<polygon fill="midnightblue" stroke="midnightblue" points="336.47,-219.03 327.38,-224.47 337.87,-225.89 336.47,-219.03"/>
</g>
<!-- Node3&#45;&gt;Node4 -->
<g id="edge3" class="edge">
<title>Node3&#45;&gt;Node4</title>
<path fill="none" stroke="midnightblue" d="M149.13,-106.62C163.93,-96.76 183.08,-83.99 195.58,-75.65"/>
<polygon fill="midnightblue" stroke="midnightblue" points="146.96,-103.86 140.58,-112.32 150.84,-109.69 146.96,-103.86"/>
</g>
<!-- Node3&#45;&gt;Node6 -->
<g id="edge8" class="edge">
<title>Node3&#45;&gt;Node6</title>
<path fill="none" stroke="midnightblue" d="M127.56,-102.35C127.56,-78.25 127.56,-37.31 127.56,-19.59"/>
<polygon fill="midnightblue" stroke="midnightblue" points="124.06,-102.37 127.56,-112.37 131.06,-102.37 124.06,-102.37"/>
</g>
<!-- Node3&#45;&gt;Node7 -->
<g id="edge6" class="edge">
<title>Node3&#45;&gt;Node7</title>
<path fill="none" stroke="midnightblue" d="M181.19,-112.12C248.6,-100.95 362.35,-82.11 419.14,-72.7"/>
<polygon fill="midnightblue" stroke="midnightblue" points="180.49,-108.69 171.19,-113.77 181.63,-115.59 180.49,-108.69"/>
</g>
<!-- Node3&#45;&gt;Node8 -->
<g id="edge7" class="edge">
<title>Node3&#45;&gt;Node8</title>
<path fill="none" stroke="midnightblue" d="M107.7,-106.1C94.74,-96.38 78.27,-84.03 67.34,-75.83"/>
<polygon fill="midnightblue" stroke="midnightblue" points="105.9,-109.12 116,-112.32 110.1,-103.52 105.9,-109.12"/>
</g>
<!-- Node5 -->
<g id="node5" class="node">
<title>Node5</title>
<g id="a_node5"><a xlink:href="_minimax_a_i_8c.html" target="_top" xlink:title="Minimax algorithm.">
<polygon fill="none" stroke="black" points="194.06,-0.5 194.06,-19.5 299.06,-19.5 299.06,-0.5 194.06,-0.5"/>
<text text-anchor="middle" x="246.56" y="-7.5" font-family="Helvetica,sans-Serif" font-size="10.00">include/MinimaxAI.c</text>
</a>
</g>
</g>
<!-- Node4&#45;&gt;Node5 -->
<g id="edge4" class="edge">
<title>Node4&#45;&gt;Node5</title>
<path fill="none" stroke="midnightblue" d="M220.63,-47.86C227.21,-38.5 235.08,-27.33 240.41,-19.75"/>
<polygon fill="midnightblue" stroke="midnightblue" points="217.73,-45.89 214.84,-56.08 223.46,-49.92 217.73,-45.89"/>
</g>
<!-- Node4&#45;&gt;Node6 -->
<g id="edge5" class="edge">
<title>Node4&#45;&gt;Node6</title>
<path fill="none" stroke="midnightblue" d="M187,-50.62C172.2,-40.76 153.05,-27.99 140.55,-19.65"/>
<polygon fill="midnightblue" stroke="midnightblue" points="185.29,-53.69 195.55,-56.32 189.17,-47.86 185.29,-53.69"/>
</g>
<!-- Node9&#45;&gt;Node3 -->
<g id="edge11" class="edge">
<title>Node9&#45;&gt;Node3</title>
<path fill="none" stroke="midnightblue" d="M394.62,-167.79C331.48,-157.2 229.12,-140.03 171.18,-130.32"/>
<polygon fill="midnightblue" stroke="midnightblue" points="394.35,-171.29 404.79,-169.49 395.51,-164.39 394.35,-171.29"/>
</g>
<!-- Node9&#45;&gt;Node7 -->
<g id="edge16" class="edge">
<title>Node9&#45;&gt;Node7</title>
<path fill="none" stroke="midnightblue" d="M481.41,-163.94C494.8,-156.67 509.01,-146.17 516.56,-132 529.35,-108.01 496.09,-86.76 473.17,-75.5"/>
<polygon fill="midnightblue" stroke="midnightblue" points="479.73,-160.87 472.35,-168.47 482.86,-167.13 479.73,-160.87"/>
</g>
<!-- Node10 -->
<g id="node10" class="node">
<title>Node10</title>
<g id="a_node10"><a xlink:href="_multiplayer_8h.html" target="_top" xlink:title="Multiplayer mode handler.">
<polygon fill="none" stroke="black" points="400.06,-112.5 400.06,-131.5 507.06,-131.5 507.06,-112.5 400.06,-112.5"/>
<text text-anchor="middle" x="453.56" y="-119.5" font-family="Helvetica,sans-Serif" font-size="10.00">include/Multiplayer.h</text>
</a>
</g>
</g>
<!-- Node9&#45;&gt;Node10 -->
<g id="edge12" class="edge">
<title>Node9&#45;&gt;Node10</title>
<path fill="none" stroke="midnightblue" d="M450.96,-158.1C451.63,-149.14 452.39,-138.86 452.92,-131.75"/>
<polygon fill="midnightblue" stroke="midnightblue" points="447.47,-157.85 450.22,-168.08 454.45,-158.37 447.47,-157.85"/>
</g>
<!-- Node11 -->
<g id="node11" class="node">
<title>Node11</title>
<g id="a_node11"><a xlink:href="_single_player_8h.html" target="_top" xlink:title="SinglePlayer mode handler.">
<polygon fill="none" stroke="black" points="228.06,-112.5 228.06,-131.5 343.06,-131.5 343.06,-112.5 228.06,-112.5"/>
<text text-anchor="middle" x="285.56" y="-119.5" font-family="Helvetica,sans-Serif" font-size="10.00">include/SinglePlayer.h</text>
</a>
</g>
</g>
<!-- Node9&#45;&gt;Node11 -->
<g id="edge13" class="edge">
<title>Node9&#45;&gt;Node11</title>
<path fill="none" stroke="midnightblue" d="M414.04,-165.3C383.14,-155.13 339.09,-140.62 311.43,-131.52"/>
<polygon fill="midnightblue" stroke="midnightblue" points="412.98,-168.64 423.58,-168.44 415.17,-161.99 412.98,-168.64"/>
</g>
<!-- Node12 -->
<g id="node12" class="node">
<title>Node12</title>
<g id="a_node12"><a xlink:href="_moves_8c.html" target="_top" xlink:title="Moves contains all the data types and methods used to handle moves.">
<polygon fill="none" stroke="black" points="563.56,-112.5 563.56,-131.5 633.56,-131.5 633.56,-112.5 563.56,-112.5"/>
<text text-anchor="middle" x="598.56" y="-119.5" font-family="Helvetica,sans-Serif" font-size="10.00">src/Moves.c</text>
</a>
</g>
</g>
<!-- Node9&#45;&gt;Node12 -->
<g id="edge17" class="edge">
<title>Node9&#45;&gt;Node12</title>
<path fill="none" stroke="midnightblue" d="M482.94,-164.91C510.95,-154.75 550.26,-140.51 575.07,-131.52"/>
<polygon fill="midnightblue" stroke="midnightblue" points="481.38,-161.75 473.17,-168.44 483.77,-168.33 481.38,-161.75"/>
</g>
<!-- Node11&#45;&gt;Node4 -->
<g id="edge14" class="edge">
<title>Node11&#45;&gt;Node4</title>
<path fill="none" stroke="midnightblue" d="M264.66,-106.34C250.65,-96.52 232.68,-83.91 220.9,-75.65"/>
<polygon fill="midnightblue" stroke="midnightblue" points="263,-109.45 273.19,-112.32 267.01,-103.72 263,-109.45"/>
</g>
<!-- Node11&#45;&gt;Node6 -->
<g id="edge15" class="edge">
<title>Node11&#45;&gt;Node6</title>
<path fill="none" stroke="midnightblue" d="M285.98,-101.95C285.27,-87.59 281.98,-68.34 270.56,-56 256.87,-41.19 207.33,-27.82 170.38,-19.57"/>
<polygon fill="midnightblue" stroke="midnightblue" points="282.49,-102.22 286.11,-112.18 289.49,-102.14 282.49,-102.22"/>
</g>
</g>
</svg>
