<?xml version="1.0" encoding="UTF-8" standalone="no"?>
<!DOCTYPE svg PUBLIC "-//W3C//DTD SVG 1.1//EN"
 "http://www.w3.org/Graphics/SVG/1.1/DTD/svg11.dtd">
<!-- Generated by graphviz version 2.48.0 (20210717.1556)
 -->
<!-- Title: include/Cell.h Pages: 1 -->
<svg width="669pt" height="252pt"
 viewBox="0.00 0.00 669.31 252.00" xmlns="http://www.w3.org/2000/svg" xmlns:xlink="http://www.w3.org/1999/xlink">
<g id="graph0" class="graph" transform="scale(1 1) rotate(0) translate(4 248)">
<title>include/Cell.h</title>
<!-- Node1 -->
<g id="node1" class="node">
<title>Node1</title>
<g id="a_node1"><a xlink:title="Cell struct and methods to handle cells and their towers.">
<polygon fill="#bfbfbf" stroke="black" points="417.31,-224.5 417.31,-243.5 494.31,-243.5 494.31,-224.5 417.31,-224.5"/>
<text text-anchor="middle" x="455.81" y="-231.5" font-family="Helvetica,sans-Serif" font-size="10.00">include/Cell.h</text>
</a>
</g>
</g>
<!-- Node2 -->
<g id="node2" class="node">
<title>Node2</title>
<g id="a_node2"><a xlink:href="_board_8h.html" target="_top" xlink:title="Board struct and methods to handle the board.">
<polygon fill="none" stroke="black" points="412.81,-168.5 412.81,-187.5 498.81,-187.5 498.81,-168.5 412.81,-168.5"/>
<text text-anchor="middle" x="455.81" y="-175.5" font-family="Helvetica,sans-Serif" font-size="10.00">include/Board.h</text>
</a>
</g>
</g>
<!-- Node1&#45;&gt;Node2 -->
<g id="edge1" class="edge">
<title>Node1&#45;&gt;Node2</title>
<path fill="none" stroke="midnightblue" d="M455.81,-213.8C455.81,-204.91 455.81,-194.78 455.81,-187.75"/>
<polygon fill="midnightblue" stroke="midnightblue" points="452.31,-214.08 455.81,-224.08 459.31,-214.08 452.31,-214.08"/>
</g>
<!-- Node4 -->
<g id="node4" class="node">
<title>Node4</title>
<g id="a_node4"><a xlink:href="_game_8c.html" target="_top" xlink:title="Methods to handle a game.">
<polygon fill="none" stroke="black" points="143.81,-0.5 143.81,-19.5 211.81,-19.5 211.81,-0.5 143.81,-0.5"/>
<text text-anchor="middle" x="177.81" y="-7.5" font-family="Helvetica,sans-Serif" font-size="10.00">src/Game.c</text>
</a>
</g>
</g>
<!-- Node1&#45;&gt;Node4 -->
<g id="edge20" class="edge">
<title>Node1&#45;&gt;Node4</title>
<path fill="none" stroke="midnightblue" d="M406.91,-232.86C311.09,-229.61 99.86,-207.12 6.81,-76 -28.3,-26.53 84.17,-14.7 143.54,-11.88"/>
<polygon fill="midnightblue" stroke="midnightblue" points="407.1,-236.37 417.19,-233.15 407.29,-229.37 407.1,-236.37"/>
</g>
<!-- Node7 -->
<g id="node7" class="node">
<title>Node7</title>
<g id="a_node7"><a xlink:href="_moves_8h.html" target="_top" xlink:title="Moves contains all the data types and methods used to handle moves.">
<polygon fill="none" stroke="black" points="253.31,-112.5 253.31,-131.5 342.31,-131.5 342.31,-112.5 253.31,-112.5"/>
<text text-anchor="middle" x="297.81" y="-119.5" font-family="Helvetica,sans-Serif" font-size="10.00">include/Moves.h</text>
</a>
</g>
</g>
<!-- Node1&#45;&gt;Node7 -->
<g id="edge17" class="edge">
<title>Node1&#45;&gt;Node7</title>
<path fill="none" stroke="midnightblue" d="M434.86,-218.42C401.44,-195.15 337.09,-150.35 310.15,-131.59"/>
<polygon fill="midnightblue" stroke="midnightblue" points="433.2,-221.53 443.41,-224.37 437.2,-215.78 433.2,-221.53"/>
</g>
<!-- Node11 -->
<g id="node11" class="node">
<title>Node11</title>
<g id="a_node11"><a xlink:href="_board_8c.html" target="_top" xlink:title="Board struct and methods to handle the board.">
<polygon fill="none" stroke="black" points="594.31,-112.5 594.31,-131.5 661.31,-131.5 661.31,-112.5 594.31,-112.5"/>
<text text-anchor="middle" x="627.81" y="-119.5" font-family="Helvetica,sans-Serif" font-size="10.00">src/Board.c</text>
</a>
</g>
</g>
<!-- Node1&#45;&gt;Node11 -->
<g id="edge18" class="edge">
<title>Node1&#45;&gt;Node11</title>
<path fill="none" stroke="midnightblue" d="M474.8,-218.23C492.69,-204.57 520.47,-184.02 545.81,-168 567.63,-154.2 593.98,-140.19 610.81,-131.54"/>
<polygon fill="midnightblue" stroke="midnightblue" points="472.66,-215.46 466.86,-224.33 476.92,-221.01 472.66,-215.46"/>
</g>
<!-- Node12 -->
<g id="node12" class="node">
<title>Node12</title>
<g id="a_node12"><a xlink:href="_cell_8c.html" target="_top" xlink:title="Cell struct and methods to handle cells and their towers.">
<polygon fill="none" stroke="black" points="554.81,-168.5 554.81,-187.5 612.81,-187.5 612.81,-168.5 554.81,-168.5"/>
<text text-anchor="middle" x="583.81" y="-175.5" font-family="Helvetica,sans-Serif" font-size="10.00">src/Cell.c</text>
</a>
</g>
</g>
<!-- Node1&#45;&gt;Node12 -->
<g id="edge19" class="edge">
<title>Node1&#45;&gt;Node12</title>
<path fill="none" stroke="midnightblue" d="M485.43,-220.5C509.43,-210.38 542.59,-196.39 563.62,-187.52"/>
<polygon fill="midnightblue" stroke="midnightblue" points="483.94,-217.33 476.09,-224.44 486.66,-223.78 483.94,-217.33"/>
</g>
<!-- Node3 -->
<g id="node3" class="node">
<title>Node3</title>
<g id="a_node3"><a xlink:href="_game_8h.html" target="_top" xlink:title="Methods to handle a game.">
<polygon fill="none" stroke="black" points="412.31,-56.5 412.31,-75.5 499.31,-75.5 499.31,-56.5 412.31,-56.5"/>
<text text-anchor="middle" x="455.81" y="-63.5" font-family="Helvetica,sans-Serif" font-size="10.00">include/Game.h</text>
</a>
</g>
</g>
<!-- Node2&#45;&gt;Node3 -->
<g id="edge2" class="edge">
<title>Node2&#45;&gt;Node3</title>
<path fill="none" stroke="midnightblue" d="M455.81,-158.35C455.81,-134.25 455.81,-93.31 455.81,-75.59"/>
<polygon fill="midnightblue" stroke="midnightblue" points="452.31,-158.37 455.81,-168.37 459.31,-158.37 452.31,-158.37"/>
</g>
<!-- Node2&#45;&gt;Node4 -->
<g id="edge14" class="edge">
<title>Node2&#45;&gt;Node4</title>
<path fill="none" stroke="midnightblue" d="M447.42,-159.39C433.76,-132.72 404.15,-82.38 363.81,-56 317.09,-25.46 251.59,-15.62 212.07,-12.47"/>
<polygon fill="midnightblue" stroke="midnightblue" points="444.28,-160.95 451.86,-168.36 450.56,-157.85 444.28,-160.95"/>
</g>
<!-- Node5 -->
<g id="node5" class="node">
<title>Node5</title>
<g id="a_node5"><a xlink:href="_multiplayer_8c.html" target="_top" xlink:title="Multiplayer mode handler.">
<polygon fill="none" stroke="black" points="521.81,-0.5 521.81,-19.5 609.81,-19.5 609.81,-0.5 521.81,-0.5"/>
<text text-anchor="middle" x="565.81" y="-7.5" font-family="Helvetica,sans-Serif" font-size="10.00">src/Multiplayer.c</text>
</a>
</g>
</g>
<!-- Node2&#45;&gt;Node5 -->
<g id="edge15" class="edge">
<title>Node2&#45;&gt;Node5</title>
<path fill="none" stroke="midnightblue" d="M474.92,-161.8C484.38,-153.64 495.52,-143.01 503.81,-132 532.5,-93.92 554.51,-40.6 562.53,-19.8"/>
<polygon fill="midnightblue" stroke="midnightblue" points="472.59,-159.19 467.15,-168.28 477.07,-164.56 472.59,-159.19"/>
</g>
<!-- Node6 -->
<g id="node6" class="node">
<title>Node6</title>
<g id="a_node6"><a xlink:href="_single_player_8c.html" target="_top" xlink:title="SinglePlayer mode handler.">
<polygon fill="none" stroke="black" points="407.81,-0.5 407.81,-19.5 503.81,-19.5 503.81,-0.5 407.81,-0.5"/>
<text text-anchor="middle" x="455.81" y="-7.5" font-family="Helvetica,sans-Serif" font-size="10.00">src/SinglePlayer.c</text>
</a>
</g>
</g>
<!-- Node2&#45;&gt;Node6 -->
<g id="edge16" class="edge">
<title>Node2&#45;&gt;Node6</title>
<path fill="none" stroke="midnightblue" d="M467.74,-160.08C480.56,-140.78 500.11,-107.79 507.81,-76 509.9,-67.36 511.5,-64.08 507.81,-56 500.41,-39.82 484.01,-27.23 471.59,-19.53"/>
<polygon fill="midnightblue" stroke="midnightblue" points="464.82,-158.15 462.08,-168.38 470.61,-162.09 464.82,-158.15"/>
</g>
<!-- Node2&#45;&gt;Node7 -->
<g id="edge6" class="edge">
<title>Node2&#45;&gt;Node7</title>
<path fill="none" stroke="midnightblue" d="M421.2,-165.17C391.45,-155 349.26,-140.59 322.73,-131.52"/>
<polygon fill="midnightblue" stroke="midnightblue" points="420.18,-168.52 430.77,-168.44 422.44,-161.9 420.18,-168.52"/>
</g>
<!-- Node2&#45;&gt;Node11 -->
<g id="edge13" class="edge">
<title>Node2&#45;&gt;Node11</title>
<path fill="none" stroke="midnightblue" d="M492.64,-165.44C525.07,-155.26 571.55,-140.66 600.68,-131.52"/>
<polygon fill="midnightblue" stroke="midnightblue" points="491.56,-162.11 483.06,-168.44 493.65,-168.79 491.56,-162.11"/>
</g>
<!-- Node3&#45;&gt;Node4 -->
<g id="edge3" class="edge">
<title>Node3&#45;&gt;Node4</title>
<path fill="none" stroke="midnightblue" d="M401.95,-54.54C345.83,-43.64 259.57,-26.88 212.09,-17.66"/>
<polygon fill="midnightblue" stroke="midnightblue" points="401.58,-58.03 412.07,-56.5 402.92,-51.16 401.58,-58.03"/>
</g>
<!-- Node3&#45;&gt;Node5 -->
<g id="edge4" class="edge">
<title>Node3&#45;&gt;Node5</title>
<path fill="none" stroke="midnightblue" d="M482.57,-51.86C502.97,-41.85 530.47,-28.35 548.18,-19.65"/>
<polygon fill="midnightblue" stroke="midnightblue" points="480.92,-48.78 473.48,-56.32 484,-55.06 480.92,-48.78"/>
</g>
<!-- Node3&#45;&gt;Node6 -->
<g id="edge5" class="edge">
<title>Node3&#45;&gt;Node6</title>
<path fill="none" stroke="midnightblue" d="M455.81,-45.8C455.81,-36.91 455.81,-26.78 455.81,-19.75"/>
<polygon fill="midnightblue" stroke="midnightblue" points="452.31,-46.08 455.81,-56.08 459.31,-46.08 452.31,-46.08"/>
</g>
<!-- Node7&#45;&gt;Node3 -->
<g id="edge7" class="edge">
<title>Node7&#45;&gt;Node3</title>
<path fill="none" stroke="midnightblue" d="M332.42,-109.17C362.17,-99 404.36,-84.59 430.89,-75.52"/>
<polygon fill="midnightblue" stroke="midnightblue" points="331.17,-105.9 322.84,-112.44 333.44,-112.52 331.17,-105.9"/>
</g>
<!-- Node7&#45;&gt;Node4 -->
<g id="edge11" class="edge">
<title>Node7&#45;&gt;Node4</title>
<path fill="none" stroke="midnightblue" d="M242.69,-120.27C169.49,-118.01 46.11,-109.22 17.81,-76 -19.04,-32.75 86.34,-17.92 143.57,-13.13"/>
<polygon fill="midnightblue" stroke="midnightblue" points="243.02,-123.78 253.11,-120.56 243.21,-116.79 243.02,-123.78"/>
</g>
<!-- Node8 -->
<g id="node8" class="node">
<title>Node8</title>
<g id="a_node8"><a xlink:href="_multiplayer_8h.html" target="_top" xlink:title="Multiplayer mode handler.">
<polygon fill="none" stroke="black" points="115.31,-56.5 115.31,-75.5 222.31,-75.5 222.31,-56.5 115.31,-56.5"/>
<text text-anchor="middle" x="168.81" y="-63.5" font-family="Helvetica,sans-Serif" font-size="10.00">include/Multiplayer.h</text>
</a>
</g>
</g>
<!-- Node7&#45;&gt;Node8 -->
<g id="edge8" class="edge">
<title>Node7&#45;&gt;Node8</title>
<path fill="none" stroke="midnightblue" d="M267.95,-108.5C243.77,-98.38 210.35,-84.39 189.15,-75.52"/>
<polygon fill="midnightblue" stroke="midnightblue" points="266.79,-111.81 277.37,-112.44 269.5,-105.35 266.79,-111.81"/>
</g>
<!-- Node9 -->
<g id="node9" class="node">
<title>Node9</title>
<g id="a_node9"><a xlink:href="_single_player_8h.html" target="_top" xlink:title="SinglePlayer mode handler.">
<polygon fill="none" stroke="black" points="240.31,-56.5 240.31,-75.5 355.31,-75.5 355.31,-56.5 240.31,-56.5"/>
<text text-anchor="middle" x="297.81" y="-63.5" font-family="Helvetica,sans-Serif" font-size="10.00">include/SinglePlayer.h</text>
</a>
</g>
</g>
<!-- Node7&#45;&gt;Node9 -->
<g id="edge9" class="edge">
<title>Node7&#45;&gt;Node9</title>
<path fill="none" stroke="midnightblue" d="M297.81,-101.8C297.81,-92.91 297.81,-82.78 297.81,-75.75"/>
<polygon fill="midnightblue" stroke="midnightblue" points="294.31,-102.08 297.81,-112.08 301.31,-102.08 294.31,-102.08"/>
</g>
<!-- Node10 -->
<g id="node10" class="node">
<title>Node10</title>
<g id="a_node10"><a xlink:href="_moves_8c.html" target="_top" xlink:title="Moves contains all the data types and methods used to handle moves.">
<polygon fill="none" stroke="black" points="26.81,-56.5 26.81,-75.5 96.81,-75.5 96.81,-56.5 26.81,-56.5"/>
<text text-anchor="middle" x="61.81" y="-63.5" font-family="Helvetica,sans-Serif" font-size="10.00">src/Moves.c</text>
</a>
</g>
</g>
<!-- Node7&#45;&gt;Node10 -->
<g id="edge12" class="edge">
<title>Node7&#45;&gt;Node10</title>
<path fill="none" stroke="midnightblue" d="M250.54,-110.18C205.24,-99.82 137.9,-84.41 97.1,-75.08"/>
<polygon fill="midnightblue" stroke="midnightblue" points="249.89,-113.62 260.41,-112.44 251.45,-106.8 249.89,-113.62"/>
</g>
<!-- Node9&#45;&gt;Node6 -->
<g id="edge10" class="edge">
<title>Node9&#45;&gt;Node6</title>
<path fill="none" stroke="midnightblue" d="M332.42,-53.17C362.17,-43 404.36,-28.59 430.89,-19.52"/>
<polygon fill="midnightblue" stroke="midnightblue" points="331.17,-49.9 322.84,-56.44 333.44,-56.52 331.17,-49.9"/>
</g>
</g>
</svg>
