<?xml version="1.0" encoding="UTF-8" standalone="no"?>
<!DOCTYPE svg PUBLIC "-//W3C//DTD SVG 1.1//EN"
 "http://www.w3.org/Graphics/SVG/1.1/DTD/svg11.dtd">
<!-- Generated by graphviz version 2.48.0 (20210717.1556)
 -->
<!-- Title: include/Game.h Pages: 1 -->
<svg width="168pt" height="252pt"
 viewBox="0.00 0.00 168.00 252.00" xmlns="http://www.w3.org/2000/svg" xmlns:xlink="http://www.w3.org/1999/xlink">
<g id="graph0" class="graph" transform="scale(1 1) rotate(0) translate(4 248)">
<title>include/Game.h</title>
<!-- Node1 -->
<g id="node1" class="node">
<title>Node1</title>
<g id="a_node1"><a xlink:title="Methods to handle a game.">
<polygon fill="#bfbfbf" stroke="black" points="16,-224.5 16,-243.5 103,-243.5 103,-224.5 16,-224.5"/>
<text text-anchor="middle" x="59.5" y="-231.5" font-family="Helvetica,sans-Serif" font-size="10.00">include/Game.h</text>
</a>
</g>
</g>
<!-- Node2 -->
<g id="node2" class="node">
<title>Node2</title>
<g id="a_node2"><a xlink:href="_board_8h.html" target="_top" xlink:title="Board struct and methods to handle the board.">
<polygon fill="none" stroke="black" points="6.5,-112.5 6.5,-131.5 58.5,-131.5 58.5,-112.5 6.5,-112.5"/>
<text text-anchor="middle" x="32.5" y="-119.5" font-family="Helvetica,sans-Serif" font-size="10.00">Board.h</text>
</a>
</g>
</g>
<!-- Node1&#45;&gt;Node2 -->
<g id="edge1" class="edge">
<title>Node1&#45;&gt;Node2</title>
<path fill="none" stroke="midnightblue" d="M57.38,-224.37C53.02,-206.62 42.97,-165.67 37.06,-141.6"/>
<polygon fill="midnightblue" stroke="midnightblue" points="40.39,-140.47 34.61,-131.59 33.59,-142.14 40.39,-140.47"/>
</g>
<!-- Node6 -->
<g id="node6" class="node">
<title>Node6</title>
<g id="a_node6"><a xlink:href="_moves_8h.html" target="_top" xlink:title="Moves contains all the data types and methods used to handle moves.">
<polygon fill="none" stroke="black" points="60.5,-168.5 60.5,-187.5 114.5,-187.5 114.5,-168.5 60.5,-168.5"/>
<text text-anchor="middle" x="87.5" y="-175.5" font-family="Helvetica,sans-Serif" font-size="10.00">Moves.h</text>
</a>
</g>
</g>
<!-- Node1&#45;&gt;Node6 -->
<g id="edge5" class="edge">
<title>Node1&#45;&gt;Node6</title>
<path fill="none" stroke="midnightblue" d="M64.12,-224.08C67.96,-216.69 73.52,-205.95 78.26,-196.81"/>
<polygon fill="midnightblue" stroke="midnightblue" points="81.47,-198.24 82.96,-187.75 75.25,-195.02 81.47,-198.24"/>
</g>
<!-- Node3 -->
<g id="node3" class="node">
<title>Node3</title>
<g id="a_node3"><a xlink:href="_cell_8h.html" target="_top" xlink:title="Cell struct and methods to handle cells and their towers.">
<polygon fill="none" stroke="black" points="38.5,-56.5 38.5,-75.5 80.5,-75.5 80.5,-56.5 38.5,-56.5"/>
<text text-anchor="middle" x="59.5" y="-63.5" font-family="Helvetica,sans-Serif" font-size="10.00">Cell.h</text>
</a>
</g>
</g>
<!-- Node2&#45;&gt;Node3 -->
<g id="edge2" class="edge">
<title>Node2&#45;&gt;Node3</title>
<path fill="none" stroke="midnightblue" d="M36.96,-112.08C40.65,-104.69 46.02,-93.95 50.59,-84.81"/>
<polygon fill="midnightblue" stroke="midnightblue" points="53.78,-86.26 55.12,-75.75 47.52,-83.13 53.78,-86.26"/>
</g>
<!-- Node4 -->
<g id="node4" class="node">
<title>Node4</title>
<g id="a_node4"><a xlink:href="_tower_8h.html" target="_top" xlink:title="Data types and methods used to handle a Tower.">
<polygon fill="none" stroke="black" points="0,-0.5 0,-19.5 51,-19.5 51,-0.5 0,-0.5"/>
<text text-anchor="middle" x="25.5" y="-7.5" font-family="Helvetica,sans-Serif" font-size="10.00">Tower.h</text>
</a>
</g>
</g>
<!-- Node3&#45;&gt;Node4 -->
<g id="edge3" class="edge">
<title>Node3&#45;&gt;Node4</title>
<path fill="none" stroke="midnightblue" d="M53.89,-56.08C49.13,-48.53 42.18,-37.49 36.35,-28.23"/>
<polygon fill="midnightblue" stroke="midnightblue" points="39.3,-26.35 31.01,-19.75 33.38,-30.08 39.3,-26.35"/>
</g>
<!-- Node5 -->
<g id="node5" class="node">
<title>Node5</title>
<g id="a_node5"><a xlink:title=" ">
<polygon fill="none" stroke="#bfbfbf" points="69.5,-0.5 69.5,-19.5 117.5,-19.5 117.5,-0.5 69.5,-0.5"/>
<text text-anchor="middle" x="93.5" y="-7.5" font-family="Helvetica,sans-Serif" font-size="10.00">stdlib.h</text>
</a>
</g>
</g>
<!-- Node3&#45;&gt;Node5 -->
<g id="edge4" class="edge">
<title>Node3&#45;&gt;Node5</title>
<path fill="none" stroke="midnightblue" d="M65.11,-56.08C69.87,-48.53 76.82,-37.49 82.65,-28.23"/>
<polygon fill="midnightblue" stroke="midnightblue" points="85.62,-30.08 87.99,-19.75 79.7,-26.35 85.62,-30.08"/>
</g>
<!-- Node6&#45;&gt;Node2 -->
<g id="edge8" class="edge">
<title>Node6&#45;&gt;Node2</title>
<path fill="none" stroke="midnightblue" d="M78.42,-168.08C70.33,-160.14 58.3,-148.34 48.59,-138.8"/>
<polygon fill="midnightblue" stroke="midnightblue" points="51,-136.26 41.41,-131.75 46.1,-141.25 51,-136.26"/>
</g>
<!-- Node6&#45;&gt;Node3 -->
<g id="edge6" class="edge">
<title>Node6&#45;&gt;Node3</title>
<path fill="none" stroke="midnightblue" d="M85.3,-168.37C80.78,-150.62 70.36,-109.67 64.23,-85.6"/>
<polygon fill="midnightblue" stroke="midnightblue" points="67.55,-84.42 61.69,-75.59 60.76,-86.15 67.55,-84.42"/>
</g>
<!-- Node7 -->
<g id="node7" class="node">
<title>Node7</title>
<g id="a_node7"><a xlink:href="_bool_8h.html" target="_top" xlink:title="Boolean enum.">
<polygon fill="none" stroke="black" points="115,-112.5 115,-131.5 160,-131.5 160,-112.5 115,-112.5"/>
<text text-anchor="middle" x="137.5" y="-119.5" font-family="Helvetica,sans-Serif" font-size="10.00">Bool.h</text>
</a>
</g>
</g>
<!-- Node6&#45;&gt;Node7 -->
<g id="edge7" class="edge">
<title>Node6&#45;&gt;Node7</title>
<path fill="none" stroke="midnightblue" d="M95.76,-168.08C102.96,-160.3 113.61,-148.8 122.35,-139.37"/>
<polygon fill="midnightblue" stroke="midnightblue" points="125.17,-141.47 129.4,-131.75 120.03,-136.71 125.17,-141.47"/>
</g>
</g>
</svg>
