<?xml version="1.0" encoding="UTF-8" standalone="no"?>
<!DOCTYPE svg PUBLIC "-//W3C//DTD SVG 1.1//EN"
 "http://www.w3.org/Graphics/SVG/1.1/DTD/svg11.dtd">
<!-- Generated by graphviz version 2.48.0 (20210717.1556)
 -->
<!-- Title: src/Game.c Pages: 1 -->
<svg width="250pt" height="308pt"
 viewBox="0.00 0.00 250.00 308.00" xmlns="http://www.w3.org/2000/svg" xmlns:xlink="http://www.w3.org/1999/xlink">
<g id="graph0" class="graph" transform="scale(1 1) rotate(0) translate(4 304)">
<title>src/Game.c</title>
<!-- Node1 -->
<g id="node1" class="node">
<title>Node1</title>
<g id="a_node1"><a xlink:title="Methods to handle a game.">
<polygon fill="#bfbfbf" stroke="black" points="107,-280.5 107,-299.5 175,-299.5 175,-280.5 107,-280.5"/>
<text text-anchor="middle" x="141" y="-287.5" font-family="Helvetica,sans-Serif" font-size="10.00">src/Game.c</text>
</a>
</g>
</g>
<!-- Node2 -->
<g id="node2" class="node">
<title>Node2</title>
<g id="a_node2"><a xlink:title=" ">
<polygon fill="none" stroke="#bfbfbf" points="0,-224.5 0,-243.5 46,-243.5 46,-224.5 0,-224.5"/>
<text text-anchor="middle" x="23" y="-231.5" font-family="Helvetica,sans-Serif" font-size="10.00">stdio.h</text>
</a>
</g>
</g>
<!-- Node1&#45;&gt;Node2 -->
<g id="edge1" class="edge">
<title>Node1&#45;&gt;Node2</title>
<path fill="none" stroke="midnightblue" d="M122.3,-280.44C103.06,-271.64 72.85,-257.81 50.8,-247.72"/>
<polygon fill="midnightblue" stroke="midnightblue" points="52.16,-244.5 41.61,-243.52 49.25,-250.86 52.16,-244.5"/>
</g>
<!-- Node3 -->
<g id="node3" class="node">
<title>Node3</title>
<g id="a_node3"><a xlink:href="_moves_8h.html" target="_top" xlink:title="Moves contains all the data types and methods used to handle moves.">
<polygon fill="none" stroke="black" points="102,-168.5 102,-187.5 156,-187.5 156,-168.5 102,-168.5"/>
<text text-anchor="middle" x="129" y="-175.5" font-family="Helvetica,sans-Serif" font-size="10.00">Moves.h</text>
</a>
</g>
</g>
<!-- Node1&#45;&gt;Node3 -->
<g id="edge2" class="edge">
<title>Node1&#45;&gt;Node3</title>
<path fill="none" stroke="midnightblue" d="M139.17,-280.42C137.32,-271.39 134.52,-256.76 133,-244 131.16,-228.54 130.14,-210.91 129.59,-197.92"/>
<polygon fill="midnightblue" stroke="midnightblue" points="133.09,-197.73 129.22,-187.86 126.09,-197.98 133.09,-197.73"/>
</g>
<!-- Node4 -->
<g id="node4" class="node">
<title>Node4</title>
<g id="a_node4"><a xlink:href="_cell_8h.html" target="_top" xlink:title="Cell struct and methods to handle cells and their towers.">
<polygon fill="none" stroke="black" points="163,-56.5 163,-75.5 205,-75.5 205,-56.5 163,-56.5"/>
<text text-anchor="middle" x="184" y="-63.5" font-family="Helvetica,sans-Serif" font-size="10.00">Cell.h</text>
</a>
</g>
</g>
<!-- Node1&#45;&gt;Node4 -->
<g id="edge12" class="edge">
<title>Node1&#45;&gt;Node4</title>
<path fill="none" stroke="midnightblue" d="M170.88,-280.39C188.54,-273.59 209.45,-262.15 220,-244 249.48,-193.28 238.53,-167.32 219,-112 215.18,-101.19 207.66,-90.96 200.56,-82.99"/>
<polygon fill="midnightblue" stroke="midnightblue" points="202.93,-80.39 193.5,-75.57 197.86,-85.22 202.93,-80.39"/>
</g>
<!-- Node7 -->
<g id="node7" class="node">
<title>Node7</title>
<g id="a_node7"><a xlink:href="_bool_8h.html" target="_top" xlink:title="Boolean enum.">
<polygon fill="none" stroke="black" points="54.5,-112.5 54.5,-131.5 99.5,-131.5 99.5,-112.5 54.5,-112.5"/>
<text text-anchor="middle" x="77" y="-119.5" font-family="Helvetica,sans-Serif" font-size="10.00">Bool.h</text>
</a>
</g>
</g>
<!-- Node1&#45;&gt;Node7 -->
<g id="edge14" class="edge">
<title>Node1&#45;&gt;Node7</title>
<path fill="none" stroke="midnightblue" d="M136.14,-280.34C126.69,-263.19 105.65,-223.48 93,-188 87.57,-172.76 83.31,-154.87 80.56,-141.72"/>
<polygon fill="midnightblue" stroke="midnightblue" points="83.92,-140.7 78.54,-131.58 77.06,-142.07 83.92,-140.7"/>
</g>
<!-- Node8 -->
<g id="node8" class="node">
<title>Node8</title>
<g id="a_node8"><a xlink:href="_board_8h.html" target="_top" xlink:title="Board struct and methods to handle the board.">
<polygon fill="none" stroke="black" points="158,-112.5 158,-131.5 210,-131.5 210,-112.5 158,-112.5"/>
<text text-anchor="middle" x="184" y="-119.5" font-family="Helvetica,sans-Serif" font-size="10.00">Board.h</text>
</a>
</g>
</g>
<!-- Node1&#45;&gt;Node8 -->
<g id="edge13" class="edge">
<title>Node1&#45;&gt;Node8</title>
<path fill="none" stroke="midnightblue" d="M161.22,-280.49C175.77,-273.17 194.3,-261.06 203,-244 220.07,-210.52 204.51,-165.59 193.24,-140.98"/>
<polygon fill="midnightblue" stroke="midnightblue" points="196.29,-139.25 188.78,-131.77 189.99,-142.3 196.29,-139.25"/>
</g>
<!-- Node9 -->
<g id="node9" class="node">
<title>Node9</title>
<g id="a_node9"><a xlink:href="_game_8h.html" target="_top" xlink:title="Methods to handle a game.">
<polygon fill="none" stroke="black" points="142,-224.5 142,-243.5 194,-243.5 194,-224.5 142,-224.5"/>
<text text-anchor="middle" x="168" y="-231.5" font-family="Helvetica,sans-Serif" font-size="10.00">Game.h</text>
</a>
</g>
</g>
<!-- Node1&#45;&gt;Node9 -->
<g id="edge9" class="edge">
<title>Node1&#45;&gt;Node9</title>
<path fill="none" stroke="midnightblue" d="M145.46,-280.08C149.15,-272.69 154.52,-261.95 159.09,-252.81"/>
<polygon fill="midnightblue" stroke="midnightblue" points="162.28,-254.26 163.62,-243.75 156.02,-251.13 162.28,-254.26"/>
</g>
<!-- Node3&#45;&gt;Node4 -->
<g id="edge3" class="edge">
<title>Node3&#45;&gt;Node4</title>
<path fill="none" stroke="midnightblue" d="M130.65,-168.2C133.29,-155.33 139.19,-130.85 149,-112 154.36,-101.7 162.15,-91.4 169.02,-83.25"/>
<polygon fill="midnightblue" stroke="midnightblue" points="171.74,-85.46 175.71,-75.64 166.48,-80.84 171.74,-85.46"/>
</g>
<!-- Node3&#45;&gt;Node7 -->
<g id="edge6" class="edge">
<title>Node3&#45;&gt;Node7</title>
<path fill="none" stroke="midnightblue" d="M120.41,-168.08C112.84,-160.22 101.62,-148.57 92.49,-139.08"/>
<polygon fill="midnightblue" stroke="midnightblue" points="94.88,-136.53 85.43,-131.75 89.84,-141.38 94.88,-136.53"/>
</g>
<!-- Node3&#45;&gt;Node8 -->
<g id="edge7" class="edge">
<title>Node3&#45;&gt;Node8</title>
<path fill="none" stroke="midnightblue" d="M138.08,-168.08C146.17,-160.14 158.2,-148.34 167.91,-138.8"/>
<polygon fill="midnightblue" stroke="midnightblue" points="170.4,-141.25 175.09,-131.75 165.5,-136.26 170.4,-141.25"/>
</g>
<!-- Node5 -->
<g id="node5" class="node">
<title>Node5</title>
<g id="a_node5"><a xlink:href="_tower_8h.html" target="_top" xlink:title="Data types and methods used to handle a Tower.">
<polygon fill="none" stroke="black" points="124.5,-0.5 124.5,-19.5 175.5,-19.5 175.5,-0.5 124.5,-0.5"/>
<text text-anchor="middle" x="150" y="-7.5" font-family="Helvetica,sans-Serif" font-size="10.00">Tower.h</text>
</a>
</g>
</g>
<!-- Node4&#45;&gt;Node5 -->
<g id="edge4" class="edge">
<title>Node4&#45;&gt;Node5</title>
<path fill="none" stroke="midnightblue" d="M178.39,-56.08C173.63,-48.53 166.68,-37.49 160.85,-28.23"/>
<polygon fill="midnightblue" stroke="midnightblue" points="163.8,-26.35 155.51,-19.75 157.88,-30.08 163.8,-26.35"/>
</g>
<!-- Node6 -->
<g id="node6" class="node">
<title>Node6</title>
<g id="a_node6"><a xlink:title=" ">
<polygon fill="none" stroke="#bfbfbf" points="194,-0.5 194,-19.5 242,-19.5 242,-0.5 194,-0.5"/>
<text text-anchor="middle" x="218" y="-7.5" font-family="Helvetica,sans-Serif" font-size="10.00">stdlib.h</text>
</a>
</g>
</g>
<!-- Node4&#45;&gt;Node6 -->
<g id="edge5" class="edge">
<title>Node4&#45;&gt;Node6</title>
<path fill="none" stroke="midnightblue" d="M189.61,-56.08C194.37,-48.53 201.32,-37.49 207.15,-28.23"/>
<polygon fill="midnightblue" stroke="midnightblue" points="210.12,-30.08 212.49,-19.75 204.2,-26.35 210.12,-30.08"/>
</g>
<!-- Node8&#45;&gt;Node4 -->
<g id="edge8" class="edge">
<title>Node8&#45;&gt;Node4</title>
<path fill="none" stroke="midnightblue" d="M184,-112.08C184,-105.01 184,-94.86 184,-85.99"/>
<polygon fill="midnightblue" stroke="midnightblue" points="187.5,-85.75 184,-75.75 180.5,-85.75 187.5,-85.75"/>
</g>
<!-- Node9&#45;&gt;Node3 -->
<g id="edge11" class="edge">
<title>Node9&#45;&gt;Node3</title>
<path fill="none" stroke="midnightblue" d="M161.56,-224.08C156.05,-216.46 147.97,-205.26 141.24,-195.94"/>
<polygon fill="midnightblue" stroke="midnightblue" points="144.01,-193.81 135.32,-187.75 138.34,-197.91 144.01,-193.81"/>
</g>
<!-- Node9&#45;&gt;Node8 -->
<g id="edge10" class="edge">
<title>Node9&#45;&gt;Node8</title>
<path fill="none" stroke="midnightblue" d="M169.26,-224.37C171.84,-206.62 177.79,-165.67 181.29,-141.6"/>
<polygon fill="midnightblue" stroke="midnightblue" points="184.77,-141.99 182.75,-131.59 177.85,-140.98 184.77,-141.99"/>
</g>
</g>
</svg>
