<?xml version="1.0" encoding="UTF-8" standalone="no"?>
<!DOCTYPE svg PUBLIC "-//W3C//DTD SVG 1.1//EN"
 "http://www.w3.org/Graphics/SVG/1.1/DTD/svg11.dtd">
<!-- Generated by graphviz version 2.48.0 (20210717.1556)
 -->
<!-- Title: include/MinimaxAI.c Pages: 1 -->
<svg width="435pt" height="364pt"
 viewBox="0.00 0.00 434.72 364.00" xmlns="http://www.w3.org/2000/svg" xmlns:xlink="http://www.w3.org/1999/xlink">
<g id="graph0" class="graph" transform="scale(1 1) rotate(0) translate(4 360)">
<title>include/MinimaxAI.c</title>
<!-- Node1 -->
<g id="node1" class="node">
<title>Node1</title>
<g id="a_node1"><a xlink:title="Minimax algorithm.">
<polygon fill="#bfbfbf" stroke="black" points="152.19,-336.5 152.19,-355.5 257.19,-355.5 257.19,-336.5 152.19,-336.5"/>
<text text-anchor="middle" x="204.69" y="-343.5" font-family="Helvetica,sans-Serif" font-size="10.00">include/MinimaxAI.c</text>
</a>
</g>
</g>
<!-- Node2 -->
<g id="node2" class="node">
<title>Node2</title>
<g id="a_node2"><a xlink:href="_minimax_a_i_8h.html" target="_top" xlink:title="Minimax algorithm.">
<polygon fill="none" stroke="black" points="168.69,-280.5 168.69,-299.5 240.69,-299.5 240.69,-280.5 168.69,-280.5"/>
<text text-anchor="middle" x="204.69" y="-287.5" font-family="Helvetica,sans-Serif" font-size="10.00">MinimaxAI.h</text>
</a>
</g>
</g>
<!-- Node1&#45;&gt;Node2 -->
<g id="edge1" class="edge">
<title>Node1&#45;&gt;Node2</title>
<path fill="none" stroke="midnightblue" d="M204.69,-336.08C204.69,-329.01 204.69,-318.86 204.69,-309.99"/>
<polygon fill="midnightblue" stroke="midnightblue" points="208.19,-309.75 204.69,-299.75 201.19,-309.75 208.19,-309.75"/>
</g>
<!-- Node3 -->
<g id="node3" class="node">
<title>Node3</title>
<g id="a_node3"><a xlink:title=" ">
<polygon fill="none" stroke="#bfbfbf" points="98.69,-0.5 98.69,-19.5 146.69,-19.5 146.69,-0.5 98.69,-0.5"/>
<text text-anchor="middle" x="122.69" y="-7.5" font-family="Helvetica,sans-Serif" font-size="10.00">stdlib.h</text>
</a>
</g>
</g>
<!-- Node2&#45;&gt;Node3 -->
<g id="edge2" class="edge">
<title>Node2&#45;&gt;Node3</title>
<path fill="none" stroke="midnightblue" d="M168.35,-284.51C120.73,-277.91 40.78,-264.15 19.69,-244 -2.07,-223.21 0.69,-209.1 0.69,-179 0.69,-179 0.69,-179 0.69,-121 0.69,-72.57 54.38,-39.99 90.52,-23.54"/>
<polygon fill="midnightblue" stroke="midnightblue" points="91.98,-26.72 99.74,-19.52 89.18,-20.31 91.98,-26.72"/>
</g>
<!-- Node4 -->
<g id="node4" class="node">
<title>Node4</title>
<g id="a_node4"><a xlink:title=" ">
<polygon fill="none" stroke="#bfbfbf" points="28.69,-224.5 28.69,-243.5 72.69,-243.5 72.69,-224.5 28.69,-224.5"/>
<text text-anchor="middle" x="50.69" y="-231.5" font-family="Helvetica,sans-Serif" font-size="10.00">time.h</text>
</a>
</g>
</g>
<!-- Node2&#45;&gt;Node4 -->
<g id="edge3" class="edge">
<title>Node2&#45;&gt;Node4</title>
<path fill="none" stroke="midnightblue" d="M180.29,-280.44C153.89,-271.19 111.68,-256.39 82.65,-246.21"/>
<polygon fill="midnightblue" stroke="midnightblue" points="83.57,-242.82 72.98,-242.82 81.26,-249.43 83.57,-242.82"/>
</g>
<!-- Node5 -->
<g id="node5" class="node">
<title>Node5</title>
<g id="a_node5"><a xlink:title=" ">
<polygon fill="none" stroke="#bfbfbf" points="90.69,-224.5 90.69,-243.5 136.69,-243.5 136.69,-224.5 90.69,-224.5"/>
<text text-anchor="middle" x="113.69" y="-231.5" font-family="Helvetica,sans-Serif" font-size="10.00">stdio.h</text>
</a>
</g>
</g>
<!-- Node2&#45;&gt;Node5 -->
<g id="edge4" class="edge">
<title>Node2&#45;&gt;Node5</title>
<path fill="none" stroke="midnightblue" d="M190.07,-280.32C175.74,-271.82 153.68,-258.73 136.94,-248.8"/>
<polygon fill="midnightblue" stroke="midnightblue" points="138.66,-245.75 128.28,-243.65 135.09,-251.77 138.66,-245.75"/>
</g>
<!-- Node6 -->
<g id="node6" class="node">
<title>Node6</title>
<g id="a_node6"><a xlink:title=" ">
<polygon fill="none" stroke="#bfbfbf" points="155.19,-224.5 155.19,-243.5 202.19,-243.5 202.19,-224.5 155.19,-224.5"/>
<text text-anchor="middle" x="178.69" y="-231.5" font-family="Helvetica,sans-Serif" font-size="10.00">math.h</text>
</a>
</g>
</g>
<!-- Node2&#45;&gt;Node6 -->
<g id="edge5" class="edge">
<title>Node2&#45;&gt;Node6</title>
<path fill="none" stroke="midnightblue" d="M200.4,-280.08C196.84,-272.69 191.67,-261.95 187.27,-252.81"/>
<polygon fill="midnightblue" stroke="midnightblue" points="190.4,-251.24 182.9,-243.75 184.09,-254.28 190.4,-251.24"/>
</g>
<!-- Node7 -->
<g id="node7" class="node">
<title>Node7</title>
<g id="a_node7"><a xlink:href="_single_player_8h.html" target="_top" xlink:title="SinglePlayer mode handler.">
<polygon fill="none" stroke="black" points="258.69,-224.5 258.69,-243.5 338.69,-243.5 338.69,-224.5 258.69,-224.5"/>
<text text-anchor="middle" x="298.69" y="-231.5" font-family="Helvetica,sans-Serif" font-size="10.00">SinglePlayer.h</text>
</a>
</g>
</g>
<!-- Node2&#45;&gt;Node7 -->
<g id="edge6" class="edge">
<title>Node2&#45;&gt;Node7</title>
<path fill="none" stroke="midnightblue" d="M219.79,-280.32C234.59,-271.82 257.39,-258.73 274.67,-248.8"/>
<polygon fill="midnightblue" stroke="midnightblue" points="276.7,-251.67 283.63,-243.65 273.21,-245.6 276.7,-251.67"/>
</g>
<!-- Node11 -->
<g id="node11" class="node">
<title>Node11</title>
<g id="a_node11"><a xlink:href="_bool_8h.html" target="_top" xlink:title="Boolean enum.">
<polygon fill="none" stroke="black" points="224.19,-112.5 224.19,-131.5 269.19,-131.5 269.19,-112.5 224.19,-112.5"/>
<text text-anchor="middle" x="246.69" y="-119.5" font-family="Helvetica,sans-Serif" font-size="10.00">Bool.h</text>
</a>
</g>
</g>
<!-- Node2&#45;&gt;Node11 -->
<g id="edge15" class="edge">
<title>Node2&#45;&gt;Node11</title>
<path fill="none" stroke="midnightblue" d="M206.95,-280.08C213.56,-253.95 232.98,-177.21 241.99,-141.58"/>
<polygon fill="midnightblue" stroke="midnightblue" points="245.46,-142.12 244.52,-131.57 238.68,-140.4 245.46,-142.12"/>
</g>
<!-- Node12 -->
<g id="node12" class="node">
<title>Node12</title>
<g id="a_node12"><a xlink:href="_board_8h.html" target="_top" xlink:title="Board struct and methods to handle the board.">
<polygon fill="none" stroke="black" points="338.69,-112.5 338.69,-131.5 390.69,-131.5 390.69,-112.5 338.69,-112.5"/>
<text text-anchor="middle" x="364.69" y="-119.5" font-family="Helvetica,sans-Serif" font-size="10.00">Board.h</text>
</a>
</g>
</g>
<!-- Node2&#45;&gt;Node12 -->
<g id="edge14" class="edge">
<title>Node2&#45;&gt;Node12</title>
<path fill="none" stroke="midnightblue" d="M241.01,-286.7C295.88,-282.38 395.85,-270.94 417.69,-244 444.15,-211.37 405.61,-163.48 381.54,-138.88"/>
<polygon fill="midnightblue" stroke="midnightblue" points="383.91,-136.3 374.34,-131.76 378.99,-141.28 383.91,-136.3"/>
</g>
<!-- Node13 -->
<g id="node13" class="node">
<title>Node13</title>
<g id="a_node13"><a xlink:href="_game_8h.html" target="_top" xlink:title="Methods to handle a game.">
<polygon fill="none" stroke="black" points="356.69,-224.5 356.69,-243.5 408.69,-243.5 408.69,-224.5 356.69,-224.5"/>
<text text-anchor="middle" x="382.69" y="-231.5" font-family="Helvetica,sans-Serif" font-size="10.00">Game.h</text>
</a>
</g>
</g>
<!-- Node2&#45;&gt;Node13 -->
<g id="edge16" class="edge">
<title>Node2&#45;&gt;Node13</title>
<path fill="none" stroke="midnightblue" d="M232.9,-280.44C263.72,-271.09 313.19,-256.08 346.77,-245.9"/>
<polygon fill="midnightblue" stroke="midnightblue" points="348.09,-249.15 356.65,-242.9 346.06,-242.46 348.09,-249.15"/>
</g>
<!-- Node8 -->
<g id="node8" class="node">
<title>Node8</title>
<g id="a_node8"><a xlink:href="_moves_8h.html" target="_top" xlink:title="Moves contains all the data types and methods used to handle moves.">
<polygon fill="none" stroke="black" points="278.69,-168.5 278.69,-187.5 332.69,-187.5 332.69,-168.5 278.69,-168.5"/>
<text text-anchor="middle" x="305.69" y="-175.5" font-family="Helvetica,sans-Serif" font-size="10.00">Moves.h</text>
</a>
</g>
</g>
<!-- Node7&#45;&gt;Node8 -->
<g id="edge7" class="edge">
<title>Node7&#45;&gt;Node8</title>
<path fill="none" stroke="midnightblue" d="M299.85,-224.08C300.77,-216.93 302.11,-206.64 303.27,-197.69"/>
<polygon fill="midnightblue" stroke="midnightblue" points="306.74,-198.12 304.56,-187.75 299.8,-197.22 306.74,-198.12"/>
</g>
<!-- Node9 -->
<g id="node9" class="node">
<title>Node9</title>
<g id="a_node9"><a xlink:href="_cell_8h.html" target="_top" xlink:title="Cell struct and methods to handle cells and their towers.">
<polygon fill="none" stroke="black" points="284.69,-56.5 284.69,-75.5 326.69,-75.5 326.69,-56.5 284.69,-56.5"/>
<text text-anchor="middle" x="305.69" y="-63.5" font-family="Helvetica,sans-Serif" font-size="10.00">Cell.h</text>
</a>
</g>
</g>
<!-- Node8&#45;&gt;Node9 -->
<g id="edge8" class="edge">
<title>Node8&#45;&gt;Node9</title>
<path fill="none" stroke="midnightblue" d="M305.69,-168.37C305.69,-150.62 305.69,-109.67 305.69,-85.6"/>
<polygon fill="midnightblue" stroke="midnightblue" points="309.19,-85.59 305.69,-75.59 302.19,-85.59 309.19,-85.59"/>
</g>
<!-- Node8&#45;&gt;Node11 -->
<g id="edge11" class="edge">
<title>Node8&#45;&gt;Node11</title>
<path fill="none" stroke="midnightblue" d="M296.21,-168.32C287.49,-160.34 274.35,-148.31 263.79,-138.65"/>
<polygon fill="midnightblue" stroke="midnightblue" points="266.08,-136 256.34,-131.83 261.36,-141.17 266.08,-136"/>
</g>
<!-- Node8&#45;&gt;Node12 -->
<g id="edge12" class="edge">
<title>Node8&#45;&gt;Node12</title>
<path fill="none" stroke="midnightblue" d="M315.17,-168.32C323.89,-160.34 337.03,-148.31 347.59,-138.65"/>
<polygon fill="midnightblue" stroke="midnightblue" points="350.03,-141.17 355.04,-131.83 345.3,-136 350.03,-141.17"/>
</g>
<!-- Node9&#45;&gt;Node3 -->
<g id="edge10" class="edge">
<title>Node9&#45;&gt;Node3</title>
<path fill="none" stroke="midnightblue" d="M284.34,-58.7C252.97,-49.44 194.11,-32.07 156.73,-21.04"/>
<polygon fill="midnightblue" stroke="midnightblue" points="157.38,-17.59 146.8,-18.11 155.4,-24.3 157.38,-17.59"/>
</g>
<!-- Node10 -->
<g id="node10" class="node">
<title>Node10</title>
<g id="a_node10"><a xlink:href="_tower_8h.html" target="_top" xlink:title="Data types and methods used to handle a Tower.">
<polygon fill="none" stroke="black" points="280.19,-0.5 280.19,-19.5 331.19,-19.5 331.19,-0.5 280.19,-0.5"/>
<text text-anchor="middle" x="305.69" y="-7.5" font-family="Helvetica,sans-Serif" font-size="10.00">Tower.h</text>
</a>
</g>
</g>
<!-- Node9&#45;&gt;Node10 -->
<g id="edge9" class="edge">
<title>Node9&#45;&gt;Node10</title>
<path fill="none" stroke="midnightblue" d="M305.69,-56.08C305.69,-49.01 305.69,-38.86 305.69,-29.99"/>
<polygon fill="midnightblue" stroke="midnightblue" points="309.19,-29.75 305.69,-19.75 302.19,-29.75 309.19,-29.75"/>
</g>
<!-- Node12&#45;&gt;Node9 -->
<g id="edge13" class="edge">
<title>Node12&#45;&gt;Node9</title>
<path fill="none" stroke="midnightblue" d="M355.21,-112.32C346.49,-104.34 333.35,-92.31 322.79,-82.65"/>
<polygon fill="midnightblue" stroke="midnightblue" points="325.08,-80 315.34,-75.83 320.36,-85.17 325.08,-80"/>
</g>
<!-- Node13&#45;&gt;Node8 -->
<g id="edge18" class="edge">
<title>Node13&#45;&gt;Node8</title>
<path fill="none" stroke="midnightblue" d="M370.32,-224.32C358.53,-216.06 340.56,-203.45 326.56,-193.63"/>
<polygon fill="midnightblue" stroke="midnightblue" points="328.23,-190.53 318.03,-187.65 324.21,-196.26 328.23,-190.53"/>
</g>
<!-- Node13&#45;&gt;Node12 -->
<g id="edge17" class="edge">
<title>Node13&#45;&gt;Node12</title>
<path fill="none" stroke="midnightblue" d="M381.28,-224.37C378.37,-206.62 371.67,-165.67 367.73,-141.6"/>
<polygon fill="midnightblue" stroke="midnightblue" points="371.17,-140.89 366.1,-131.59 364.26,-142.03 371.17,-140.89"/>
</g>
</g>
</svg>
