<?xml version="1.0" encoding="UTF-8" standalone="no"?>
<!DOCTYPE svg PUBLIC "-//W3C//DTD SVG 1.1//EN"
 "http://www.w3.org/Graphics/SVG/1.1/DTD/svg11.dtd">
<!-- Generated by graphviz version 2.48.0 (20210717.1556)
 -->
<!-- Title: include/Moves.h Pages: 1 -->
<svg width="529pt" height="196pt"
 viewBox="0.00 0.00 529.00 196.00" xmlns="http://www.w3.org/2000/svg" xmlns:xlink="http://www.w3.org/1999/xlink">
<g id="graph0" class="graph" transform="scale(1 1) rotate(0) translate(4 192)">
<title>include/Moves.h</title>
<!-- Node1 -->
<g id="node1" class="node">
<title>Node1</title>
<g id="a_node1"><a xlink:title="Moves contains all the data types and methods used to handle moves.">
<polygon fill="#bfbfbf" stroke="black" points="252.5,-168.5 252.5,-187.5 341.5,-187.5 341.5,-168.5 252.5,-168.5"/>
<text text-anchor="middle" x="297" y="-175.5" font-family="Helvetica,sans-Serif" font-size="10.00">include/Moves.h</text>
</a>
</g>
</g>
<!-- Node2 -->
<g id="node2" class="node">
<title>Node2</title>
<g id="a_node2"><a xlink:href="_game_8h.html" target="_top" xlink:title="Methods to handle a game.">
<polygon fill="none" stroke="black" points="181.5,-112.5 181.5,-131.5 268.5,-131.5 268.5,-112.5 181.5,-112.5"/>
<text text-anchor="middle" x="225" y="-119.5" font-family="Helvetica,sans-Serif" font-size="10.00">include/Game.h</text>
</a>
</g>
</g>
<!-- Node1&#45;&gt;Node2 -->
<g id="edge1" class="edge">
<title>Node1&#45;&gt;Node2</title>
<path fill="none" stroke="midnightblue" d="M277.13,-162.1C264.18,-152.38 247.7,-140.03 236.78,-131.83"/>
<polygon fill="midnightblue" stroke="midnightblue" points="275.33,-165.12 285.43,-168.32 279.53,-159.52 275.33,-165.12"/>
</g>
<!-- Node6 -->
<g id="node6" class="node">
<title>Node6</title>
<g id="a_node6"><a xlink:href="_game_8c.html" target="_top" xlink:title="Methods to handle a game.">
<polygon fill="none" stroke="black" points="304,-56.5 304,-75.5 372,-75.5 372,-56.5 304,-56.5"/>
<text text-anchor="middle" x="338" y="-63.5" font-family="Helvetica,sans-Serif" font-size="10.00">src/Game.c</text>
</a>
</g>
</g>
<!-- Node1&#45;&gt;Node6 -->
<g id="edge12" class="edge">
<title>Node1&#45;&gt;Node6</title>
<path fill="none" stroke="midnightblue" d="M301.89,-158.73C305.59,-145.58 311.03,-127.49 317,-112 321.96,-99.13 328.92,-84.77 333.45,-75.81"/>
<polygon fill="midnightblue" stroke="midnightblue" points="298.49,-157.89 299.22,-168.46 305.24,-159.74 298.49,-157.89"/>
</g>
<!-- Node8 -->
<g id="node8" class="node">
<title>Node8</title>
<g id="a_node8"><a xlink:href="_multiplayer_8h.html" target="_top" xlink:title="Multiplayer mode handler.">
<polygon fill="none" stroke="black" points="325.5,-112.5 325.5,-131.5 432.5,-131.5 432.5,-112.5 325.5,-112.5"/>
<text text-anchor="middle" x="379" y="-119.5" font-family="Helvetica,sans-Serif" font-size="10.00">include/Multiplayer.h</text>
</a>
</g>
</g>
<!-- Node1&#45;&gt;Node8 -->
<g id="edge8" class="edge">
<title>Node1&#45;&gt;Node8</title>
<path fill="none" stroke="midnightblue" d="M318.83,-162.62C333.81,-152.76 353.2,-139.99 365.86,-131.65"/>
<polygon fill="midnightblue" stroke="midnightblue" points="316.6,-159.9 310.17,-168.32 320.45,-165.75 316.6,-159.9"/>
</g>
<!-- Node9 -->
<g id="node9" class="node">
<title>Node9</title>
<g id="a_node9"><a xlink:href="_single_player_8h.html" target="_top" xlink:title="SinglePlayer mode handler.">
<polygon fill="none" stroke="black" points="31.5,-112.5 31.5,-131.5 146.5,-131.5 146.5,-112.5 31.5,-112.5"/>
<text text-anchor="middle" x="89" y="-119.5" font-family="Helvetica,sans-Serif" font-size="10.00">include/SinglePlayer.h</text>
</a>
</g>
</g>
<!-- Node1&#45;&gt;Node9 -->
<g id="edge9" class="edge">
<title>Node1&#45;&gt;Node9</title>
<path fill="none" stroke="midnightblue" d="M254.22,-165.89C214.94,-155.7 157.57,-140.8 121.8,-131.52"/>
<polygon fill="midnightblue" stroke="midnightblue" points="253.48,-169.32 264.04,-168.44 255.24,-162.54 253.48,-169.32"/>
</g>
<!-- Node10 -->
<g id="node10" class="node">
<title>Node10</title>
<g id="a_node10"><a xlink:href="_moves_8c.html" target="_top" xlink:title="Moves contains all the data types and methods used to handle moves.">
<polygon fill="none" stroke="black" points="451,-112.5 451,-131.5 521,-131.5 521,-112.5 451,-112.5"/>
<text text-anchor="middle" x="486" y="-119.5" font-family="Helvetica,sans-Serif" font-size="10.00">src/Moves.c</text>
</a>
</g>
</g>
<!-- Node1&#45;&gt;Node10 -->
<g id="edge13" class="edge">
<title>Node1&#45;&gt;Node10</title>
<path fill="none" stroke="midnightblue" d="M337.01,-165.57C372.67,-155.38 424.04,-140.7 456.19,-131.52"/>
<polygon fill="midnightblue" stroke="midnightblue" points="335.6,-162.33 326.95,-168.44 337.52,-169.06 335.6,-162.33"/>
</g>
<!-- Node3 -->
<g id="node3" class="node">
<title>Node3</title>
<g id="a_node3"><a xlink:href="_minimax_a_i_8h.html" target="_top" xlink:title="Minimax algorithm.">
<polygon fill="none" stroke="black" points="36,-56.5 36,-75.5 142,-75.5 142,-56.5 36,-56.5"/>
<text text-anchor="middle" x="89" y="-63.5" font-family="Helvetica,sans-Serif" font-size="10.00">include/MinimaxAI.h</text>
</a>
</g>
</g>
<!-- Node2&#45;&gt;Node3 -->
<g id="edge2" class="edge">
<title>Node2&#45;&gt;Node3</title>
<path fill="none" stroke="midnightblue" d="M193.87,-108.64C168.34,-98.5 132.89,-84.43 110.45,-75.52"/>
<polygon fill="midnightblue" stroke="midnightblue" points="192.86,-112.01 203.45,-112.44 195.45,-105.5 192.86,-112.01"/>
</g>
<!-- Node5 -->
<g id="node5" class="node">
<title>Node5</title>
<g id="a_node5"><a xlink:href="_single_player_8c.html" target="_top" xlink:title="SinglePlayer mode handler.">
<polygon fill="none" stroke="black" points="0,-0.5 0,-19.5 96,-19.5 96,-0.5 0,-0.5"/>
<text text-anchor="middle" x="48" y="-7.5" font-family="Helvetica,sans-Serif" font-size="10.00">src/SinglePlayer.c</text>
</a>
</g>
</g>
<!-- Node2&#45;&gt;Node5 -->
<g id="edge7" class="edge">
<title>Node2&#45;&gt;Node5</title>
<path fill="none" stroke="midnightblue" d="M209.65,-104.94C195.43,-90.73 173.2,-70.11 151,-56 126.13,-40.19 94.77,-27.38 73.22,-19.52"/>
<polygon fill="midnightblue" stroke="midnightblue" points="207.53,-107.78 217.03,-112.47 212.53,-102.88 207.53,-107.78"/>
</g>
<!-- Node2&#45;&gt;Node6 -->
<g id="edge5" class="edge">
<title>Node2&#45;&gt;Node6</title>
<path fill="none" stroke="midnightblue" d="M252,-108.1C273.11,-98.01 301.86,-84.27 320.18,-75.52"/>
<polygon fill="midnightblue" stroke="midnightblue" points="250.42,-104.97 242.91,-112.44 253.44,-111.29 250.42,-104.97"/>
</g>
<!-- Node7 -->
<g id="node7" class="node">
<title>Node7</title>
<g id="a_node7"><a xlink:href="_multiplayer_8c.html" target="_top" xlink:title="Multiplayer mode handler.">
<polygon fill="none" stroke="black" points="198,-56.5 198,-75.5 286,-75.5 286,-56.5 198,-56.5"/>
<text text-anchor="middle" x="242" y="-63.5" font-family="Helvetica,sans-Serif" font-size="10.00">src/Multiplayer.c</text>
</a>
</g>
</g>
<!-- Node2&#45;&gt;Node7 -->
<g id="edge6" class="edge">
<title>Node2&#45;&gt;Node7</title>
<path fill="none" stroke="midnightblue" d="M230.86,-102.4C233.7,-93.36 236.98,-82.94 239.25,-75.75"/>
<polygon fill="midnightblue" stroke="midnightblue" points="227.47,-101.49 227.81,-112.08 234.15,-103.6 227.47,-101.49"/>
</g>
<!-- Node4 -->
<g id="node4" class="node">
<title>Node4</title>
<g id="a_node4"><a xlink:href="_minimax_a_i_8c.html" target="_top" xlink:title="Minimax algorithm.">
<polygon fill="none" stroke="black" points="114.5,-0.5 114.5,-19.5 219.5,-19.5 219.5,-0.5 114.5,-0.5"/>
<text text-anchor="middle" x="167" y="-7.5" font-family="Helvetica,sans-Serif" font-size="10.00">include/MinimaxAI.c</text>
</a>
</g>
</g>
<!-- Node3&#45;&gt;Node4 -->
<g id="edge3" class="edge">
<title>Node3&#45;&gt;Node4</title>
<path fill="none" stroke="midnightblue" d="M109.77,-50.62C124.02,-40.76 142.46,-27.99 154.5,-19.65"/>
<polygon fill="midnightblue" stroke="midnightblue" points="107.76,-47.75 101.53,-56.32 111.75,-53.51 107.76,-47.75"/>
</g>
<!-- Node3&#45;&gt;Node5 -->
<g id="edge4" class="edge">
<title>Node3&#45;&gt;Node5</title>
<path fill="none" stroke="midnightblue" d="M75.98,-47.86C68.88,-38.5 60.4,-27.33 54.64,-19.75"/>
<polygon fill="midnightblue" stroke="midnightblue" points="73.39,-50.24 82.23,-56.08 78.97,-46 73.39,-50.24"/>
</g>
<!-- Node9&#45;&gt;Node3 -->
<g id="edge10" class="edge">
<title>Node9&#45;&gt;Node3</title>
<path fill="none" stroke="midnightblue" d="M89,-101.8C89,-92.91 89,-82.78 89,-75.75"/>
<polygon fill="midnightblue" stroke="midnightblue" points="85.5,-102.08 89,-112.08 92.5,-102.08 85.5,-102.08"/>
</g>
<!-- Node9&#45;&gt;Node5 -->
<g id="edge11" class="edge">
<title>Node9&#45;&gt;Node5</title>
<path fill="none" stroke="midnightblue" d="M59.9,-107.65C47.37,-100.25 34,-89.73 27,-76 17.3,-56.98 31.63,-32.57 40.98,-19.76"/>
<polygon fill="midnightblue" stroke="midnightblue" points="58.32,-110.78 68.78,-112.49 61.67,-104.63 58.32,-110.78"/>
</g>
</g>
</svg>
