<?xml version="1.0" encoding="UTF-8" standalone="no"?>
<!DOCTYPE svg PUBLIC "-//W3C//DTD SVG 1.1//EN"
 "http://www.w3.org/Graphics/SVG/1.1/DTD/svg11.dtd">
<!-- Generated by graphviz version 2.48.0 (20210717.1556)
 -->
<!-- Title: src/Moves.c Pages: 1 -->
<svg width="260pt" height="252pt"
 viewBox="0.00 0.00 260.00 252.00" xmlns="http://www.w3.org/2000/svg" xmlns:xlink="http://www.w3.org/1999/xlink">
<g id="graph0" class="graph" transform="scale(1 1) rotate(0) translate(4 248)">
<title>src/Moves.c</title>
<!-- Node1 -->
<g id="node1" class="node">
<title>Node1</title>
<g id="a_node1"><a xlink:title="Moves contains all the data types and methods used to handle moves.">
<polygon fill="#bfbfbf" stroke="black" points="54,-224.5 54,-243.5 124,-243.5 124,-224.5 54,-224.5"/>
<text text-anchor="middle" x="89" y="-231.5" font-family="Helvetica,sans-Serif" font-size="10.00">src/Moves.c</text>
</a>
</g>
</g>
<!-- Node2 -->
<g id="node2" class="node">
<title>Node2</title>
<g id="a_node2"><a xlink:title=" ">
<polygon fill="none" stroke="#bfbfbf" points="0,-168.5 0,-187.5 46,-187.5 46,-168.5 0,-168.5"/>
<text text-anchor="middle" x="23" y="-175.5" font-family="Helvetica,sans-Serif" font-size="10.00">stdio.h</text>
</a>
</g>
</g>
<!-- Node1&#45;&gt;Node2 -->
<g id="edge1" class="edge">
<title>Node1&#45;&gt;Node2</title>
<path fill="none" stroke="midnightblue" d="M78.4,-224.32C68.54,-216.26 53.65,-204.08 41.78,-194.37"/>
<polygon fill="midnightblue" stroke="midnightblue" points="43.75,-191.46 33.8,-187.83 39.32,-196.88 43.75,-191.46"/>
</g>
<!-- Node3 -->
<g id="node3" class="node">
<title>Node3</title>
<g id="a_node3"><a xlink:title=" ">
<polygon fill="none" stroke="#bfbfbf" points="64.5,-168.5 64.5,-187.5 113.5,-187.5 113.5,-168.5 64.5,-168.5"/>
<text text-anchor="middle" x="89" y="-175.5" font-family="Helvetica,sans-Serif" font-size="10.00">string.h</text>
</a>
</g>
</g>
<!-- Node1&#45;&gt;Node3 -->
<g id="edge2" class="edge">
<title>Node1&#45;&gt;Node3</title>
<path fill="none" stroke="midnightblue" d="M89,-224.08C89,-217.01 89,-206.86 89,-197.99"/>
<polygon fill="midnightblue" stroke="midnightblue" points="92.5,-197.75 89,-187.75 85.5,-197.75 92.5,-197.75"/>
</g>
<!-- Node4 -->
<g id="node4" class="node">
<title>Node4</title>
<g id="a_node4"><a xlink:href="_moves_8h.html" target="_top" xlink:title="Moves contains all the data types and methods used to handle moves.">
<polygon fill="none" stroke="black" points="132,-168.5 132,-187.5 186,-187.5 186,-168.5 132,-168.5"/>
<text text-anchor="middle" x="159" y="-175.5" font-family="Helvetica,sans-Serif" font-size="10.00">Moves.h</text>
</a>
</g>
</g>
<!-- Node1&#45;&gt;Node4 -->
<g id="edge3" class="edge">
<title>Node1&#45;&gt;Node4</title>
<path fill="none" stroke="midnightblue" d="M100.25,-224.32C110.8,-216.18 126.8,-203.84 139.44,-194.09"/>
<polygon fill="midnightblue" stroke="midnightblue" points="141.77,-196.71 147.55,-187.83 137.49,-191.17 141.77,-196.71"/>
</g>
<!-- Node5 -->
<g id="node5" class="node">
<title>Node5</title>
<g id="a_node5"><a xlink:href="_cell_8h.html" target="_top" xlink:title="Cell struct and methods to handle cells and their towers.">
<polygon fill="none" stroke="black" points="146,-56.5 146,-75.5 188,-75.5 188,-56.5 146,-56.5"/>
<text text-anchor="middle" x="167" y="-63.5" font-family="Helvetica,sans-Serif" font-size="10.00">Cell.h</text>
</a>
</g>
</g>
<!-- Node4&#45;&gt;Node5 -->
<g id="edge4" class="edge">
<title>Node4&#45;&gt;Node5</title>
<path fill="none" stroke="midnightblue" d="M149.68,-168.4C137.62,-156.18 119.04,-132.93 127,-112 131.34,-100.6 140.03,-90.24 148.21,-82.34"/>
<polygon fill="midnightblue" stroke="midnightblue" points="150.64,-84.86 155.73,-75.57 145.96,-79.66 150.64,-84.86"/>
</g>
<!-- Node8 -->
<g id="node8" class="node">
<title>Node8</title>
<g id="a_node8"><a xlink:href="_bool_8h.html" target="_top" xlink:title="Boolean enum.">
<polygon fill="none" stroke="black" points="136.5,-112.5 136.5,-131.5 181.5,-131.5 181.5,-112.5 136.5,-112.5"/>
<text text-anchor="middle" x="159" y="-119.5" font-family="Helvetica,sans-Serif" font-size="10.00">Bool.h</text>
</a>
</g>
</g>
<!-- Node4&#45;&gt;Node8 -->
<g id="edge7" class="edge">
<title>Node4&#45;&gt;Node8</title>
<path fill="none" stroke="midnightblue" d="M159,-168.08C159,-161.01 159,-150.86 159,-141.99"/>
<polygon fill="midnightblue" stroke="midnightblue" points="162.5,-141.75 159,-131.75 155.5,-141.75 162.5,-141.75"/>
</g>
<!-- Node9 -->
<g id="node9" class="node">
<title>Node9</title>
<g id="a_node9"><a xlink:href="_board_8h.html" target="_top" xlink:title="Board struct and methods to handle the board.">
<polygon fill="none" stroke="black" points="200,-112.5 200,-131.5 252,-131.5 252,-112.5 200,-112.5"/>
<text text-anchor="middle" x="226" y="-119.5" font-family="Helvetica,sans-Serif" font-size="10.00">Board.h</text>
</a>
</g>
</g>
<!-- Node4&#45;&gt;Node9 -->
<g id="edge8" class="edge">
<title>Node4&#45;&gt;Node9</title>
<path fill="none" stroke="midnightblue" d="M169.76,-168.32C179.77,-160.26 194.89,-148.08 206.93,-138.37"/>
<polygon fill="midnightblue" stroke="midnightblue" points="209.45,-140.83 215.04,-131.83 205.06,-135.38 209.45,-140.83"/>
</g>
<!-- Node6 -->
<g id="node6" class="node">
<title>Node6</title>
<g id="a_node6"><a xlink:href="_tower_8h.html" target="_top" xlink:title="Data types and methods used to handle a Tower.">
<polygon fill="none" stroke="black" points="107.5,-0.5 107.5,-19.5 158.5,-19.5 158.5,-0.5 107.5,-0.5"/>
<text text-anchor="middle" x="133" y="-7.5" font-family="Helvetica,sans-Serif" font-size="10.00">Tower.h</text>
</a>
</g>
</g>
<!-- Node5&#45;&gt;Node6 -->
<g id="edge5" class="edge">
<title>Node5&#45;&gt;Node6</title>
<path fill="none" stroke="midnightblue" d="M161.39,-56.08C156.63,-48.53 149.68,-37.49 143.85,-28.23"/>
<polygon fill="midnightblue" stroke="midnightblue" points="146.8,-26.35 138.51,-19.75 140.88,-30.08 146.8,-26.35"/>
</g>
<!-- Node7 -->
<g id="node7" class="node">
<title>Node7</title>
<g id="a_node7"><a xlink:title=" ">
<polygon fill="none" stroke="#bfbfbf" points="177,-0.5 177,-19.5 225,-19.5 225,-0.5 177,-0.5"/>
<text text-anchor="middle" x="201" y="-7.5" font-family="Helvetica,sans-Serif" font-size="10.00">stdlib.h</text>
</a>
</g>
</g>
<!-- Node5&#45;&gt;Node7 -->
<g id="edge6" class="edge">
<title>Node5&#45;&gt;Node7</title>
<path fill="none" stroke="midnightblue" d="M172.61,-56.08C177.37,-48.53 184.32,-37.49 190.15,-28.23"/>
<polygon fill="midnightblue" stroke="midnightblue" points="193.12,-30.08 195.49,-19.75 187.2,-26.35 193.12,-30.08"/>
</g>
<!-- Node9&#45;&gt;Node5 -->
<g id="edge9" class="edge">
<title>Node9&#45;&gt;Node5</title>
<path fill="none" stroke="midnightblue" d="M216.52,-112.32C207.8,-104.34 194.66,-92.31 184.1,-82.65"/>
<polygon fill="midnightblue" stroke="midnightblue" points="186.39,-80 176.65,-75.83 181.67,-85.17 186.39,-80"/>
</g>
</g>
</svg>
