<?xml version="1.0" encoding="UTF-8" standalone="no"?>
<!DOCTYPE svg PUBLIC "-//W3C//DTD SVG 1.1//EN"
 "http://www.w3.org/Graphics/SVG/1.1/DTD/svg11.dtd">
<!-- Generated by graphviz version 2.48.0 (20210717.1556)
 -->
<!-- Title: include/Moves.h Pages: 1 -->
<svg width="504pt" height="140pt"
 viewBox="0.00 0.00 504.00 140.00" xmlns="http://www.w3.org/2000/svg" xmlns:xlink="http://www.w3.org/1999/xlink">
<g id="graph0" class="graph" transform="scale(1 1) rotate(0) translate(4 136)">
<title>include/Moves.h</title>
<!-- Node1 -->
<g id="node1" class="node">
<title>Node1</title>
<g id="a_node1"><a xlink:title="Moves contains all the data types and methods used to handle moves.">
<polygon fill="#bfbfbf" stroke="black" points="176.5,-112.5 176.5,-131.5 265.5,-131.5 265.5,-112.5 176.5,-112.5"/>
<text text-anchor="middle" x="221" y="-119.5" font-family="Helvetica,sans-Serif" font-size="10.00">include/Moves.h</text>
</a>
</g>
</g>
<!-- Node2 -->
<g id="node2" class="node">
<title>Node2</title>
<g id="a_node2"><a xlink:href="_game_8h.html" target="_top" xlink:title="Methods to handle a game.">
<polygon fill="none" stroke="black" points="62.5,-56.5 62.5,-75.5 149.5,-75.5 149.5,-56.5 62.5,-56.5"/>
<text text-anchor="middle" x="106" y="-63.5" font-family="Helvetica,sans-Serif" font-size="10.00">include/Game.h</text>
</a>
</g>
</g>
<!-- Node1&#45;&gt;Node2 -->
<g id="edge1" class="edge">
<title>Node1&#45;&gt;Node2</title>
<path fill="none" stroke="midnightblue" d="M193.52,-108.1C172.03,-98.01 142.78,-84.27 124.14,-75.52"/>
<polygon fill="midnightblue" stroke="midnightblue" points="192.24,-111.36 202.78,-112.44 195.21,-105.02 192.24,-111.36"/>
</g>
<!-- Node3 -->
<g id="node3" class="node">
<title>Node3</title>
<g id="a_node3"><a xlink:href="_game_8c.html" target="_top" xlink:title="Methods to handle a game.">
<polygon fill="none" stroke="black" points="0,-0.5 0,-19.5 68,-19.5 68,-0.5 0,-0.5"/>
<text text-anchor="middle" x="34" y="-7.5" font-family="Helvetica,sans-Serif" font-size="10.00">src/Game.c</text>
</a>
</g>
</g>
<!-- Node1&#45;&gt;Node3 -->
<g id="edge8" class="edge">
<title>Node1&#45;&gt;Node3</title>
<path fill="none" stroke="midnightblue" d="M166.2,-119.74C129.61,-116 82.9,-105.23 53,-76 37.53,-60.88 34.48,-33.91 33.99,-19.94"/>
<polygon fill="midnightblue" stroke="midnightblue" points="165.96,-123.23 176.22,-120.61 166.57,-116.26 165.96,-123.23"/>
</g>
<!-- Node6 -->
<g id="node6" class="node">
<title>Node6</title>
<g id="a_node6"><a xlink:href="_multiplayer_8h.html" target="_top" xlink:title="Multiplayer mode handler.">
<polygon fill="none" stroke="black" points="167.5,-56.5 167.5,-75.5 274.5,-75.5 274.5,-56.5 167.5,-56.5"/>
<text text-anchor="middle" x="221" y="-63.5" font-family="Helvetica,sans-Serif" font-size="10.00">include/Multiplayer.h</text>
</a>
</g>
</g>
<!-- Node1&#45;&gt;Node6 -->
<g id="edge5" class="edge">
<title>Node1&#45;&gt;Node6</title>
<path fill="none" stroke="midnightblue" d="M221,-101.8C221,-92.91 221,-82.78 221,-75.75"/>
<polygon fill="midnightblue" stroke="midnightblue" points="217.5,-102.08 221,-112.08 224.5,-102.08 217.5,-102.08"/>
</g>
<!-- Node7 -->
<g id="node7" class="node">
<title>Node7</title>
<g id="a_node7"><a xlink:href="_single_player_8h.html" target="_top" xlink:title="SinglePlayer mode handler.">
<polygon fill="none" stroke="black" points="292.5,-56.5 292.5,-75.5 407.5,-75.5 407.5,-56.5 292.5,-56.5"/>
<text text-anchor="middle" x="350" y="-63.5" font-family="Helvetica,sans-Serif" font-size="10.00">include/SinglePlayer.h</text>
</a>
</g>
</g>
<!-- Node1&#45;&gt;Node7 -->
<g id="edge6" class="edge">
<title>Node1&#45;&gt;Node7</title>
<path fill="none" stroke="midnightblue" d="M250.85,-108.5C275.04,-98.38 308.46,-84.39 329.66,-75.52"/>
<polygon fill="midnightblue" stroke="midnightblue" points="249.31,-105.35 241.44,-112.44 252.02,-111.81 249.31,-105.35"/>
</g>
<!-- Node8 -->
<g id="node8" class="node">
<title>Node8</title>
<g id="a_node8"><a xlink:href="_moves_8c.html" target="_top" xlink:title="Moves contains all the data types and methods used to handle moves.">
<polygon fill="none" stroke="black" points="426,-56.5 426,-75.5 496,-75.5 496,-56.5 426,-56.5"/>
<text text-anchor="middle" x="461" y="-63.5" font-family="Helvetica,sans-Serif" font-size="10.00">src/Moves.c</text>
</a>
</g>
</g>
<!-- Node1&#45;&gt;Node8 -->
<g id="edge9" class="edge">
<title>Node1&#45;&gt;Node8</title>
<path fill="none" stroke="midnightblue" d="M268.84,-110.24C315.2,-99.81 384.4,-84.23 425.88,-74.9"/>
<polygon fill="midnightblue" stroke="midnightblue" points="268.02,-106.83 259.03,-112.44 269.55,-113.66 268.02,-106.83"/>
</g>
<!-- Node2&#45;&gt;Node3 -->
<g id="edge2" class="edge">
<title>Node2&#45;&gt;Node3</title>
<path fill="none" stroke="midnightblue" d="M86.13,-50.1C73.18,-40.38 56.7,-28.03 45.78,-19.83"/>
<polygon fill="midnightblue" stroke="midnightblue" points="84.33,-53.12 94.43,-56.32 88.53,-47.52 84.33,-53.12"/>
</g>
<!-- Node4 -->
<g id="node4" class="node">
<title>Node4</title>
<g id="a_node4"><a xlink:href="_multiplayer_8c.html" target="_top" xlink:title="Multiplayer mode handler.">
<polygon fill="none" stroke="black" points="86,-0.5 86,-19.5 174,-19.5 174,-0.5 86,-0.5"/>
<text text-anchor="middle" x="130" y="-7.5" font-family="Helvetica,sans-Serif" font-size="10.00">src/Multiplayer.c</text>
</a>
</g>
</g>
<!-- Node2&#45;&gt;Node4 -->
<g id="edge3" class="edge">
<title>Node2&#45;&gt;Node4</title>
<path fill="none" stroke="midnightblue" d="M114.14,-46.69C118.18,-37.59 122.88,-27.01 126.11,-19.75"/>
<polygon fill="midnightblue" stroke="midnightblue" points="110.83,-45.52 109.96,-56.08 117.22,-48.37 110.83,-45.52"/>
</g>
<!-- Node5 -->
<g id="node5" class="node">
<title>Node5</title>
<g id="a_node5"><a xlink:href="_single_player_8c.html" target="_top" xlink:title="SinglePlayer mode handler.">
<polygon fill="none" stroke="black" points="247,-0.5 247,-19.5 343,-19.5 343,-0.5 247,-0.5"/>
<text text-anchor="middle" x="295" y="-7.5" font-family="Helvetica,sans-Serif" font-size="10.00">src/SinglePlayer.c</text>
</a>
</g>
</g>
<!-- Node2&#45;&gt;Node5 -->
<g id="edge4" class="edge">
<title>Node2&#45;&gt;Node5</title>
<path fill="none" stroke="midnightblue" d="M146.01,-53.57C181.67,-43.38 233.04,-28.7 265.19,-19.52"/>
<polygon fill="midnightblue" stroke="midnightblue" points="144.6,-50.33 135.95,-56.44 146.52,-57.06 144.6,-50.33"/>
</g>
<!-- Node7&#45;&gt;Node5 -->
<g id="edge7" class="edge">
<title>Node7&#45;&gt;Node5</title>
<path fill="none" stroke="midnightblue" d="M333.71,-49C323.96,-39.43 311.95,-27.64 303.91,-19.75"/>
<polygon fill="midnightblue" stroke="midnightblue" points="331.33,-51.57 340.92,-56.08 336.23,-46.58 331.33,-51.57"/>
</g>
</g>
</svg>
