<?xml version="1.0" encoding="UTF-8" standalone="no"?>
<!DOCTYPE svg PUBLIC "-//W3C//DTD SVG 1.1//EN"
 "http://www.w3.org/Graphics/SVG/1.1/DTD/svg11.dtd">
<!-- Generated by graphviz version 2.48.0 (20210717.1556)
 -->
<!-- Title: src/Multiplayer.c Pages: 1 -->
<svg width="248pt" height="308pt"
 viewBox="0.00 0.00 247.50 308.00" xmlns="http://www.w3.org/2000/svg" xmlns:xlink="http://www.w3.org/1999/xlink">
<g id="graph0" class="graph" transform="scale(1 1) rotate(0) translate(4 304)">
<title>src/Multiplayer.c</title>
<!-- Node1 -->
<g id="node1" class="node">
<title>Node1</title>
<g id="a_node1"><a xlink:title="Multiplayer mode handler.">
<polygon fill="#bfbfbf" stroke="black" points="30,-280.5 30,-299.5 118,-299.5 118,-280.5 30,-280.5"/>
<text text-anchor="middle" x="74" y="-287.5" font-family="Helvetica,sans-Serif" font-size="10.00">src/Multiplayer.c</text>
</a>
</g>
</g>
<!-- Node2 -->
<g id="node2" class="node">
<title>Node2</title>
<g id="a_node2"><a xlink:title=" ">
<polygon fill="none" stroke="#bfbfbf" points="0,-224.5 0,-243.5 46,-243.5 46,-224.5 0,-224.5"/>
<text text-anchor="middle" x="23" y="-231.5" font-family="Helvetica,sans-Serif" font-size="10.00">stdio.h</text>
</a>
</g>
</g>
<!-- Node1&#45;&gt;Node2 -->
<g id="edge1" class="edge">
<title>Node1&#45;&gt;Node2</title>
<path fill="none" stroke="midnightblue" d="M65.58,-280.08C58.15,-272.22 47.15,-260.57 38.19,-251.08"/>
<polygon fill="midnightblue" stroke="midnightblue" points="40.68,-248.62 31.26,-243.75 35.59,-253.42 40.68,-248.62"/>
</g>
<!-- Node3 -->
<g id="node3" class="node">
<title>Node3</title>
<g id="a_node3"><a xlink:href="_board_8h.html" target="_top" xlink:title="Board struct and methods to handle the board.">
<polygon fill="none" stroke="black" points="86,-112.5 86,-131.5 138,-131.5 138,-112.5 86,-112.5"/>
<text text-anchor="middle" x="112" y="-119.5" font-family="Helvetica,sans-Serif" font-size="10.00">Board.h</text>
</a>
</g>
</g>
<!-- Node1&#45;&gt;Node3 -->
<g id="edge2" class="edge">
<title>Node1&#45;&gt;Node3</title>
<path fill="none" stroke="midnightblue" d="M76.04,-280.08C82.02,-253.95 99.59,-177.21 107.75,-141.58"/>
<polygon fill="midnightblue" stroke="midnightblue" points="111.22,-142.1 110.04,-131.57 104.4,-140.53 111.22,-142.1"/>
</g>
<!-- Node7 -->
<g id="node7" class="node">
<title>Node7</title>
<g id="a_node7"><a xlink:href="_game_8h.html" target="_top" xlink:title="Methods to handle a game.">
<polygon fill="none" stroke="black" points="102,-224.5 102,-243.5 154,-243.5 154,-224.5 102,-224.5"/>
<text text-anchor="middle" x="128" y="-231.5" font-family="Helvetica,sans-Serif" font-size="10.00">Game.h</text>
</a>
</g>
</g>
<!-- Node1&#45;&gt;Node7 -->
<g id="edge6" class="edge">
<title>Node1&#45;&gt;Node7</title>
<path fill="none" stroke="midnightblue" d="M82.92,-280.08C90.78,-272.22 102.43,-260.57 111.92,-251.08"/>
<polygon fill="midnightblue" stroke="midnightblue" points="114.65,-253.3 119.25,-243.75 109.7,-248.35 114.65,-253.3"/>
</g>
<!-- Node4 -->
<g id="node4" class="node">
<title>Node4</title>
<g id="a_node4"><a xlink:href="_cell_8h.html" target="_top" xlink:title="Cell struct and methods to handle cells and their towers.">
<polygon fill="none" stroke="black" points="118,-56.5 118,-75.5 160,-75.5 160,-56.5 118,-56.5"/>
<text text-anchor="middle" x="139" y="-63.5" font-family="Helvetica,sans-Serif" font-size="10.00">Cell.h</text>
</a>
</g>
</g>
<!-- Node3&#45;&gt;Node4 -->
<g id="edge3" class="edge">
<title>Node3&#45;&gt;Node4</title>
<path fill="none" stroke="midnightblue" d="M116.46,-112.08C120.15,-104.69 125.52,-93.95 130.09,-84.81"/>
<polygon fill="midnightblue" stroke="midnightblue" points="133.28,-86.26 134.62,-75.75 127.02,-83.13 133.28,-86.26"/>
</g>
<!-- Node5 -->
<g id="node5" class="node">
<title>Node5</title>
<g id="a_node5"><a xlink:href="_tower_8h.html" target="_top" xlink:title="Data types and methods used to handle a Tower.">
<polygon fill="none" stroke="black" points="79.5,-0.5 79.5,-19.5 130.5,-19.5 130.5,-0.5 79.5,-0.5"/>
<text text-anchor="middle" x="105" y="-7.5" font-family="Helvetica,sans-Serif" font-size="10.00">Tower.h</text>
</a>
</g>
</g>
<!-- Node4&#45;&gt;Node5 -->
<g id="edge4" class="edge">
<title>Node4&#45;&gt;Node5</title>
<path fill="none" stroke="midnightblue" d="M133.39,-56.08C128.63,-48.53 121.68,-37.49 115.85,-28.23"/>
<polygon fill="midnightblue" stroke="midnightblue" points="118.8,-26.35 110.51,-19.75 112.88,-30.08 118.8,-26.35"/>
</g>
<!-- Node6 -->
<g id="node6" class="node">
<title>Node6</title>
<g id="a_node6"><a xlink:title=" ">
<polygon fill="none" stroke="#bfbfbf" points="149,-0.5 149,-19.5 197,-19.5 197,-0.5 149,-0.5"/>
<text text-anchor="middle" x="173" y="-7.5" font-family="Helvetica,sans-Serif" font-size="10.00">stdlib.h</text>
</a>
</g>
</g>
<!-- Node4&#45;&gt;Node6 -->
<g id="edge5" class="edge">
<title>Node4&#45;&gt;Node6</title>
<path fill="none" stroke="midnightblue" d="M144.61,-56.08C149.37,-48.53 156.32,-37.49 162.15,-28.23"/>
<polygon fill="midnightblue" stroke="midnightblue" points="165.12,-30.08 167.49,-19.75 159.2,-26.35 165.12,-30.08"/>
</g>
<!-- Node7&#45;&gt;Node3 -->
<g id="edge7" class="edge">
<title>Node7&#45;&gt;Node3</title>
<path fill="none" stroke="midnightblue" d="M126.74,-224.37C124.16,-206.62 118.21,-165.67 114.71,-141.6"/>
<polygon fill="midnightblue" stroke="midnightblue" points="118.15,-140.98 113.25,-131.59 111.23,-141.99 118.15,-140.98"/>
</g>
<!-- Node8 -->
<g id="node8" class="node">
<title>Node8</title>
<g id="a_node8"><a xlink:href="_moves_8h.html" target="_top" xlink:title="Moves contains all the data types and methods used to handle moves.">
<polygon fill="none" stroke="black" points="140,-168.5 140,-187.5 194,-187.5 194,-168.5 140,-168.5"/>
<text text-anchor="middle" x="167" y="-175.5" font-family="Helvetica,sans-Serif" font-size="10.00">Moves.h</text>
</a>
</g>
</g>
<!-- Node7&#45;&gt;Node8 -->
<g id="edge8" class="edge">
<title>Node7&#45;&gt;Node8</title>
<path fill="none" stroke="midnightblue" d="M134.44,-224.08C139.95,-216.46 148.03,-205.26 154.76,-195.94"/>
<polygon fill="midnightblue" stroke="midnightblue" points="157.66,-197.91 160.68,-187.75 151.99,-193.81 157.66,-197.91"/>
</g>
<!-- Node8&#45;&gt;Node3 -->
<g id="edge11" class="edge">
<title>Node8&#45;&gt;Node3</title>
<path fill="none" stroke="midnightblue" d="M157.92,-168.08C149.83,-160.14 137.8,-148.34 128.09,-138.8"/>
<polygon fill="midnightblue" stroke="midnightblue" points="130.5,-136.26 120.91,-131.75 125.6,-141.25 130.5,-136.26"/>
</g>
<!-- Node8&#45;&gt;Node4 -->
<g id="edge9" class="edge">
<title>Node8&#45;&gt;Node4</title>
<path fill="none" stroke="midnightblue" d="M164.8,-168.37C160.28,-150.62 149.86,-109.67 143.73,-85.6"/>
<polygon fill="midnightblue" stroke="midnightblue" points="147.05,-84.42 141.19,-75.59 140.26,-86.15 147.05,-84.42"/>
</g>
<!-- Node9 -->
<g id="node9" class="node">
<title>Node9</title>
<g id="a_node9"><a xlink:href="_bool_8h.html" target="_top" xlink:title="Boolean enum.">
<polygon fill="none" stroke="black" points="194.5,-112.5 194.5,-131.5 239.5,-131.5 239.5,-112.5 194.5,-112.5"/>
<text text-anchor="middle" x="217" y="-119.5" font-family="Helvetica,sans-Serif" font-size="10.00">Bool.h</text>
</a>
</g>
</g>
<!-- Node8&#45;&gt;Node9 -->
<g id="edge10" class="edge">
<title>Node8&#45;&gt;Node9</title>
<path fill="none" stroke="midnightblue" d="M175.26,-168.08C182.46,-160.3 193.11,-148.8 201.85,-139.37"/>
<polygon fill="midnightblue" stroke="midnightblue" points="204.67,-141.47 208.9,-131.75 199.53,-136.71 204.67,-141.47"/>
</g>
</g>
</svg>
