<?xml version="1.0" encoding="UTF-8" standalone="no"?>
<!DOCTYPE svg PUBLIC "-//W3C//DTD SVG 1.1//EN"
 "http://www.w3.org/Graphics/SVG/1.1/DTD/svg11.dtd">
<!-- Generated by graphviz version 2.48.0 (20210717.1556)
 -->
<!-- Title: include/SinglePlayer.h Pages: 1 -->
<svg width="228pt" height="140pt"
 viewBox="0.00 0.00 227.50 140.00" xmlns="http://www.w3.org/2000/svg" xmlns:xlink="http://www.w3.org/1999/xlink">
<g id="graph0" class="graph" transform="scale(1 1) rotate(0) translate(4 136)">
<title>include/SinglePlayer.h</title>
<!-- Node1 -->
<g id="node1" class="node">
<title>Node1</title>
<g id="a_node1"><a xlink:title="SinglePlayer mode handler.">
<polygon fill="#bfbfbf" stroke="black" points="73,-112.5 73,-131.5 188,-131.5 188,-112.5 73,-112.5"/>
<text text-anchor="middle" x="130.5" y="-119.5" font-family="Helvetica,sans-Serif" font-size="10.00">include/SinglePlayer.h</text>
</a>
</g>
</g>
<!-- Node2 -->
<g id="node2" class="node">
<title>Node2</title>
<g id="a_node2"><a xlink:href="_minimax_a_i_8h.html" target="_top" xlink:title="Minimax algorithm.">
<polygon fill="none" stroke="black" points="37.5,-56.5 37.5,-75.5 143.5,-75.5 143.5,-56.5 37.5,-56.5"/>
<text text-anchor="middle" x="90.5" y="-63.5" font-family="Helvetica,sans-Serif" font-size="10.00">include/MinimaxAI.h</text>
</a>
</g>
</g>
<!-- Node1&#45;&gt;Node2 -->
<g id="edge1" class="edge">
<title>Node1&#45;&gt;Node2</title>
<path fill="none" stroke="midnightblue" d="M117.8,-103.86C110.87,-94.5 102.59,-83.33 96.98,-75.75"/>
<polygon fill="midnightblue" stroke="midnightblue" points="115.13,-106.13 123.89,-112.08 120.75,-101.96 115.13,-106.13"/>
</g>
<!-- Node4 -->
<g id="node4" class="node">
<title>Node4</title>
<g id="a_node4"><a xlink:href="_single_player_8c.html" target="_top" xlink:title="SinglePlayer mode handler.">
<polygon fill="none" stroke="black" points="123.5,-0.5 123.5,-19.5 219.5,-19.5 219.5,-0.5 123.5,-0.5"/>
<text text-anchor="middle" x="171.5" y="-7.5" font-family="Helvetica,sans-Serif" font-size="10.00">src/SinglePlayer.c</text>
</a>
</g>
</g>
<!-- Node1&#45;&gt;Node4 -->
<g id="edge4" class="edge">
<title>Node1&#45;&gt;Node4</title>
<path fill="none" stroke="midnightblue" d="M140.02,-103.3C144.19,-95.14 148.93,-85.22 152.5,-76 160.14,-56.27 166.43,-32.15 169.49,-19.57"/>
<polygon fill="midnightblue" stroke="midnightblue" points="136.88,-101.75 135.34,-112.24 143.08,-105 136.88,-101.75"/>
</g>
<!-- Node3 -->
<g id="node3" class="node">
<title>Node3</title>
<g id="a_node3"><a xlink:href="_minimax_a_i_8c.html" target="_top" xlink:title="Minimax algorithm.">
<polygon fill="none" stroke="black" points="0,-0.5 0,-19.5 105,-19.5 105,-0.5 0,-0.5"/>
<text text-anchor="middle" x="52.5" y="-7.5" font-family="Helvetica,sans-Serif" font-size="10.00">include/MinimaxAI.c</text>
</a>
</g>
</g>
<!-- Node2&#45;&gt;Node3 -->
<g id="edge2" class="edge">
<title>Node2&#45;&gt;Node3</title>
<path fill="none" stroke="midnightblue" d="M78.44,-47.86C71.86,-38.5 63.99,-27.33 58.66,-19.75"/>
<polygon fill="midnightblue" stroke="midnightblue" points="75.61,-49.92 84.23,-56.08 81.33,-45.89 75.61,-49.92"/>
</g>
<!-- Node2&#45;&gt;Node4 -->
<g id="edge3" class="edge">
<title>Node2&#45;&gt;Node4</title>
<path fill="none" stroke="midnightblue" d="M112.07,-50.62C126.86,-40.76 146.01,-27.99 158.52,-19.65"/>
<polygon fill="midnightblue" stroke="midnightblue" points="109.89,-47.86 103.51,-56.32 113.78,-53.69 109.89,-47.86"/>
</g>
</g>
</svg>
