<?xml version="1.0" encoding="UTF-8" standalone="no"?>
<!DOCTYPE svg PUBLIC "-//W3C//DTD SVG 1.1//EN"
 "http://www.w3.org/Graphics/SVG/1.1/DTD/svg11.dtd">
<!-- Generated by graphviz version 2.48.0 (20210717.1556)
 -->
<!-- Title: src/SinglePlayer.c Pages: 1 -->
<svg width="368pt" height="308pt"
 viewBox="0.00 0.00 368.35 308.00" xmlns="http://www.w3.org/2000/svg" xmlns:xlink="http://www.w3.org/1999/xlink">
<g id="graph0" class="graph" transform="scale(1 1) rotate(0) translate(4 304)">
<title>src/SinglePlayer.c</title>
<!-- Node1 -->
<g id="node1" class="node">
<title>Node1</title>
<g id="a_node1"><a xlink:title="SinglePlayer mode handler.">
<polygon fill="#bfbfbf" stroke="black" points="116.53,-280.5 116.53,-299.5 212.53,-299.5 212.53,-280.5 116.53,-280.5"/>
<text text-anchor="middle" x="164.53" y="-287.5" font-family="Helvetica,sans-Serif" font-size="10.00">src/SinglePlayer.c</text>
</a>
</g>
</g>
<!-- Node2 -->
<g id="node2" class="node">
<title>Node2</title>
<g id="a_node2"><a xlink:title=" ">
<polygon fill="none" stroke="#bfbfbf" points="65.53,-0.5 65.53,-19.5 113.53,-19.5 113.53,-0.5 65.53,-0.5"/>
<text text-anchor="middle" x="89.53" y="-7.5" font-family="Helvetica,sans-Serif" font-size="10.00">stdlib.h</text>
</a>
</g>
</g>
<!-- Node1&#45;&gt;Node2 -->
<g id="edge1" class="edge">
<title>Node1&#45;&gt;Node2</title>
<path fill="none" stroke="midnightblue" d="M116.42,-285.61C84.89,-280.9 44.94,-269.84 19.53,-244 -1.58,-222.54 0.53,-209.1 0.53,-179 0.53,-179 0.53,-179 0.53,-121 0.53,-78.85 40.52,-43.78 66.88,-25.24"/>
<polygon fill="midnightblue" stroke="midnightblue" points="68.9,-28.1 75.23,-19.6 64.98,-22.3 68.9,-28.1"/>
</g>
<!-- Node3 -->
<g id="node3" class="node">
<title>Node3</title>
<g id="a_node3"><a xlink:title=" ">
<polygon fill="none" stroke="#bfbfbf" points="28.53,-224.5 28.53,-243.5 72.53,-243.5 72.53,-224.5 28.53,-224.5"/>
<text text-anchor="middle" x="50.53" y="-231.5" font-family="Helvetica,sans-Serif" font-size="10.00">time.h</text>
</a>
</g>
</g>
<!-- Node1&#45;&gt;Node3 -->
<g id="edge2" class="edge">
<title>Node1&#45;&gt;Node3</title>
<path fill="none" stroke="midnightblue" d="M146.46,-280.44C127.95,-271.68 98.95,-257.94 77.67,-247.86"/>
<polygon fill="midnightblue" stroke="midnightblue" points="79.04,-244.63 68.51,-243.52 76.04,-250.96 79.04,-244.63"/>
</g>
<!-- Node4 -->
<g id="node4" class="node">
<title>Node4</title>
<g id="a_node4"><a xlink:title=" ">
<polygon fill="none" stroke="#bfbfbf" points="90.53,-224.5 90.53,-243.5 136.53,-243.5 136.53,-224.5 90.53,-224.5"/>
<text text-anchor="middle" x="113.53" y="-231.5" font-family="Helvetica,sans-Serif" font-size="10.00">stdio.h</text>
</a>
</g>
</g>
<!-- Node1&#45;&gt;Node4 -->
<g id="edge3" class="edge">
<title>Node1&#45;&gt;Node4</title>
<path fill="none" stroke="midnightblue" d="M156.1,-280.08C148.68,-272.22 137.67,-260.57 128.71,-251.08"/>
<polygon fill="midnightblue" stroke="midnightblue" points="131.2,-248.62 121.79,-243.75 126.11,-253.42 131.2,-248.62"/>
</g>
<!-- Node5 -->
<g id="node5" class="node">
<title>Node5</title>
<g id="a_node5"><a xlink:href="_single_player_8h.html" target="_top" xlink:title="SinglePlayer mode handler.">
<polygon fill="none" stroke="black" points="192.53,-224.5 192.53,-243.5 272.53,-243.5 272.53,-224.5 192.53,-224.5"/>
<text text-anchor="middle" x="232.53" y="-231.5" font-family="Helvetica,sans-Serif" font-size="10.00">SinglePlayer.h</text>
</a>
</g>
</g>
<!-- Node1&#45;&gt;Node5 -->
<g id="edge4" class="edge">
<title>Node1&#45;&gt;Node5</title>
<path fill="none" stroke="midnightblue" d="M175.45,-280.32C185.7,-272.18 201.25,-259.84 213.53,-250.09"/>
<polygon fill="midnightblue" stroke="midnightblue" points="215.75,-252.79 221.4,-243.83 211.39,-247.31 215.75,-252.79"/>
</g>
<!-- Node9 -->
<g id="node9" class="node">
<title>Node9</title>
<g id="a_node9"><a xlink:href="_bool_8h.html" target="_top" xlink:title="Boolean enum.">
<polygon fill="none" stroke="black" points="158.03,-112.5 158.03,-131.5 203.03,-131.5 203.03,-112.5 158.03,-112.5"/>
<text text-anchor="middle" x="180.53" y="-119.5" font-family="Helvetica,sans-Serif" font-size="10.00">Bool.h</text>
</a>
</g>
</g>
<!-- Node1&#45;&gt;Node9 -->
<g id="edge13" class="edge">
<title>Node1&#45;&gt;Node9</title>
<path fill="none" stroke="midnightblue" d="M165.39,-280.08C167.91,-253.95 175.3,-177.21 178.74,-141.58"/>
<polygon fill="midnightblue" stroke="midnightblue" points="182.22,-141.86 179.7,-131.57 175.26,-141.19 182.22,-141.86"/>
</g>
<!-- Node10 -->
<g id="node10" class="node">
<title>Node10</title>
<g id="a_node10"><a xlink:href="_board_8h.html" target="_top" xlink:title="Board struct and methods to handle the board.">
<polygon fill="none" stroke="black" points="272.53,-112.5 272.53,-131.5 324.53,-131.5 324.53,-112.5 272.53,-112.5"/>
<text text-anchor="middle" x="298.53" y="-119.5" font-family="Helvetica,sans-Serif" font-size="10.00">Board.h</text>
</a>
</g>
</g>
<!-- Node1&#45;&gt;Node10 -->
<g id="edge12" class="edge">
<title>Node1&#45;&gt;Node10</title>
<path fill="none" stroke="midnightblue" d="M212.6,-284.13C262.16,-278 334.53,-265.57 351.53,-244 377.53,-211 339.18,-163.28 315.26,-138.79"/>
<polygon fill="midnightblue" stroke="midnightblue" points="317.68,-136.26 308.11,-131.71 312.75,-141.23 317.68,-136.26"/>
</g>
<!-- Node11 -->
<g id="node11" class="node">
<title>Node11</title>
<g id="a_node11"><a xlink:href="_game_8h.html" target="_top" xlink:title="Methods to handle a game.">
<polygon fill="none" stroke="black" points="290.53,-224.5 290.53,-243.5 342.53,-243.5 342.53,-224.5 290.53,-224.5"/>
<text text-anchor="middle" x="316.53" y="-231.5" font-family="Helvetica,sans-Serif" font-size="10.00">Game.h</text>
</a>
</g>
</g>
<!-- Node1&#45;&gt;Node11 -->
<g id="edge14" class="edge">
<title>Node1&#45;&gt;Node11</title>
<path fill="none" stroke="midnightblue" d="M188.61,-280.44C214.07,-271.4 254.42,-257.06 282.99,-246.92"/>
<polygon fill="midnightblue" stroke="midnightblue" points="284.3,-250.16 292.55,-243.52 281.96,-243.57 284.3,-250.16"/>
</g>
<!-- Node6 -->
<g id="node6" class="node">
<title>Node6</title>
<g id="a_node6"><a xlink:href="_moves_8h.html" target="_top" xlink:title="Moves contains all the data types and methods used to handle moves.">
<polygon fill="none" stroke="black" points="212.53,-168.5 212.53,-187.5 266.53,-187.5 266.53,-168.5 212.53,-168.5"/>
<text text-anchor="middle" x="239.53" y="-175.5" font-family="Helvetica,sans-Serif" font-size="10.00">Moves.h</text>
</a>
</g>
</g>
<!-- Node5&#45;&gt;Node6 -->
<g id="edge5" class="edge">
<title>Node5&#45;&gt;Node6</title>
<path fill="none" stroke="midnightblue" d="M233.68,-224.08C234.61,-216.93 235.94,-206.64 237.1,-197.69"/>
<polygon fill="midnightblue" stroke="midnightblue" points="240.58,-198.12 238.39,-187.75 233.64,-197.22 240.58,-198.12"/>
</g>
<!-- Node7 -->
<g id="node7" class="node">
<title>Node7</title>
<g id="a_node7"><a xlink:href="_cell_8h.html" target="_top" xlink:title="Cell struct and methods to handle cells and their towers.">
<polygon fill="none" stroke="black" points="218.53,-56.5 218.53,-75.5 260.53,-75.5 260.53,-56.5 218.53,-56.5"/>
<text text-anchor="middle" x="239.53" y="-63.5" font-family="Helvetica,sans-Serif" font-size="10.00">Cell.h</text>
</a>
</g>
</g>
<!-- Node6&#45;&gt;Node7 -->
<g id="edge6" class="edge">
<title>Node6&#45;&gt;Node7</title>
<path fill="none" stroke="midnightblue" d="M239.53,-168.37C239.53,-150.62 239.53,-109.67 239.53,-85.6"/>
<polygon fill="midnightblue" stroke="midnightblue" points="243.03,-85.59 239.53,-75.59 236.03,-85.59 243.03,-85.59"/>
</g>
<!-- Node6&#45;&gt;Node9 -->
<g id="edge9" class="edge">
<title>Node6&#45;&gt;Node9</title>
<path fill="none" stroke="midnightblue" d="M230.05,-168.32C221.33,-160.34 208.18,-148.31 197.63,-138.65"/>
<polygon fill="midnightblue" stroke="midnightblue" points="199.92,-136 190.18,-131.83 195.19,-141.17 199.92,-136"/>
</g>
<!-- Node6&#45;&gt;Node10 -->
<g id="edge10" class="edge">
<title>Node6&#45;&gt;Node10</title>
<path fill="none" stroke="midnightblue" d="M249.01,-168.32C257.73,-160.34 270.87,-148.31 281.42,-138.65"/>
<polygon fill="midnightblue" stroke="midnightblue" points="283.86,-141.17 288.87,-131.83 279.13,-136 283.86,-141.17"/>
</g>
<!-- Node7&#45;&gt;Node2 -->
<g id="edge8" class="edge">
<title>Node7&#45;&gt;Node2</title>
<path fill="none" stroke="midnightblue" d="M218.35,-57.38C193.58,-48.46 152.23,-33.57 123.07,-23.08"/>
<polygon fill="midnightblue" stroke="midnightblue" points="123.91,-19.66 113.31,-19.56 121.54,-26.24 123.91,-19.66"/>
</g>
<!-- Node8 -->
<g id="node8" class="node">
<title>Node8</title>
<g id="a_node8"><a xlink:href="_tower_8h.html" target="_top" xlink:title="Data types and methods used to handle a Tower.">
<polygon fill="none" stroke="black" points="214.03,-0.5 214.03,-19.5 265.03,-19.5 265.03,-0.5 214.03,-0.5"/>
<text text-anchor="middle" x="239.53" y="-7.5" font-family="Helvetica,sans-Serif" font-size="10.00">Tower.h</text>
</a>
</g>
</g>
<!-- Node7&#45;&gt;Node8 -->
<g id="edge7" class="edge">
<title>Node7&#45;&gt;Node8</title>
<path fill="none" stroke="midnightblue" d="M239.53,-56.08C239.53,-49.01 239.53,-38.86 239.53,-29.99"/>
<polygon fill="midnightblue" stroke="midnightblue" points="243.03,-29.75 239.53,-19.75 236.03,-29.75 243.03,-29.75"/>
</g>
<!-- Node10&#45;&gt;Node7 -->
<g id="edge11" class="edge">
<title>Node10&#45;&gt;Node7</title>
<path fill="none" stroke="midnightblue" d="M289.05,-112.32C280.33,-104.34 267.18,-92.31 256.63,-82.65"/>
<polygon fill="midnightblue" stroke="midnightblue" points="258.92,-80 249.18,-75.83 254.19,-85.17 258.92,-80"/>
</g>
<!-- Node11&#45;&gt;Node6 -->
<g id="edge16" class="edge">
<title>Node11&#45;&gt;Node6</title>
<path fill="none" stroke="midnightblue" d="M304.16,-224.32C292.37,-216.06 274.39,-203.45 260.39,-193.63"/>
<polygon fill="midnightblue" stroke="midnightblue" points="262.06,-190.53 251.87,-187.65 258.04,-196.26 262.06,-190.53"/>
</g>
<!-- Node11&#45;&gt;Node10 -->
<g id="edge15" class="edge">
<title>Node11&#45;&gt;Node10</title>
<path fill="none" stroke="midnightblue" d="M315.11,-224.37C312.21,-206.62 305.51,-165.67 301.57,-141.6"/>
<polygon fill="midnightblue" stroke="midnightblue" points="305,-140.89 299.93,-131.59 298.09,-142.03 305,-140.89"/>
</g>
</g>
</svg>
