<?xml version="1.0" encoding="UTF-8" standalone="no"?>
<!DOCTYPE svg PUBLIC "-//W3C//DTD SVG 1.1//EN"
 "http://www.w3.org/Graphics/SVG/1.1/DTD/svg11.dtd">
<!-- Generated by graphviz version 2.48.0 (20210717.1556)
 -->
<!-- Title: src/SinglePlayer.c Pages: 1 -->
<svg width="548pt" height="364pt"
 viewBox="0.00 0.00 547.72 364.00" xmlns="http://www.w3.org/2000/svg" xmlns:xlink="http://www.w3.org/1999/xlink">
<g id="graph0" class="graph" transform="scale(1 1) rotate(0) translate(4 360)">
<title>src/SinglePlayer.c</title>
<!-- Node1 -->
<g id="node1" class="node">
<title>Node1</title>
<g id="a_node1"><a xlink:title="SinglePlayer mode handler.">
<polygon fill="#bfbfbf" stroke="black" points="288,-336.5 288,-355.5 384,-355.5 384,-336.5 288,-336.5"/>
<text text-anchor="middle" x="336" y="-343.5" font-family="Helvetica,sans-Serif" font-size="10.00">src/SinglePlayer.c</text>
</a>
</g>
</g>
<!-- Node2 -->
<g id="node2" class="node">
<title>Node2</title>
<g id="a_node2"><a xlink:title=" ">
<polygon fill="none" stroke="#bfbfbf" points="52,-0.5 52,-19.5 100,-19.5 100,-0.5 52,-0.5"/>
<text text-anchor="middle" x="76" y="-7.5" font-family="Helvetica,sans-Serif" font-size="10.00">stdlib.h</text>
</a>
</g>
</g>
<!-- Node1&#45;&gt;Node2 -->
<g id="edge1" class="edge">
<title>Node1&#45;&gt;Node2</title>
<path fill="none" stroke="midnightblue" d="M287.86,-339.43C194.95,-327.34 0,-294.85 0,-235 0,-235 0,-235 0,-121 0,-81.28 33.96,-45.5 56.48,-26.15"/>
<polygon fill="midnightblue" stroke="midnightblue" points="58.98,-28.63 64.46,-19.57 54.52,-23.24 58.98,-28.63"/>
</g>
<!-- Node3 -->
<g id="node3" class="node">
<title>Node3</title>
<g id="a_node3"><a xlink:title=" ">
<polygon fill="none" stroke="#bfbfbf" points="414,-224.5 414,-243.5 458,-243.5 458,-224.5 414,-224.5"/>
<text text-anchor="middle" x="436" y="-231.5" font-family="Helvetica,sans-Serif" font-size="10.00">time.h</text>
</a>
</g>
</g>
<!-- Node1&#45;&gt;Node3 -->
<g id="edge2" class="edge">
<title>Node1&#45;&gt;Node3</title>
<path fill="none" stroke="midnightblue" d="M343.85,-336.37C360.57,-317.97 399.94,-274.67 421.41,-251.05"/>
<polygon fill="midnightblue" stroke="midnightblue" points="424.05,-253.35 428.19,-243.59 418.87,-248.64 424.05,-253.35"/>
</g>
<!-- Node4 -->
<g id="node4" class="node">
<title>Node4</title>
<g id="a_node4"><a xlink:title=" ">
<polygon fill="none" stroke="#bfbfbf" points="476,-224.5 476,-243.5 522,-243.5 522,-224.5 476,-224.5"/>
<text text-anchor="middle" x="499" y="-231.5" font-family="Helvetica,sans-Serif" font-size="10.00">stdio.h</text>
</a>
</g>
</g>
<!-- Node1&#45;&gt;Node4 -->
<g id="edge3" class="edge">
<title>Node1&#45;&gt;Node4</title>
<path fill="none" stroke="midnightblue" d="M348.79,-336.37C376.76,-317.49 443.6,-272.38 477.9,-249.24"/>
<polygon fill="midnightblue" stroke="midnightblue" points="479.94,-252.09 486.27,-243.59 476.02,-246.28 479.94,-252.09"/>
</g>
<!-- Node5 -->
<g id="node5" class="node">
<title>Node5</title>
<g id="a_node5"><a xlink:href="_single_player_8h.html" target="_top" xlink:title="SinglePlayer mode handler.">
<polygon fill="none" stroke="black" points="104,-224.5 104,-243.5 184,-243.5 184,-224.5 104,-224.5"/>
<text text-anchor="middle" x="144" y="-231.5" font-family="Helvetica,sans-Serif" font-size="10.00">SinglePlayer.h</text>
</a>
</g>
</g>
<!-- Node1&#45;&gt;Node5 -->
<g id="edge4" class="edge">
<title>Node1&#45;&gt;Node5</title>
<path fill="none" stroke="midnightblue" d="M320.84,-336.39C304.93,-327.35 279.19,-312.7 257,-300 226.1,-282.31 190.5,-261.82 167.65,-248.64"/>
<polygon fill="midnightblue" stroke="midnightblue" points="169.39,-245.6 158.98,-243.64 165.89,-251.67 169.39,-245.6"/>
</g>
<!-- Node9 -->
<g id="node9" class="node">
<title>Node9</title>
<g id="a_node9"><a xlink:href="_bool_8h.html" target="_top" xlink:title="Boolean enum.">
<polygon fill="none" stroke="black" points="137.5,-112.5 137.5,-131.5 182.5,-131.5 182.5,-112.5 137.5,-112.5"/>
<text text-anchor="middle" x="160" y="-119.5" font-family="Helvetica,sans-Serif" font-size="10.00">Bool.h</text>
</a>
</g>
</g>
<!-- Node1&#45;&gt;Node9 -->
<g id="edge13" class="edge">
<title>Node1&#45;&gt;Node9</title>
<path fill="none" stroke="midnightblue" d="M287.85,-340.54C230.47,-332.34 137.08,-309.17 95,-244 71.44,-207.51 114.32,-161.69 141.01,-138.29"/>
<polygon fill="midnightblue" stroke="midnightblue" points="143.32,-140.92 148.69,-131.78 138.8,-135.58 143.32,-140.92"/>
</g>
<!-- Node10 -->
<g id="node10" class="node">
<title>Node10</title>
<g id="a_node10"><a xlink:href="_board_8h.html" target="_top" xlink:title="Board struct and methods to handle the board.">
<polygon fill="none" stroke="black" points="244,-112.5 244,-131.5 296,-131.5 296,-112.5 244,-112.5"/>
<text text-anchor="middle" x="270" y="-119.5" font-family="Helvetica,sans-Serif" font-size="10.00">Board.h</text>
</a>
</g>
</g>
<!-- Node1&#45;&gt;Node10 -->
<g id="edge12" class="edge">
<title>Node1&#45;&gt;Node10</title>
<path fill="none" stroke="midnightblue" d="M381.44,-336.46C451.3,-321.21 572.84,-285.05 531,-224 479.93,-149.48 365.37,-129.93 306.48,-124.81"/>
<polygon fill="midnightblue" stroke="midnightblue" points="306.4,-121.29 296.16,-124.01 305.86,-128.27 306.4,-121.29"/>
</g>
<!-- Node11 -->
<g id="node11" class="node">
<title>Node11</title>
<g id="a_node11"><a xlink:href="_game_8h.html" target="_top" xlink:title="Methods to handle a game.">
<polygon fill="none" stroke="black" points="344,-224.5 344,-243.5 396,-243.5 396,-224.5 344,-224.5"/>
<text text-anchor="middle" x="370" y="-231.5" font-family="Helvetica,sans-Serif" font-size="10.00">Game.h</text>
</a>
</g>
</g>
<!-- Node1&#45;&gt;Node11 -->
<g id="edge14" class="edge">
<title>Node1&#45;&gt;Node11</title>
<path fill="none" stroke="midnightblue" d="M338.67,-336.37C344.18,-318.54 356.93,-277.3 364.35,-253.27"/>
<polygon fill="midnightblue" stroke="midnightblue" points="367.74,-254.18 367.34,-243.59 361.05,-252.11 367.74,-254.18"/>
</g>
<!-- Node12 -->
<g id="node12" class="node">
<title>Node12</title>
<g id="a_node12"><a xlink:href="_minimax_a_i_8h.html" target="_top" xlink:title="Minimax algorithm.">
<polygon fill="none" stroke="black" points="266,-280.5 266,-299.5 338,-299.5 338,-280.5 266,-280.5"/>
<text text-anchor="middle" x="302" y="-287.5" font-family="Helvetica,sans-Serif" font-size="10.00">MinimaxAI.h</text>
</a>
</g>
</g>
<!-- Node1&#45;&gt;Node12 -->
<g id="edge17" class="edge">
<title>Node1&#45;&gt;Node12</title>
<path fill="none" stroke="midnightblue" d="M330.39,-336.08C325.63,-328.53 318.68,-317.49 312.85,-308.23"/>
<polygon fill="midnightblue" stroke="midnightblue" points="315.8,-306.35 307.51,-299.75 309.88,-310.08 315.8,-306.35"/>
</g>
<!-- Node6 -->
<g id="node6" class="node">
<title>Node6</title>
<g id="a_node6"><a xlink:href="_moves_8h.html" target="_top" xlink:title="Moves contains all the data types and methods used to handle moves.">
<polygon fill="none" stroke="black" points="188,-168.5 188,-187.5 242,-187.5 242,-168.5 188,-168.5"/>
<text text-anchor="middle" x="215" y="-175.5" font-family="Helvetica,sans-Serif" font-size="10.00">Moves.h</text>
</a>
</g>
</g>
<!-- Node5&#45;&gt;Node6 -->
<g id="edge5" class="edge">
<title>Node5&#45;&gt;Node6</title>
<path fill="none" stroke="midnightblue" d="M155.41,-224.32C166.11,-216.18 182.34,-203.84 195.16,-194.09"/>
<polygon fill="midnightblue" stroke="midnightblue" points="197.54,-196.67 203.39,-187.83 193.31,-191.1 197.54,-196.67"/>
</g>
<!-- Node7 -->
<g id="node7" class="node">
<title>Node7</title>
<g id="a_node7"><a xlink:href="_cell_8h.html" target="_top" xlink:title="Cell struct and methods to handle cells and their towers.">
<polygon fill="none" stroke="black" points="194,-56.5 194,-75.5 236,-75.5 236,-56.5 194,-56.5"/>
<text text-anchor="middle" x="215" y="-63.5" font-family="Helvetica,sans-Serif" font-size="10.00">Cell.h</text>
</a>
</g>
</g>
<!-- Node6&#45;&gt;Node7 -->
<g id="edge6" class="edge">
<title>Node6&#45;&gt;Node7</title>
<path fill="none" stroke="midnightblue" d="M215,-168.37C215,-150.62 215,-109.67 215,-85.6"/>
<polygon fill="midnightblue" stroke="midnightblue" points="218.5,-85.59 215,-75.59 211.5,-85.59 218.5,-85.59"/>
</g>
<!-- Node6&#45;&gt;Node9 -->
<g id="edge9" class="edge">
<title>Node6&#45;&gt;Node9</title>
<path fill="none" stroke="midnightblue" d="M205.92,-168.08C197.83,-160.14 185.8,-148.34 176.09,-138.8"/>
<polygon fill="midnightblue" stroke="midnightblue" points="178.5,-136.26 168.91,-131.75 173.6,-141.25 178.5,-136.26"/>
</g>
<!-- Node6&#45;&gt;Node10 -->
<g id="edge10" class="edge">
<title>Node6&#45;&gt;Node10</title>
<path fill="none" stroke="midnightblue" d="M224.08,-168.08C232.17,-160.14 244.2,-148.34 253.91,-138.8"/>
<polygon fill="midnightblue" stroke="midnightblue" points="256.4,-141.25 261.09,-131.75 251.5,-136.26 256.4,-141.25"/>
</g>
<!-- Node7&#45;&gt;Node2 -->
<g id="edge8" class="edge">
<title>Node7&#45;&gt;Node2</title>
<path fill="none" stroke="midnightblue" d="M193.89,-56.8C170.99,-47.9 134.18,-33.6 107.79,-23.35"/>
<polygon fill="midnightblue" stroke="midnightblue" points="108.82,-20 98.23,-19.64 106.29,-26.52 108.82,-20"/>
</g>
<!-- Node8 -->
<g id="node8" class="node">
<title>Node8</title>
<g id="a_node8"><a xlink:href="_tower_8h.html" target="_top" xlink:title="Data types and methods used to handle a Tower.">
<polygon fill="none" stroke="black" points="189.5,-0.5 189.5,-19.5 240.5,-19.5 240.5,-0.5 189.5,-0.5"/>
<text text-anchor="middle" x="215" y="-7.5" font-family="Helvetica,sans-Serif" font-size="10.00">Tower.h</text>
</a>
</g>
</g>
<!-- Node7&#45;&gt;Node8 -->
<g id="edge7" class="edge">
<title>Node7&#45;&gt;Node8</title>
<path fill="none" stroke="midnightblue" d="M215,-56.08C215,-49.01 215,-38.86 215,-29.99"/>
<polygon fill="midnightblue" stroke="midnightblue" points="218.5,-29.75 215,-19.75 211.5,-29.75 218.5,-29.75"/>
</g>
<!-- Node10&#45;&gt;Node7 -->
<g id="edge11" class="edge">
<title>Node10&#45;&gt;Node7</title>
<path fill="none" stroke="midnightblue" d="M260.92,-112.08C252.83,-104.14 240.8,-92.34 231.09,-82.8"/>
<polygon fill="midnightblue" stroke="midnightblue" points="233.5,-80.26 223.91,-75.75 228.6,-85.25 233.5,-80.26"/>
</g>
<!-- Node11&#45;&gt;Node6 -->
<g id="edge16" class="edge">
<title>Node11&#45;&gt;Node6</title>
<path fill="none" stroke="midnightblue" d="M345.44,-224.44C319.48,-215.4 278.33,-201.06 249.2,-190.92"/>
<polygon fill="midnightblue" stroke="midnightblue" points="250.04,-187.5 239.45,-187.52 247.74,-194.11 250.04,-187.5"/>
</g>
<!-- Node11&#45;&gt;Node10 -->
<g id="edge15" class="edge">
<title>Node11&#45;&gt;Node10</title>
<path fill="none" stroke="midnightblue" d="M362.15,-224.37C345.43,-205.97 306.06,-162.67 284.59,-139.05"/>
<polygon fill="midnightblue" stroke="midnightblue" points="287.13,-136.64 277.81,-131.59 281.95,-141.35 287.13,-136.64"/>
</g>
<!-- Node12&#45;&gt;Node2 -->
<g id="edge18" class="edge">
<title>Node12&#45;&gt;Node2</title>
<path fill="none" stroke="midnightblue" d="M265.81,-285.57C213.26,-279.86 119.41,-266.76 95,-244 72.98,-223.48 76,-209.1 76,-179 76,-179 76,-179 76,-121 76,-88.95 76,-51.64 76,-29.75"/>
<polygon fill="midnightblue" stroke="midnightblue" points="79.5,-29.56 76,-19.56 72.5,-29.56 79.5,-29.56"/>
</g>
<!-- Node12&#45;&gt;Node3 -->
<g id="edge19" class="edge">
<title>Node12&#45;&gt;Node3</title>
<path fill="none" stroke="midnightblue" d="M323.23,-280.44C345.38,-271.52 380.32,-257.44 405.44,-247.32"/>
<polygon fill="midnightblue" stroke="midnightblue" points="406.9,-250.5 414.87,-243.52 404.28,-244.01 406.9,-250.5"/>
</g>
<!-- Node12&#45;&gt;Node4 -->
<g id="edge20" class="edge">
<title>Node12&#45;&gt;Node4</title>
<path fill="none" stroke="midnightblue" d="M333.65,-280.45C364.94,-271.98 414.41,-258.53 466.23,-244.2"/>
<polygon fill="midnightblue" stroke="midnightblue" points="467.23,-247.55 475.93,-241.51 465.36,-240.81 467.23,-247.55"/>
</g>
<!-- Node12&#45;&gt;Node5 -->
<g id="edge22" class="edge">
<title>Node12&#45;&gt;Node5</title>
<path fill="none" stroke="midnightblue" d="M276.96,-280.44C250.38,-271.36 208.19,-256.94 178.48,-246.78"/>
<polygon fill="midnightblue" stroke="midnightblue" points="179.51,-243.44 168.92,-243.52 177.25,-250.06 179.51,-243.44"/>
</g>
<!-- Node12&#45;&gt;Node9 -->
<g id="edge24" class="edge">
<title>Node12&#45;&gt;Node9</title>
<path fill="none" stroke="midnightblue" d="M286.22,-280.34C259.98,-265.13 207.48,-231.11 179,-188 169.79,-174.05 164.95,-155.55 162.46,-141.85"/>
<polygon fill="midnightblue" stroke="midnightblue" points="165.88,-141.03 160.89,-131.68 158.96,-142.1 165.88,-141.03"/>
</g>
<!-- Node12&#45;&gt;Node10 -->
<g id="edge23" class="edge">
<title>Node12&#45;&gt;Node10</title>
<path fill="none" stroke="midnightblue" d="M292.98,-280.34C284.93,-271.93 273.7,-258.36 269,-244 257.66,-209.36 262.15,-166.09 266.22,-141.8"/>
<polygon fill="midnightblue" stroke="midnightblue" points="269.7,-142.27 268.06,-131.8 262.81,-141 269.7,-142.27"/>
</g>
<!-- Node12&#45;&gt;Node11 -->
<g id="edge25" class="edge">
<title>Node12&#45;&gt;Node11</title>
<path fill="none" stroke="midnightblue" d="M312.93,-280.32C323.17,-272.18 338.72,-259.84 351,-250.09"/>
<polygon fill="midnightblue" stroke="midnightblue" points="353.22,-252.79 358.88,-243.83 348.87,-247.31 353.22,-252.79"/>
</g>
<!-- Node13 -->
<g id="node13" class="node">
<title>Node13</title>
<g id="a_node13"><a xlink:title=" ">
<polygon fill="none" stroke="#bfbfbf" points="278.5,-224.5 278.5,-243.5 325.5,-243.5 325.5,-224.5 278.5,-224.5"/>
<text text-anchor="middle" x="302" y="-231.5" font-family="Helvetica,sans-Serif" font-size="10.00">math.h</text>
</a>
</g>
</g>
<!-- Node12&#45;&gt;Node13 -->
<g id="edge21" class="edge">
<title>Node12&#45;&gt;Node13</title>
<path fill="none" stroke="midnightblue" d="M302,-280.08C302,-273.01 302,-262.86 302,-253.99"/>
<polygon fill="midnightblue" stroke="midnightblue" points="305.5,-253.75 302,-243.75 298.5,-253.75 305.5,-253.75"/>
</g>
</g>
</svg>
