<?xml version="1.0" encoding="UTF-8" standalone="no"?>
<!DOCTYPE svg PUBLIC "-//W3C//DTD SVG 1.1//EN"
 "http://www.w3.org/Graphics/SVG/1.1/DTD/svg11.dtd">
<!-- Generated by graphviz version 2.48.0 (20210717.1556)
 -->
<!-- Title: include/SinglePlayer.h Pages: 1 -->
<svg width="159pt" height="252pt"
 viewBox="0.00 0.00 158.50 252.00" xmlns="http://www.w3.org/2000/svg" xmlns:xlink="http://www.w3.org/1999/xlink">
<g id="graph0" class="graph" transform="scale(1 1) rotate(0) translate(4 248)">
<title>include/SinglePlayer.h</title>
<!-- Node1 -->
<g id="node1" class="node">
<title>Node1</title>
<g id="a_node1"><a xlink:title="SinglePlayer mode handler.">
<polygon fill="#bfbfbf" stroke="black" points="0,-224.5 0,-243.5 115,-243.5 115,-224.5 0,-224.5"/>
<text text-anchor="middle" x="57.5" y="-231.5" font-family="Helvetica,sans-Serif" font-size="10.00">include/SinglePlayer.h</text>
</a>
</g>
</g>
<!-- Node2 -->
<g id="node2" class="node">
<title>Node2</title>
<g id="a_node2"><a xlink:href="_moves_8h.html" target="_top" xlink:title="Moves contains all the data types and methods used to handle moves.">
<polygon fill="none" stroke="black" points="30.5,-168.5 30.5,-187.5 84.5,-187.5 84.5,-168.5 30.5,-168.5"/>
<text text-anchor="middle" x="57.5" y="-175.5" font-family="Helvetica,sans-Serif" font-size="10.00">Moves.h</text>
</a>
</g>
</g>
<!-- Node1&#45;&gt;Node2 -->
<g id="edge1" class="edge">
<title>Node1&#45;&gt;Node2</title>
<path fill="none" stroke="midnightblue" d="M57.5,-224.08C57.5,-217.01 57.5,-206.86 57.5,-197.99"/>
<polygon fill="midnightblue" stroke="midnightblue" points="61,-197.75 57.5,-187.75 54,-197.75 61,-197.75"/>
</g>
<!-- Node3 -->
<g id="node3" class="node">
<title>Node3</title>
<g id="a_node3"><a xlink:href="_cell_8h.html" target="_top" xlink:title="Cell struct and methods to handle cells and their towers.">
<polygon fill="none" stroke="black" points="44.5,-56.5 44.5,-75.5 86.5,-75.5 86.5,-56.5 44.5,-56.5"/>
<text text-anchor="middle" x="65.5" y="-63.5" font-family="Helvetica,sans-Serif" font-size="10.00">Cell.h</text>
</a>
</g>
</g>
<!-- Node2&#45;&gt;Node3 -->
<g id="edge2" class="edge">
<title>Node2&#45;&gt;Node3</title>
<path fill="none" stroke="midnightblue" d="M48.18,-168.4C36.12,-156.18 17.54,-132.93 25.5,-112 29.84,-100.6 38.53,-90.24 46.71,-82.34"/>
<polygon fill="midnightblue" stroke="midnightblue" points="49.14,-84.86 54.23,-75.57 44.46,-79.66 49.14,-84.86"/>
</g>
<!-- Node6 -->
<g id="node6" class="node">
<title>Node6</title>
<g id="a_node6"><a xlink:href="_bool_8h.html" target="_top" xlink:title="Boolean enum.">
<polygon fill="none" stroke="black" points="35,-112.5 35,-131.5 80,-131.5 80,-112.5 35,-112.5"/>
<text text-anchor="middle" x="57.5" y="-119.5" font-family="Helvetica,sans-Serif" font-size="10.00">Bool.h</text>
</a>
</g>
</g>
<!-- Node2&#45;&gt;Node6 -->
<g id="edge5" class="edge">
<title>Node2&#45;&gt;Node6</title>
<path fill="none" stroke="midnightblue" d="M57.5,-168.08C57.5,-161.01 57.5,-150.86 57.5,-141.99"/>
<polygon fill="midnightblue" stroke="midnightblue" points="61,-141.75 57.5,-131.75 54,-141.75 61,-141.75"/>
</g>
<!-- Node7 -->
<g id="node7" class="node">
<title>Node7</title>
<g id="a_node7"><a xlink:href="_board_8h.html" target="_top" xlink:title="Board struct and methods to handle the board.">
<polygon fill="none" stroke="black" points="98.5,-112.5 98.5,-131.5 150.5,-131.5 150.5,-112.5 98.5,-112.5"/>
<text text-anchor="middle" x="124.5" y="-119.5" font-family="Helvetica,sans-Serif" font-size="10.00">Board.h</text>
</a>
</g>
</g>
<!-- Node2&#45;&gt;Node7 -->
<g id="edge6" class="edge">
<title>Node2&#45;&gt;Node7</title>
<path fill="none" stroke="midnightblue" d="M68.26,-168.32C78.27,-160.26 93.39,-148.08 105.43,-138.37"/>
<polygon fill="midnightblue" stroke="midnightblue" points="107.95,-140.83 113.54,-131.83 103.56,-135.38 107.95,-140.83"/>
</g>
<!-- Node4 -->
<g id="node4" class="node">
<title>Node4</title>
<g id="a_node4"><a xlink:href="_tower_8h.html" target="_top" xlink:title="Data types and methods used to handle a Tower.">
<polygon fill="none" stroke="black" points="6,-0.5 6,-19.5 57,-19.5 57,-0.5 6,-0.5"/>
<text text-anchor="middle" x="31.5" y="-7.5" font-family="Helvetica,sans-Serif" font-size="10.00">Tower.h</text>
</a>
</g>
</g>
<!-- Node3&#45;&gt;Node4 -->
<g id="edge3" class="edge">
<title>Node3&#45;&gt;Node4</title>
<path fill="none" stroke="midnightblue" d="M59.89,-56.08C55.13,-48.53 48.18,-37.49 42.35,-28.23"/>
<polygon fill="midnightblue" stroke="midnightblue" points="45.3,-26.35 37.01,-19.75 39.38,-30.08 45.3,-26.35"/>
</g>
<!-- Node5 -->
<g id="node5" class="node">
<title>Node5</title>
<g id="a_node5"><a xlink:title=" ">
<polygon fill="none" stroke="#bfbfbf" points="75.5,-0.5 75.5,-19.5 123.5,-19.5 123.5,-0.5 75.5,-0.5"/>
<text text-anchor="middle" x="99.5" y="-7.5" font-family="Helvetica,sans-Serif" font-size="10.00">stdlib.h</text>
</a>
</g>
</g>
<!-- Node3&#45;&gt;Node5 -->
<g id="edge4" class="edge">
<title>Node3&#45;&gt;Node5</title>
<path fill="none" stroke="midnightblue" d="M71.11,-56.08C75.87,-48.53 82.82,-37.49 88.65,-28.23"/>
<polygon fill="midnightblue" stroke="midnightblue" points="91.62,-30.08 93.99,-19.75 85.7,-26.35 91.62,-30.08"/>
</g>
<!-- Node7&#45;&gt;Node3 -->
<g id="edge7" class="edge">
<title>Node7&#45;&gt;Node3</title>
<path fill="none" stroke="midnightblue" d="M115.02,-112.32C106.3,-104.34 93.16,-92.31 82.6,-82.65"/>
<polygon fill="midnightblue" stroke="midnightblue" points="84.89,-80 75.15,-75.83 80.17,-85.17 84.89,-80"/>
</g>
</g>
</svg>
