<?xml version="1.0" encoding="UTF-8" standalone="no"?>
<!DOCTYPE svg PUBLIC "-//W3C//DTD SVG 1.1//EN"
 "http://www.w3.org/Graphics/SVG/1.1/DTD/svg11.dtd">
<!-- Generated by graphviz version 2.48.0 (20210717.1556)
 -->
<!-- Title: include/Tower.h Pages: 1 -->
<svg width="751pt" height="308pt"
 viewBox="0.00 0.00 750.50 308.00" xmlns="http://www.w3.org/2000/svg" xmlns:xlink="http://www.w3.org/1999/xlink">
<g id="graph0" class="graph" transform="scale(1 1) rotate(0) translate(4 304)">
<title>include/Tower.h</title>
<!-- Node1 -->
<g id="node1" class="node">
<title>Node1</title>
<g id="a_node1"><a xlink:title="Data types and methods used to handle a Tower.">
<polygon fill="#bfbfbf" stroke="black" points="584.5,-280.5 584.5,-299.5 669.5,-299.5 669.5,-280.5 584.5,-280.5"/>
<text text-anchor="middle" x="627" y="-287.5" font-family="Helvetica,sans-Serif" font-size="10.00">include/Tower.h</text>
</a>
</g>
</g>
<!-- Node2 -->
<g id="node2" class="node">
<title>Node2</title>
<g id="a_node2"><a xlink:href="_cell_8h.html" target="_top" xlink:title="Cell struct and methods to handle cells and their towers.">
<polygon fill="none" stroke="black" points="463.5,-224.5 463.5,-243.5 540.5,-243.5 540.5,-224.5 463.5,-224.5"/>
<text text-anchor="middle" x="502" y="-231.5" font-family="Helvetica,sans-Serif" font-size="10.00">include/Cell.h</text>
</a>
</g>
</g>
<!-- Node1&#45;&gt;Node2 -->
<g id="edge1" class="edge">
<title>Node1&#45;&gt;Node2</title>
<path fill="none" stroke="midnightblue" d="M597.76,-276.37C574.35,-266.26 542.16,-252.35 521.71,-243.52"/>
<polygon fill="midnightblue" stroke="midnightblue" points="596.63,-279.69 607.19,-280.44 599.4,-273.26 596.63,-279.69"/>
</g>
<!-- Node12 -->
<g id="node12" class="node">
<title>Node12</title>
<g id="a_node12"><a xlink:href="_board_8c.html" target="_top" xlink:title="Board struct and methods to handle the board.">
<polygon fill="none" stroke="black" points="610.5,-112.5 610.5,-131.5 677.5,-131.5 677.5,-112.5 610.5,-112.5"/>
<text text-anchor="middle" x="644" y="-119.5" font-family="Helvetica,sans-Serif" font-size="10.00">src/Board.c</text>
</a>
</g>
</g>
<!-- Node1&#45;&gt;Node12 -->
<g id="edge22" class="edge">
<title>Node1&#45;&gt;Node12</title>
<path fill="none" stroke="midnightblue" d="M628.95,-269.93C632.64,-233.92 640.49,-157.23 643.12,-131.57"/>
<polygon fill="midnightblue" stroke="midnightblue" points="625.45,-269.77 627.91,-280.08 632.41,-270.48 625.45,-269.77"/>
</g>
<!-- Node13 -->
<g id="node13" class="node">
<title>Node13</title>
<g id="a_node13"><a xlink:href="_cell_8c.html" target="_top" xlink:title="Cell struct and methods to handle cells and their towers.">
<polygon fill="none" stroke="black" points="561,-168.5 561,-187.5 619,-187.5 619,-168.5 561,-168.5"/>
<text text-anchor="middle" x="590" y="-175.5" font-family="Helvetica,sans-Serif" font-size="10.00">src/Cell.c</text>
</a>
</g>
</g>
<!-- Node1&#45;&gt;Node13 -->
<g id="edge23" class="edge">
<title>Node1&#45;&gt;Node13</title>
<path fill="none" stroke="midnightblue" d="M620.84,-270.67C612.75,-246.62 598.88,-205.39 592.89,-187.59"/>
<polygon fill="midnightblue" stroke="midnightblue" points="617.59,-272.01 624.1,-280.37 624.23,-269.77 617.59,-272.01"/>
</g>
<!-- Node14 -->
<g id="node14" class="node">
<title>Node14</title>
<g id="a_node14"><a xlink:href="_tower_8c.html" target="_top" xlink:title="Data types and methods used to handle a Tower.">
<polygon fill="none" stroke="black" points="675.5,-224.5 675.5,-243.5 742.5,-243.5 742.5,-224.5 675.5,-224.5"/>
<text text-anchor="middle" x="709" y="-231.5" font-family="Helvetica,sans-Serif" font-size="10.00">src/Tower.c</text>
</a>
</g>
</g>
<!-- Node1&#45;&gt;Node14 -->
<g id="edge24" class="edge">
<title>Node1&#45;&gt;Node14</title>
<path fill="none" stroke="midnightblue" d="M648.83,-274.62C663.81,-264.76 683.2,-251.99 695.86,-243.65"/>
<polygon fill="midnightblue" stroke="midnightblue" points="646.6,-271.9 640.17,-280.32 650.45,-277.75 646.6,-271.9"/>
</g>
<!-- Node3 -->
<g id="node3" class="node">
<title>Node3</title>
<g id="a_node3"><a xlink:href="_board_8h.html" target="_top" xlink:title="Board struct and methods to handle the board.">
<polygon fill="none" stroke="black" points="419,-168.5 419,-187.5 505,-187.5 505,-168.5 419,-168.5"/>
<text text-anchor="middle" x="462" y="-175.5" font-family="Helvetica,sans-Serif" font-size="10.00">include/Board.h</text>
</a>
</g>
</g>
<!-- Node2&#45;&gt;Node3 -->
<g id="edge2" class="edge">
<title>Node2&#45;&gt;Node3</title>
<path fill="none" stroke="midnightblue" d="M489.3,-215.86C482.37,-206.5 474.09,-195.33 468.48,-187.75"/>
<polygon fill="midnightblue" stroke="midnightblue" points="486.63,-218.13 495.39,-224.08 492.25,-213.96 486.63,-218.13"/>
</g>
<!-- Node5 -->
<g id="node5" class="node">
<title>Node5</title>
<g id="a_node5"><a xlink:href="_game_8c.html" target="_top" xlink:title="Methods to handle a game.">
<polygon fill="none" stroke="black" points="0,-0.5 0,-19.5 68,-19.5 68,-0.5 0,-0.5"/>
<text text-anchor="middle" x="34" y="-7.5" font-family="Helvetica,sans-Serif" font-size="10.00">src/Game.c</text>
</a>
</g>
</g>
<!-- Node2&#45;&gt;Node5 -->
<g id="edge21" class="edge">
<title>Node2&#45;&gt;Node5</title>
<path fill="none" stroke="midnightblue" d="M453.26,-225.99C377.99,-213.91 230.13,-185.22 115,-132 75.6,-113.79 55.34,-114.34 35,-76 25.37,-57.85 28.93,-32.66 31.79,-19.61"/>
<polygon fill="midnightblue" stroke="midnightblue" points="452.96,-229.48 463.39,-227.58 454.05,-222.57 452.96,-229.48"/>
</g>
<!-- Node8 -->
<g id="node8" class="node">
<title>Node8</title>
<g id="a_node8"><a xlink:href="_moves_8h.html" target="_top" xlink:title="Moves contains all the data types and methods used to handle moves.">
<polygon fill="none" stroke="black" points="308.5,-112.5 308.5,-131.5 397.5,-131.5 397.5,-112.5 308.5,-112.5"/>
<text text-anchor="middle" x="353" y="-119.5" font-family="Helvetica,sans-Serif" font-size="10.00">include/Moves.h</text>
</a>
</g>
</g>
<!-- Node2&#45;&gt;Node8 -->
<g id="edge18" class="edge">
<title>Node2&#45;&gt;Node8</title>
<path fill="none" stroke="midnightblue" d="M468.82,-220.56C450.47,-212.78 427.84,-201.64 410,-188 388.06,-171.22 368.21,-144.98 358.78,-131.55"/>
<polygon fill="midnightblue" stroke="midnightblue" points="467.67,-223.87 478.25,-224.42 470.32,-217.39 467.67,-223.87"/>
</g>
<!-- Node2&#45;&gt;Node12 -->
<g id="edge19" class="edge">
<title>Node2&#45;&gt;Node12</title>
<path fill="none" stroke="midnightblue" d="M512.2,-215.6C521.23,-201.37 535.52,-181.47 552,-168 572.24,-151.46 599.57,-139.08 619.18,-131.53"/>
<polygon fill="midnightblue" stroke="midnightblue" points="509.05,-214.04 506.83,-224.4 515.03,-217.69 509.05,-214.04"/>
</g>
<!-- Node2&#45;&gt;Node13 -->
<g id="edge20" class="edge">
<title>Node2&#45;&gt;Node13</title>
<path fill="none" stroke="midnightblue" d="M524.98,-218.9C541.11,-209 562.18,-196.07 575.9,-187.65"/>
<polygon fill="midnightblue" stroke="midnightblue" points="522.83,-216.11 516.14,-224.32 526.49,-222.08 522.83,-216.11"/>
</g>
<!-- Node4 -->
<g id="node4" class="node">
<title>Node4</title>
<g id="a_node4"><a xlink:href="_game_8h.html" target="_top" xlink:title="Methods to handle a game.">
<polygon fill="none" stroke="black" points="428.5,-56.5 428.5,-75.5 515.5,-75.5 515.5,-56.5 428.5,-56.5"/>
<text text-anchor="middle" x="472" y="-63.5" font-family="Helvetica,sans-Serif" font-size="10.00">include/Game.h</text>
</a>
</g>
</g>
<!-- Node3&#45;&gt;Node4 -->
<g id="edge3" class="edge">
<title>Node3&#45;&gt;Node4</title>
<path fill="none" stroke="midnightblue" d="M463.7,-158.35C465.89,-134.25 469.61,-93.31 471.22,-75.59"/>
<polygon fill="midnightblue" stroke="midnightblue" points="460.2,-158.09 462.78,-168.37 467.18,-158.73 460.2,-158.09"/>
</g>
<!-- Node3&#45;&gt;Node5 -->
<g id="edge15" class="edge">
<title>Node3&#45;&gt;Node5</title>
<path fill="none" stroke="midnightblue" d="M408.81,-170.82C309.27,-158.18 100.32,-126.27 50,-76 34.87,-60.89 33.23,-33.92 33.5,-19.95"/>
<polygon fill="midnightblue" stroke="midnightblue" points="408.6,-174.32 418.96,-172.09 409.47,-167.37 408.6,-174.32"/>
</g>
<!-- Node6 -->
<g id="node6" class="node">
<title>Node6</title>
<g id="a_node6"><a xlink:href="_multiplayer_8c.html" target="_top" xlink:title="Multiplayer mode handler.">
<polygon fill="none" stroke="black" points="538,-0.5 538,-19.5 626,-19.5 626,-0.5 538,-0.5"/>
<text text-anchor="middle" x="582" y="-7.5" font-family="Helvetica,sans-Serif" font-size="10.00">src/Multiplayer.c</text>
</a>
</g>
</g>
<!-- Node3&#45;&gt;Node6 -->
<g id="edge16" class="edge">
<title>Node3&#45;&gt;Node6</title>
<path fill="none" stroke="midnightblue" d="M484.14,-162.47C495.24,-154.42 508.35,-143.69 518,-132 548.72,-94.8 570.96,-40.51 578.86,-19.63"/>
<polygon fill="midnightblue" stroke="midnightblue" points="481.96,-159.72 475.76,-168.32 485.96,-165.46 481.96,-159.72"/>
</g>
<!-- Node7 -->
<g id="node7" class="node">
<title>Node7</title>
<g id="a_node7"><a xlink:href="_single_player_8c.html" target="_top" xlink:title="SinglePlayer mode handler.">
<polygon fill="none" stroke="black" points="424,-0.5 424,-19.5 520,-19.5 520,-0.5 424,-0.5"/>
<text text-anchor="middle" x="472" y="-7.5" font-family="Helvetica,sans-Serif" font-size="10.00">src/SinglePlayer.c</text>
</a>
</g>
</g>
<!-- Node3&#45;&gt;Node7 -->
<g id="edge17" class="edge">
<title>Node3&#45;&gt;Node7</title>
<path fill="none" stroke="midnightblue" d="M476.23,-160.43C491.47,-141.48 514.73,-108.82 524,-76 526.42,-67.45 527.7,-64.08 524,-56 516.61,-39.82 500.2,-27.23 487.78,-19.53"/>
<polygon fill="midnightblue" stroke="midnightblue" points="473.35,-158.41 469.67,-168.35 478.75,-162.87 473.35,-158.41"/>
</g>
<!-- Node3&#45;&gt;Node8 -->
<g id="edge7" class="edge">
<title>Node3&#45;&gt;Node8</title>
<path fill="none" stroke="midnightblue" d="M435.48,-163.86C415.27,-153.85 388.01,-140.35 370.47,-131.65"/>
<polygon fill="midnightblue" stroke="midnightblue" points="433.97,-167.02 444.49,-168.32 437.08,-160.75 433.97,-167.02"/>
</g>
<!-- Node3&#45;&gt;Node12 -->
<g id="edge14" class="edge">
<title>Node3&#45;&gt;Node12</title>
<path fill="none" stroke="midnightblue" d="M500.53,-165.57C534.86,-155.38 584.33,-140.7 615.3,-131.52"/>
<polygon fill="midnightblue" stroke="midnightblue" points="499.43,-162.24 490.84,-168.44 501.42,-168.95 499.43,-162.24"/>
</g>
<!-- Node4&#45;&gt;Node5 -->
<g id="edge4" class="edge">
<title>Node4&#45;&gt;Node5</title>
<path fill="none" stroke="midnightblue" d="M418.18,-55.95C282.28,-36.7 133.66,-21.02 68.07,-14.38"/>
<polygon fill="midnightblue" stroke="midnightblue" points="417.96,-59.46 428.36,-57.4 418.95,-52.53 417.96,-59.46"/>
</g>
<!-- Node4&#45;&gt;Node6 -->
<g id="edge5" class="edge">
<title>Node4&#45;&gt;Node6</title>
<path fill="none" stroke="midnightblue" d="M498.76,-51.86C519.16,-41.85 546.67,-28.35 564.37,-19.65"/>
<polygon fill="midnightblue" stroke="midnightblue" points="497.11,-48.78 489.67,-56.32 500.19,-55.06 497.11,-48.78"/>
</g>
<!-- Node4&#45;&gt;Node7 -->
<g id="edge6" class="edge">
<title>Node4&#45;&gt;Node7</title>
<path fill="none" stroke="midnightblue" d="M472,-45.8C472,-36.91 472,-26.78 472,-19.75"/>
<polygon fill="midnightblue" stroke="midnightblue" points="468.5,-46.08 472,-56.08 475.5,-46.08 468.5,-46.08"/>
</g>
<!-- Node8&#45;&gt;Node4 -->
<g id="edge8" class="edge">
<title>Node8&#45;&gt;Node4</title>
<path fill="none" stroke="midnightblue" d="M381.14,-108.23C403.4,-98.13 433.86,-84.31 453.23,-75.52"/>
<polygon fill="midnightblue" stroke="midnightblue" points="379.52,-105.12 371.86,-112.44 382.41,-111.5 379.52,-105.12"/>
</g>
<!-- Node8&#45;&gt;Node5 -->
<g id="edge12" class="edge">
<title>Node8&#45;&gt;Node5</title>
<path fill="none" stroke="midnightblue" d="M298.16,-117.75C227.04,-112.6 107.85,-100.54 72,-76 51.94,-62.27 40.97,-34.18 36.47,-19.84"/>
<polygon fill="midnightblue" stroke="midnightblue" points="298.07,-121.25 308.29,-118.45 298.56,-114.26 298.07,-121.25"/>
</g>
<!-- Node9 -->
<g id="node9" class="node">
<title>Node9</title>
<g id="a_node9"><a xlink:href="_multiplayer_8h.html" target="_top" xlink:title="Multiplayer mode handler.">
<polygon fill="none" stroke="black" points="81.5,-56.5 81.5,-75.5 188.5,-75.5 188.5,-56.5 81.5,-56.5"/>
<text text-anchor="middle" x="135" y="-63.5" font-family="Helvetica,sans-Serif" font-size="10.00">include/Multiplayer.h</text>
</a>
</g>
</g>
<!-- Node8&#45;&gt;Node9 -->
<g id="edge9" class="edge">
<title>Node8&#45;&gt;Node9</title>
<path fill="none" stroke="midnightblue" d="M308.69,-110.02C267.51,-99.82 207.03,-84.84 169.38,-75.52"/>
<polygon fill="midnightblue" stroke="midnightblue" points="307.91,-113.44 318.46,-112.44 309.59,-106.64 307.91,-113.44"/>
</g>
<!-- Node10 -->
<g id="node10" class="node">
<title>Node10</title>
<g id="a_node10"><a xlink:href="_single_player_8h.html" target="_top" xlink:title="SinglePlayer mode handler.">
<polygon fill="none" stroke="black" points="295.5,-56.5 295.5,-75.5 410.5,-75.5 410.5,-56.5 295.5,-56.5"/>
<text text-anchor="middle" x="353" y="-63.5" font-family="Helvetica,sans-Serif" font-size="10.00">include/SinglePlayer.h</text>
</a>
</g>
</g>
<!-- Node8&#45;&gt;Node10 -->
<g id="edge10" class="edge">
<title>Node8&#45;&gt;Node10</title>
<path fill="none" stroke="midnightblue" d="M353,-101.8C353,-92.91 353,-82.78 353,-75.75"/>
<polygon fill="midnightblue" stroke="midnightblue" points="349.5,-102.08 353,-112.08 356.5,-102.08 349.5,-102.08"/>
</g>
<!-- Node11 -->
<g id="node11" class="node">
<title>Node11</title>
<g id="a_node11"><a xlink:href="_moves_8c.html" target="_top" xlink:title="Moves contains all the data types and methods used to handle moves.">
<polygon fill="none" stroke="black" points="207,-56.5 207,-75.5 277,-75.5 277,-56.5 207,-56.5"/>
<text text-anchor="middle" x="242" y="-63.5" font-family="Helvetica,sans-Serif" font-size="10.00">src/Moves.c</text>
</a>
</g>
</g>
<!-- Node8&#45;&gt;Node11 -->
<g id="edge13" class="edge">
<title>Node8&#45;&gt;Node11</title>
<path fill="none" stroke="midnightblue" d="M325.99,-107.86C305.41,-97.85 277.66,-84.35 259.79,-75.65"/>
<polygon fill="midnightblue" stroke="midnightblue" points="324.64,-111.1 335.17,-112.32 327.7,-104.8 324.64,-111.1"/>
</g>
<!-- Node10&#45;&gt;Node7 -->
<g id="edge11" class="edge">
<title>Node10&#45;&gt;Node7</title>
<path fill="none" stroke="midnightblue" d="M381.14,-52.23C403.4,-42.13 433.86,-28.31 453.23,-19.52"/>
<polygon fill="midnightblue" stroke="midnightblue" points="379.52,-49.12 371.86,-56.44 382.41,-55.5 379.52,-49.12"/>
</g>
</g>
</svg>
