<?xml version="1.0" encoding="UTF-8" standalone="no"?>
<!DOCTYPE svg PUBLIC "-//W3C//DTD SVG 1.1//EN"
 "http://www.w3.org/Graphics/SVG/1.1/DTD/svg11.dtd">
<!-- Generated by graphviz version 2.48.0 (20210717.1556)
 -->
<!-- Title: include/Tower.h Pages: 1 -->
<svg width="917pt" height="364pt"
 viewBox="0.00 0.00 917.06 364.00" xmlns="http://www.w3.org/2000/svg" xmlns:xlink="http://www.w3.org/1999/xlink">
<g id="graph0" class="graph" transform="scale(1 1) rotate(0) translate(4 360)">
<title>include/Tower.h</title>
<!-- Node1 -->
<g id="node1" class="node">
<title>Node1</title>
<g id="a_node1"><a xlink:title="Data types and methods used to handle a Tower.">
<polygon fill="#bfbfbf" stroke="black" points="751.06,-336.5 751.06,-355.5 836.06,-355.5 836.06,-336.5 751.06,-336.5"/>
<text text-anchor="middle" x="793.56" y="-343.5" font-family="Helvetica,sans-Serif" font-size="10.00">include/Tower.h</text>
</a>
</g>
</g>
<!-- Node2 -->
<g id="node2" class="node">
<title>Node2</title>
<g id="a_node2"><a xlink:href="_cell_8h.html" target="_top" xlink:title="Cell struct and methods to handle cells and their towers.">
<polygon fill="none" stroke="black" points="646.06,-280.5 646.06,-299.5 723.06,-299.5 723.06,-280.5 646.06,-280.5"/>
<text text-anchor="middle" x="684.56" y="-287.5" font-family="Helvetica,sans-Serif" font-size="10.00">include/Cell.h</text>
</a>
</g>
</g>
<!-- Node1&#45;&gt;Node2 -->
<g id="edge1" class="edge">
<title>Node1&#45;&gt;Node2</title>
<path fill="none" stroke="midnightblue" d="M767.05,-331.86C746.83,-321.85 719.58,-308.35 702.03,-299.65"/>
<polygon fill="midnightblue" stroke="midnightblue" points="765.54,-335.02 776.05,-336.32 768.64,-328.75 765.54,-335.02"/>
</g>
<!-- Node14 -->
<g id="node14" class="node">
<title>Node14</title>
<g id="a_node14"><a xlink:href="_board_8c.html" target="_top" xlink:title="Board struct and methods to handle the board.">
<polygon fill="none" stroke="black" points="690.06,-168.5 690.06,-187.5 757.06,-187.5 757.06,-168.5 690.06,-168.5"/>
<text text-anchor="middle" x="723.56" y="-175.5" font-family="Helvetica,sans-Serif" font-size="10.00">src/Board.c</text>
</a>
</g>
</g>
<!-- Node1&#45;&gt;Node14 -->
<g id="edge27" class="edge">
<title>Node1&#45;&gt;Node14</title>
<path fill="none" stroke="midnightblue" d="M799.01,-326.44C805.23,-301.46 812.39,-256.4 794.56,-224 784.86,-206.35 764.98,-194.66 748.73,-187.62"/>
<polygon fill="midnightblue" stroke="midnightblue" points="795.55,-325.83 796.32,-336.39 802.31,-327.66 795.55,-325.83"/>
</g>
<!-- Node15 -->
<g id="node15" class="node">
<title>Node15</title>
<g id="a_node15"><a xlink:href="_cell_8c.html" target="_top" xlink:title="Cell struct and methods to handle cells and their towers.">
<polygon fill="none" stroke="black" points="727.56,-224.5 727.56,-243.5 785.56,-243.5 785.56,-224.5 727.56,-224.5"/>
<text text-anchor="middle" x="756.56" y="-231.5" font-family="Helvetica,sans-Serif" font-size="10.00">src/Cell.c</text>
</a>
</g>
</g>
<!-- Node1&#45;&gt;Node15 -->
<g id="edge28" class="edge">
<title>Node1&#45;&gt;Node15</title>
<path fill="none" stroke="midnightblue" d="M787.4,-326.67C779.31,-302.62 765.44,-261.39 759.45,-243.59"/>
<polygon fill="midnightblue" stroke="midnightblue" points="784.16,-328.01 790.66,-336.37 790.79,-325.77 784.16,-328.01"/>
</g>
<!-- Node16 -->
<g id="node16" class="node">
<title>Node16</title>
<g id="a_node16"><a xlink:href="_tower_8c.html" target="_top" xlink:title="Data types and methods used to handle a Tower.">
<polygon fill="none" stroke="black" points="842.06,-280.5 842.06,-299.5 909.06,-299.5 909.06,-280.5 842.06,-280.5"/>
<text text-anchor="middle" x="875.56" y="-287.5" font-family="Helvetica,sans-Serif" font-size="10.00">src/Tower.c</text>
</a>
</g>
</g>
<!-- Node1&#45;&gt;Node16 -->
<g id="edge29" class="edge">
<title>Node1&#45;&gt;Node16</title>
<path fill="none" stroke="midnightblue" d="M815.4,-330.62C830.38,-320.76 849.76,-307.99 862.42,-299.65"/>
<polygon fill="midnightblue" stroke="midnightblue" points="813.17,-327.9 806.74,-336.32 817.02,-333.75 813.17,-327.9"/>
</g>
<!-- Node3 -->
<g id="node3" class="node">
<title>Node3</title>
<g id="a_node3"><a xlink:href="_board_8h.html" target="_top" xlink:title="Board struct and methods to handle the board.">
<polygon fill="none" stroke="black" points="242.56,-224.5 242.56,-243.5 328.56,-243.5 328.56,-224.5 242.56,-224.5"/>
<text text-anchor="middle" x="285.56" y="-231.5" font-family="Helvetica,sans-Serif" font-size="10.00">include/Board.h</text>
</a>
</g>
</g>
<!-- Node2&#45;&gt;Node3 -->
<g id="edge2" class="edge">
<title>Node2&#45;&gt;Node3</title>
<path fill="none" stroke="midnightblue" d="M635.82,-282.4C557.19,-271.76 403.61,-250.98 328.71,-240.84"/>
<polygon fill="midnightblue" stroke="midnightblue" points="635.56,-285.9 645.94,-283.77 636.5,-278.96 635.56,-285.9"/>
</g>
<!-- Node8 -->
<g id="node8" class="node">
<title>Node8</title>
<g id="a_node8"><a xlink:href="_game_8c.html" target="_top" xlink:title="Methods to handle a game.">
<polygon fill="none" stroke="black" points="356.56,-56.5 356.56,-75.5 424.56,-75.5 424.56,-56.5 356.56,-56.5"/>
<text text-anchor="middle" x="390.56" y="-63.5" font-family="Helvetica,sans-Serif" font-size="10.00">src/Game.c</text>
</a>
</g>
</g>
<!-- Node2&#45;&gt;Node8 -->
<g id="edge26" class="edge">
<title>Node2&#45;&gt;Node8</title>
<path fill="none" stroke="midnightblue" d="M682.69,-270.26C678.21,-229.29 665.49,-133.67 642.56,-112 611.64,-82.77 485.97,-72.09 424.6,-68.56"/>
<polygon fill="midnightblue" stroke="midnightblue" points="679.24,-270.88 683.76,-280.47 686.2,-270.16 679.24,-270.88"/>
</g>
<!-- Node10 -->
<g id="node10" class="node">
<title>Node10</title>
<g id="a_node10"><a xlink:href="_moves_8h.html" target="_top" xlink:title="Moves contains all the data types and methods used to handle moves.">
<polygon fill="none" stroke="black" points="400.06,-168.5 400.06,-187.5 489.06,-187.5 489.06,-168.5 400.06,-168.5"/>
<text text-anchor="middle" x="444.56" y="-175.5" font-family="Helvetica,sans-Serif" font-size="10.00">include/Moves.h</text>
</a>
</g>
</g>
<!-- Node2&#45;&gt;Node10 -->
<g id="edge23" class="edge">
<title>Node2&#45;&gt;Node10</title>
<path fill="none" stroke="midnightblue" d="M656.56,-276.16C607.04,-253.47 505.29,-206.83 463.31,-187.59"/>
<polygon fill="midnightblue" stroke="midnightblue" points="655.18,-279.38 665.73,-280.37 658.1,-273.02 655.18,-279.38"/>
</g>
<!-- Node2&#45;&gt;Node14 -->
<g id="edge24" class="edge">
<title>Node2&#45;&gt;Node14</title>
<path fill="none" stroke="midnightblue" d="M691.06,-270.67C699.59,-246.62 714.21,-205.39 720.52,-187.59"/>
<polygon fill="midnightblue" stroke="midnightblue" points="687.67,-269.77 687.62,-280.37 694.26,-272.11 687.67,-269.77"/>
</g>
<!-- Node2&#45;&gt;Node15 -->
<g id="edge25" class="edge">
<title>Node2&#45;&gt;Node15</title>
<path fill="none" stroke="midnightblue" d="M704.43,-274.1C717.39,-264.38 733.86,-252.03 744.79,-243.83"/>
<polygon fill="midnightblue" stroke="midnightblue" points="702.03,-271.52 696.13,-280.32 706.23,-277.12 702.03,-271.52"/>
</g>
<!-- Node4 -->
<g id="node4" class="node">
<title>Node4</title>
<g id="a_node4"><a xlink:href="_game_8h.html" target="_top" xlink:title="Methods to handle a game.">
<polygon fill="none" stroke="black" points="84.06,-112.5 84.06,-131.5 171.06,-131.5 171.06,-112.5 84.06,-112.5"/>
<text text-anchor="middle" x="127.56" y="-119.5" font-family="Helvetica,sans-Serif" font-size="10.00">include/Game.h</text>
</a>
</g>
</g>
<!-- Node3&#45;&gt;Node4 -->
<g id="edge3" class="edge">
<title>Node3&#45;&gt;Node4</title>
<path fill="none" stroke="midnightblue" d="M249.24,-220.9C229.34,-213.26 204.87,-202.15 185.56,-188 163.12,-171.55 142.98,-145.17 133.42,-131.63"/>
<polygon fill="midnightblue" stroke="midnightblue" points="248.3,-224.28 258.89,-224.47 250.73,-217.72 248.3,-224.28"/>
</g>
<!-- Node5 -->
<g id="node5" class="node">
<title>Node5</title>
<g id="a_node5"><a xlink:href="_minimax_a_i_8h.html" target="_top" xlink:title="Minimax algorithm.">
<polygon fill="none" stroke="black" points="155.56,-56.5 155.56,-75.5 261.56,-75.5 261.56,-56.5 155.56,-56.5"/>
<text text-anchor="middle" x="208.56" y="-63.5" font-family="Helvetica,sans-Serif" font-size="10.00">include/MinimaxAI.h</text>
</a>
</g>
</g>
<!-- Node3&#45;&gt;Node5 -->
<g id="edge10" class="edge">
<title>Node3&#45;&gt;Node5</title>
<path fill="none" stroke="midnightblue" d="M271.36,-216.58C255.75,-197.57 231.21,-164.67 218.56,-132 211.15,-112.83 209.22,-88.48 208.72,-75.72"/>
<polygon fill="midnightblue" stroke="midnightblue" points="268.72,-218.88 277.83,-224.28 274.08,-214.37 268.72,-218.88"/>
</g>
<!-- Node7 -->
<g id="node7" class="node">
<title>Node7</title>
<g id="a_node7"><a xlink:href="_single_player_8c.html" target="_top" xlink:title="SinglePlayer mode handler.">
<polygon fill="none" stroke="black" points="79.56,-0.5 79.56,-19.5 175.56,-19.5 175.56,-0.5 79.56,-0.5"/>
<text text-anchor="middle" x="127.56" y="-7.5" font-family="Helvetica,sans-Serif" font-size="10.00">src/SinglePlayer.c</text>
</a>
</g>
</g>
<!-- Node3&#45;&gt;Node7 -->
<g id="edge22" class="edge">
<title>Node3&#45;&gt;Node7</title>
<path fill="none" stroke="midnightblue" d="M232.54,-227.26C196,-221.49 147.39,-210.12 109.56,-188 50.14,-153.24 28.18,-139.9 2.56,-76 -11.73,-40.36 38.53,-23.98 79.53,-16.65"/>
<polygon fill="midnightblue" stroke="midnightblue" points="232.11,-230.73 242.51,-228.74 233.14,-223.81 232.11,-230.73"/>
</g>
<!-- Node3&#45;&gt;Node8 -->
<g id="edge20" class="edge">
<title>Node3&#45;&gt;Node8</title>
<path fill="none" stroke="midnightblue" d="M296.9,-216.09C310.21,-196.14 332.85,-161.88 351.56,-132 364,-112.15 378,-88.48 385.37,-75.9"/>
<polygon fill="midnightblue" stroke="midnightblue" points="293.97,-214.17 291.33,-224.43 299.79,-218.06 293.97,-214.17"/>
</g>
<!-- Node9 -->
<g id="node9" class="node">
<title>Node9</title>
<g id="a_node9"><a xlink:href="_multiplayer_8c.html" target="_top" xlink:title="Multiplayer mode handler.">
<polygon fill="none" stroke="black" points="11.56,-56.5 11.56,-75.5 99.56,-75.5 99.56,-56.5 11.56,-56.5"/>
<text text-anchor="middle" x="55.56" y="-63.5" font-family="Helvetica,sans-Serif" font-size="10.00">src/Multiplayer.c</text>
</a>
</g>
</g>
<!-- Node3&#45;&gt;Node9 -->
<g id="edge21" class="edge">
<title>Node3&#45;&gt;Node9</title>
<path fill="none" stroke="midnightblue" d="M232.53,-222.37C183.49,-209.63 112.63,-183.24 74.56,-132 61.8,-114.82 57.58,-89.22 56.21,-75.85"/>
<polygon fill="midnightblue" stroke="midnightblue" points="231.78,-225.79 242.33,-224.82 233.47,-219 231.78,-225.79"/>
</g>
<!-- Node3&#45;&gt;Node10 -->
<g id="edge11" class="edge">
<title>Node3&#45;&gt;Node10</title>
<path fill="none" stroke="midnightblue" d="M320.39,-221.17C350.33,-211 392.79,-196.59 419.49,-187.52"/>
<polygon fill="midnightblue" stroke="midnightblue" points="319.1,-217.91 310.76,-224.44 321.35,-224.54 319.1,-217.91"/>
</g>
<!-- Node3&#45;&gt;Node14 -->
<g id="edge19" class="edge">
<title>Node3&#45;&gt;Node14</title>
<path fill="none" stroke="midnightblue" d="M338.9,-226.42C430.29,-215.16 614.27,-192.47 689.91,-183.15"/>
<polygon fill="midnightblue" stroke="midnightblue" points="338.26,-222.98 328.76,-227.67 339.11,-229.92 338.26,-222.98"/>
</g>
<!-- Node4&#45;&gt;Node5 -->
<g id="edge4" class="edge">
<title>Node4&#45;&gt;Node5</title>
<path fill="none" stroke="midnightblue" d="M149.13,-106.62C163.93,-96.76 183.08,-83.99 195.58,-75.65"/>
<polygon fill="midnightblue" stroke="midnightblue" points="146.96,-103.86 140.58,-112.32 150.84,-109.69 146.96,-103.86"/>
</g>
<!-- Node4&#45;&gt;Node7 -->
<g id="edge9" class="edge">
<title>Node4&#45;&gt;Node7</title>
<path fill="none" stroke="midnightblue" d="M127.56,-102.35C127.56,-78.25 127.56,-37.31 127.56,-19.59"/>
<polygon fill="midnightblue" stroke="midnightblue" points="124.06,-102.37 127.56,-112.37 131.06,-102.37 124.06,-102.37"/>
</g>
<!-- Node4&#45;&gt;Node8 -->
<g id="edge7" class="edge">
<title>Node4&#45;&gt;Node8</title>
<path fill="none" stroke="midnightblue" d="M179.33,-110.37C231.69,-99.62 311.15,-83.3 356.21,-74.05"/>
<polygon fill="midnightblue" stroke="midnightblue" points="178.33,-107 169.24,-112.44 179.74,-113.86 178.33,-107"/>
</g>
<!-- Node4&#45;&gt;Node9 -->
<g id="edge8" class="edge">
<title>Node4&#45;&gt;Node9</title>
<path fill="none" stroke="midnightblue" d="M107.7,-106.1C94.74,-96.38 78.27,-84.03 67.34,-75.83"/>
<polygon fill="midnightblue" stroke="midnightblue" points="105.9,-109.12 116,-112.32 110.1,-103.52 105.9,-109.12"/>
</g>
<!-- Node6 -->
<g id="node6" class="node">
<title>Node6</title>
<g id="a_node6"><a xlink:href="_minimax_a_i_8c.html" target="_top" xlink:title="Minimax algorithm.">
<polygon fill="none" stroke="black" points="194.06,-0.5 194.06,-19.5 299.06,-19.5 299.06,-0.5 194.06,-0.5"/>
<text text-anchor="middle" x="246.56" y="-7.5" font-family="Helvetica,sans-Serif" font-size="10.00">include/MinimaxAI.c</text>
</a>
</g>
</g>
<!-- Node5&#45;&gt;Node6 -->
<g id="edge5" class="edge">
<title>Node5&#45;&gt;Node6</title>
<path fill="none" stroke="midnightblue" d="M220.63,-47.86C227.21,-38.5 235.08,-27.33 240.41,-19.75"/>
<polygon fill="midnightblue" stroke="midnightblue" points="217.73,-45.89 214.84,-56.08 223.46,-49.92 217.73,-45.89"/>
</g>
<!-- Node5&#45;&gt;Node7 -->
<g id="edge6" class="edge">
<title>Node5&#45;&gt;Node7</title>
<path fill="none" stroke="midnightblue" d="M187,-50.62C172.2,-40.76 153.05,-27.99 140.55,-19.65"/>
<polygon fill="midnightblue" stroke="midnightblue" points="185.29,-53.69 195.55,-56.32 189.17,-47.86 185.29,-53.69"/>
</g>
<!-- Node10&#45;&gt;Node4 -->
<g id="edge12" class="edge">
<title>Node10&#45;&gt;Node4</title>
<path fill="none" stroke="midnightblue" d="M389.83,-167.68C327.81,-157.11 228,-140.11 171.06,-130.41"/>
<polygon fill="midnightblue" stroke="midnightblue" points="389.37,-171.15 399.82,-169.38 390.55,-164.25 389.37,-171.15"/>
</g>
<!-- Node10&#45;&gt;Node8 -->
<g id="edge17" class="edge">
<title>Node10&#45;&gt;Node8</title>
<path fill="none" stroke="midnightblue" d="M435.88,-159.32C424.13,-135.37 403.6,-93.55 394.78,-75.59"/>
<polygon fill="midnightblue" stroke="midnightblue" points="432.78,-160.93 440.33,-168.37 439.06,-157.85 432.78,-160.93"/>
</g>
<!-- Node11 -->
<g id="node11" class="node">
<title>Node11</title>
<g id="a_node11"><a xlink:href="_multiplayer_8h.html" target="_top" xlink:title="Multiplayer mode handler.">
<polygon fill="none" stroke="black" points="438.06,-112.5 438.06,-131.5 545.06,-131.5 545.06,-112.5 438.06,-112.5"/>
<text text-anchor="middle" x="491.56" y="-119.5" font-family="Helvetica,sans-Serif" font-size="10.00">include/Multiplayer.h</text>
</a>
</g>
</g>
<!-- Node10&#45;&gt;Node11 -->
<g id="edge13" class="edge">
<title>Node10&#45;&gt;Node11</title>
<path fill="none" stroke="midnightblue" d="M458.98,-160.43C467.22,-150.97 477.22,-139.48 483.95,-131.75"/>
<polygon fill="midnightblue" stroke="midnightblue" points="456.25,-158.24 452.33,-168.08 461.53,-162.84 456.25,-158.24"/>
</g>
<!-- Node12 -->
<g id="node12" class="node">
<title>Node12</title>
<g id="a_node12"><a xlink:href="_single_player_8h.html" target="_top" xlink:title="SinglePlayer mode handler.">
<polygon fill="none" stroke="black" points="228.06,-112.5 228.06,-131.5 343.06,-131.5 343.06,-112.5 228.06,-112.5"/>
<text text-anchor="middle" x="285.56" y="-119.5" font-family="Helvetica,sans-Serif" font-size="10.00">include/SinglePlayer.h</text>
</a>
</g>
</g>
<!-- Node10&#45;&gt;Node12 -->
<g id="edge14" class="edge">
<title>Node10&#45;&gt;Node12</title>
<path fill="none" stroke="midnightblue" d="M409.74,-165.17C379.8,-155 337.34,-140.59 310.64,-131.52"/>
<polygon fill="midnightblue" stroke="midnightblue" points="408.78,-168.54 419.37,-168.44 411.03,-161.91 408.78,-168.54"/>
</g>
<!-- Node13 -->
<g id="node13" class="node">
<title>Node13</title>
<g id="a_node13"><a xlink:href="_moves_8c.html" target="_top" xlink:title="Moves contains all the data types and methods used to handle moves.">
<polygon fill="none" stroke="black" points="563.56,-112.5 563.56,-131.5 633.56,-131.5 633.56,-112.5 563.56,-112.5"/>
<text text-anchor="middle" x="598.56" y="-119.5" font-family="Helvetica,sans-Serif" font-size="10.00">src/Moves.c</text>
</a>
</g>
</g>
<!-- Node10&#45;&gt;Node13 -->
<g id="edge18" class="edge">
<title>Node10&#45;&gt;Node13</title>
<path fill="none" stroke="midnightblue" d="M478.67,-165.04C507.65,-154.88 548.53,-140.55 574.28,-131.52"/>
<polygon fill="midnightblue" stroke="midnightblue" points="477.24,-161.83 468.97,-168.44 479.56,-168.44 477.24,-161.83"/>
</g>
<!-- Node12&#45;&gt;Node5 -->
<g id="edge15" class="edge">
<title>Node12&#45;&gt;Node5</title>
<path fill="none" stroke="midnightblue" d="M264.66,-106.34C250.65,-96.52 232.68,-83.91 220.9,-75.65"/>
<polygon fill="midnightblue" stroke="midnightblue" points="263,-109.45 273.19,-112.32 267.01,-103.72 263,-109.45"/>
</g>
<!-- Node12&#45;&gt;Node7 -->
<g id="edge16" class="edge">
<title>Node12&#45;&gt;Node7</title>
<path fill="none" stroke="midnightblue" d="M285.98,-101.95C285.27,-87.59 281.98,-68.34 270.56,-56 256.87,-41.19 207.33,-27.82 170.38,-19.57"/>
<polygon fill="midnightblue" stroke="midnightblue" points="282.49,-102.22 286.11,-112.18 289.49,-102.14 282.49,-102.22"/>
</g>
</g>
</svg>
