<?xml version="1.0" encoding="UTF-8" standalone="no"?>
<!DOCTYPE svg PUBLIC "-//W3C//DTD SVG 1.1//EN"
 "http://www.w3.org/Graphics/SVG/1.1/DTD/svg11.dtd">
<!-- Generated by graphviz version 2.48.0 (20210717.1556)
 -->
<!-- Title: Move Pages: 1 -->
<svg width="82pt" height="251pt"
 viewBox="0.00 0.00 81.50 251.00" xmlns="http://www.w3.org/2000/svg" xmlns:xlink="http://www.w3.org/1999/xlink">
<g id="graph0" class="graph" transform="scale(1 1) rotate(0) translate(4 247)">
<title>Move</title>
<!-- Node1 -->
<g id="node1" class="node">
<title>Node1</title>
<g id="a_node1"><a xlink:title="Represents a possible move for a Tower.">
<polygon fill="#bfbfbf" stroke="black" points="1,-0.5 1,-19.5 42,-19.5 42,-0.5 1,-0.5"/>
<text text-anchor="middle" x="21.5" y="-7.5" font-family="Helvetica,sans-Serif" font-size="10.00">Move</text>
</a>
</g>
</g>
<!-- Node2 -->
<g id="node2" class="node">
<title>Node2</title>
<g id="a_node2"><a xlink:href="struct_cell.html" target="_top" xlink:title="Single cell of the play board.">
<polygon fill="none" stroke="black" points="4.5,-89.5 4.5,-108.5 38.5,-108.5 38.5,-89.5 4.5,-89.5"/>
<text text-anchor="middle" x="21.5" y="-96.5" font-family="Helvetica,sans-Serif" font-size="10.00">Cell</text>
</a>
</g>
</g>
<!-- Node2&#45;&gt;Node1 -->
<g id="edge1" class="edge">
<title>Node2&#45;&gt;Node1</title>
<path fill="none" stroke="#9a32cd" stroke-dasharray="5,2" d="M21.5,-79.19C21.5,-60.74 21.5,-33.41 21.5,-19.62"/>
<polygon fill="#9a32cd" stroke="#9a32cd" points="18,-79.34 21.5,-89.34 25,-79.34 18,-79.34"/>
<text text-anchor="middle" x="47.5" y="-63" font-family="Helvetica,sans-Serif" font-size="10.00"> destination</text>
<text text-anchor="middle" x="47.5" y="-52" font-family="Helvetica,sans-Serif" font-size="10.00">eaten</text>
<text text-anchor="middle" x="47.5" y="-41" font-family="Helvetica,sans-Serif" font-size="10.00">origin</text>
</g>
<!-- Node3 -->
<g id="node3" class="node">
<title>Node3</title>
<g id="a_node3"><a xlink:href="struct_tower.html" target="_top" xlink:title="Array of Piece.">
<polygon fill="none" stroke="black" points="0,-156.5 0,-175.5 43,-175.5 43,-156.5 0,-156.5"/>
<text text-anchor="middle" x="21.5" y="-163.5" font-family="Helvetica,sans-Serif" font-size="10.00">Tower</text>
</a>
</g>
</g>
<!-- Node3&#45;&gt;Node2 -->
<g id="edge2" class="edge">
<title>Node3&#45;&gt;Node2</title>
<path fill="none" stroke="#9a32cd" stroke-dasharray="5,2" d="M21.5,-146.04C21.5,-133.67 21.5,-118.12 21.5,-108.63"/>
<polygon fill="#9a32cd" stroke="#9a32cd" points="18,-146.23 21.5,-156.23 25,-146.23 18,-146.23"/>
<text text-anchor="middle" x="35.5" y="-130" font-family="Helvetica,sans-Serif" font-size="10.00"> tower</text>
</g>
<!-- Node4 -->
<g id="node4" class="node">
<title>Node4</title>
<g id="a_node4"><a xlink:href="struct_piece.html" target="_top" xlink:title="Single piece of a Tower.">
<polygon fill="none" stroke="black" points="0.5,-223.5 0.5,-242.5 42.5,-242.5 42.5,-223.5 0.5,-223.5"/>
<text text-anchor="middle" x="21.5" y="-230.5" font-family="Helvetica,sans-Serif" font-size="10.00">Piece</text>
</a>
</g>
</g>
<!-- Node4&#45;&gt;Node3 -->
<g id="edge3" class="edge">
<title>Node4&#45;&gt;Node3</title>
<path fill="none" stroke="#9a32cd" stroke-dasharray="5,2" d="M21.5,-213.04C21.5,-200.67 21.5,-185.12 21.5,-175.63"/>
<polygon fill="#9a32cd" stroke="#9a32cd" points="18,-213.23 21.5,-223.23 25,-213.23 18,-213.23"/>
<text text-anchor="middle" x="37.5" y="-197" font-family="Helvetica,sans-Serif" font-size="10.00"> pieces</text>
</g>
</g>
</svg>
