<?xml version="1.0" encoding="UTF-8" standalone="no"?>
<!DOCTYPE svg PUBLIC "-//W3C//DTD SVG 1.1//EN"
 "http://www.w3.org/Graphics/SVG/1.1/DTD/svg11.dtd">
<!-- Generated by graphviz version 2.48.0 (20210717.1556)
 -->
<!-- Title: Moves Pages: 1 -->
<svg width="83pt" height="318pt"
 viewBox="0.00 0.00 83.00 318.00" xmlns="http://www.w3.org/2000/svg" xmlns:xlink="http://www.w3.org/1999/xlink">
<g id="graph0" class="graph" transform="scale(1 1) rotate(0) translate(4 314)">
<title>Moves</title>
<!-- Node1 -->
<g id="node1" class="node">
<title>Node1</title>
<g id="a_node1"><a xlink:title="Array of Move.">
<polygon fill="#bfbfbf" stroke="black" points="0,-0.5 0,-19.5 46,-19.5 46,-0.5 0,-0.5"/>
<text text-anchor="middle" x="23" y="-7.5" font-family="Helvetica,sans-Serif" font-size="10.00">Moves</text>
</a>
</g>
</g>
<!-- Node2 -->
<g id="node2" class="node">
<title>Node2</title>
<g id="a_node2"><a xlink:href="struct_move.html" target="_top" xlink:title="Represents a possible move for a Tower.">
<polygon fill="none" stroke="black" points="2.5,-67.5 2.5,-86.5 43.5,-86.5 43.5,-67.5 2.5,-67.5"/>
<text text-anchor="middle" x="23" y="-74.5" font-family="Helvetica,sans-Serif" font-size="10.00">Move</text>
</a>
</g>
</g>
<!-- Node2&#45;&gt;Node1 -->
<g id="edge1" class="edge">
<title>Node2&#45;&gt;Node1</title>
<path fill="none" stroke="#9a32cd" stroke-dasharray="5,2" d="M23,-57.04C23,-44.67 23,-29.12 23,-19.63"/>
<polygon fill="#9a32cd" stroke="#9a32cd" points="19.5,-57.23 23,-67.23 26.5,-57.23 19.5,-57.23"/>
<text text-anchor="middle" x="39.5" y="-41" font-family="Helvetica,sans-Serif" font-size="10.00"> moves</text>
</g>
<!-- Node3 -->
<g id="node3" class="node">
<title>Node3</title>
<g id="a_node3"><a xlink:href="struct_cell.html" target="_top" xlink:title="Single cell of the play board.">
<polygon fill="none" stroke="black" points="6,-156.5 6,-175.5 40,-175.5 40,-156.5 6,-156.5"/>
<text text-anchor="middle" x="23" y="-163.5" font-family="Helvetica,sans-Serif" font-size="10.00">Cell</text>
</a>
</g>
</g>
<!-- Node3&#45;&gt;Node2 -->
<g id="edge2" class="edge">
<title>Node3&#45;&gt;Node2</title>
<path fill="none" stroke="#9a32cd" stroke-dasharray="5,2" d="M23,-146.19C23,-127.74 23,-100.41 23,-86.62"/>
<polygon fill="#9a32cd" stroke="#9a32cd" points="19.5,-146.34 23,-156.34 26.5,-146.34 19.5,-146.34"/>
<text text-anchor="middle" x="49" y="-130" font-family="Helvetica,sans-Serif" font-size="10.00"> destination</text>
<text text-anchor="middle" x="49" y="-119" font-family="Helvetica,sans-Serif" font-size="10.00">eaten</text>
<text text-anchor="middle" x="49" y="-108" font-family="Helvetica,sans-Serif" font-size="10.00">origin</text>
</g>
<!-- Node4 -->
<g id="node4" class="node">
<title>Node4</title>
<g id="a_node4"><a xlink:href="struct_tower.html" target="_top" xlink:title="Array of Piece.">
<polygon fill="none" stroke="black" points="1.5,-223.5 1.5,-242.5 44.5,-242.5 44.5,-223.5 1.5,-223.5"/>
<text text-anchor="middle" x="23" y="-230.5" font-family="Helvetica,sans-Serif" font-size="10.00">Tower</text>
</a>
</g>
</g>
<!-- Node4&#45;&gt;Node3 -->
<g id="edge3" class="edge">
<title>Node4&#45;&gt;Node3</title>
<path fill="none" stroke="#9a32cd" stroke-dasharray="5,2" d="M23,-213.04C23,-200.67 23,-185.12 23,-175.63"/>
<polygon fill="#9a32cd" stroke="#9a32cd" points="19.5,-213.23 23,-223.23 26.5,-213.23 19.5,-213.23"/>
<text text-anchor="middle" x="37" y="-197" font-family="Helvetica,sans-Serif" font-size="10.00"> tower</text>
</g>
<!-- Node5 -->
<g id="node5" class="node">
<title>Node5</title>
<g id="a_node5"><a xlink:href="struct_piece.html" target="_top" xlink:title="Single piece of a Tower.">
<polygon fill="none" stroke="black" points="2,-290.5 2,-309.5 44,-309.5 44,-290.5 2,-290.5"/>
<text text-anchor="middle" x="23" y="-297.5" font-family="Helvetica,sans-Serif" font-size="10.00">Piece</text>
</a>
</g>
</g>
<!-- Node5&#45;&gt;Node4 -->
<g id="edge4" class="edge">
<title>Node5&#45;&gt;Node4</title>
<path fill="none" stroke="#9a32cd" stroke-dasharray="5,2" d="M23,-280.04C23,-267.67 23,-252.12 23,-242.63"/>
<polygon fill="#9a32cd" stroke="#9a32cd" points="19.5,-280.23 23,-290.23 26.5,-280.23 19.5,-280.23"/>
<text text-anchor="middle" x="39" y="-264" font-family="Helvetica,sans-Serif" font-size="10.00"> pieces</text>
</g>
</g>
</svg>
