<?xml version="1.0" encoding="UTF-8" standalone="no"?>
<!DOCTYPE svg PUBLIC "-//W3C//DTD SVG 1.1//EN"
 "http://www.w3.org/Graphics/SVG/1.1/DTD/svg11.dtd">
<!-- Generated by graphviz version 2.48.0 (20210717.1556)
 -->
<!-- Title: Cell Pages: 1 -->
<svg width="62pt" height="162pt"
 viewBox="0.00 0.00 61.50 162.00" xmlns="http://www.w3.org/2000/svg" xmlns:xlink="http://www.w3.org/1999/xlink">
<g id="graph0" class="graph" transform="scale(1 1) rotate(0) translate(4 158)">
<title>Cell</title>
<!-- Node1 -->
<g id="node1" class="node">
<title>Node1</title>
<g id="a_node1"><a xlink:title="Single cell of the play board.">
<polygon fill="#bfbfbf" stroke="black" points="4.5,-0.5 4.5,-19.5 38.5,-19.5 38.5,-0.5 4.5,-0.5"/>
<text text-anchor="middle" x="21.5" y="-7.5" font-family="Helvetica,sans-Serif" font-size="10.00">Cell</text>
</a>
</g>
</g>
<!-- Node2 -->
<g id="node2" class="node">
<title>Node2</title>
<g id="a_node2"><a xlink:href="struct_tower.html" target="_top" xlink:title="Array of Piece.">
<polygon fill="none" stroke="black" points="0,-67.5 0,-86.5 43,-86.5 43,-67.5 0,-67.5"/>
<text text-anchor="middle" x="21.5" y="-74.5" font-family="Helvetica,sans-Serif" font-size="10.00">Tower</text>
</a>
</g>
</g>
<!-- Node2&#45;&gt;Node1 -->
<g id="edge1" class="edge">
<title>Node2&#45;&gt;Node1</title>
<path fill="none" stroke="#9a32cd" stroke-dasharray="5,2" d="M21.5,-57.04C21.5,-44.67 21.5,-29.12 21.5,-19.63"/>
<polygon fill="#9a32cd" stroke="#9a32cd" points="18,-57.23 21.5,-67.23 25,-57.23 18,-57.23"/>
<text text-anchor="middle" x="35.5" y="-41" font-family="Helvetica,sans-Serif" font-size="10.00"> tower</text>
</g>
<!-- Node3 -->
<g id="node3" class="node">
<title>Node3</title>
<g id="a_node3"><a xlink:href="struct_piece.html" target="_top" xlink:title="Single piece of a Tower.">
<polygon fill="none" stroke="black" points="0.5,-134.5 0.5,-153.5 42.5,-153.5 42.5,-134.5 0.5,-134.5"/>
<text text-anchor="middle" x="21.5" y="-141.5" font-family="Helvetica,sans-Serif" font-size="10.00">Piece</text>
</a>
</g>
</g>
<!-- Node3&#45;&gt;Node2 -->
<g id="edge2" class="edge">
<title>Node3&#45;&gt;Node2</title>
<path fill="none" stroke="#9a32cd" stroke-dasharray="5,2" d="M21.5,-124.04C21.5,-111.67 21.5,-96.12 21.5,-86.63"/>
<polygon fill="#9a32cd" stroke="#9a32cd" points="18,-124.23 21.5,-134.23 25,-124.23 18,-124.23"/>
<text text-anchor="middle" x="37.5" y="-108" font-family="Helvetica,sans-Serif" font-size="10.00"> pieces</text>
</g>
</g>
</svg>
